  0
SECTION
  2
BLOCKS
  0
ENDSEC
  0
SECTION
  2
ENTITIES
  0
LINE
  8
0
 10
125
 20
-13.1282
 11
124.555
 21
-12.9522
  0
LINE
  8
0
 10
124.555
 20
-12.9522
 11
124.018
 21
-12.7128
  0
LINE
  8
0
 10
124.018
 20
-12.7128
 11
123.491
 21
-12.4512
  0
LINE
  8
0
 10
123.491
 20
-12.4512
 11
122.975
 21
-12.1676
  0
LINE
  8
0
 10
122.975
 20
-12.1676
 11
122.472
 21
-11.8628
  0
LINE
  8
0
 10
122.472
 20
-11.8628
 11
121.981
 21
-11.5371
  0
LINE
  8
0
 10
121.981
 20
-11.5371
 11
121.505
 21
-11.1912
  0
LINE
  8
0
 10
121.505
 20
-11.1912
 11
121.044
 21
-10.8257
  0
LINE
  8
0
 10
121.044
 20
-10.8257
 11
120.599
 21
-10.4412
  0
LINE
  8
0
 10
120.599
 20
-10.4412
 11
120.17
 21
-10.0383
  0
LINE
  8
0
 10
120.17
 20
-10.0383
 11
119.758
 21
-9.61787
  0
LINE
  8
0
 10
119.758
 20
-9.61787
 11
119.364
 21
-9.18056
  0
LINE
  8
0
 10
119.364
 20
-9.18056
 11
118.989
 21
-8.72711
  0
LINE
  8
0
 10
118.989
 20
-8.72711
 11
118.633
 21
-8.25838
  0
LINE
  8
0
 10
118.633
 20
-8.25838
 11
118.297
 21
-7.77515
  0
LINE
  8
0
 10
118.297
 20
-7.77515
 11
117.982
 21
-7.27827
  0
LINE
  8
0
 10
117.982
 20
-7.27827
 11
117.688
 21
-6.76863
  0
LINE
  8
0
 10
117.688
 20
-6.76863
 11
117.415
 21
-6.24712
  0
LINE
  8
0
 10
117.415
 20
-6.24712
 11
117.165
 21
-5.71465
  0
LINE
  8
0
 10
117.165
 20
-5.71465
 11
116.937
 21
-5.17215
  0
LINE
  8
0
 10
116.937
 20
-5.17215
 11
116.732
 21
-4.62057
  0
LINE
  8
0
 10
116.732
 20
-4.62057
 11
116.55
 21
-4.06088
  0
LINE
  8
0
 10
116.55
 20
-4.06088
 11
116.391
 21
-3.49408
  0
LINE
  8
0
 10
116.391
 20
-3.49408
 11
116.257
 21
-2.92116
  0
LINE
  8
0
 10
116.257
 20
-2.92116
 11
116.147
 21
-2.34309
  0
LINE
  8
0
 10
116.147
 20
-2.34309
 11
116.061
 21
-1.76093
  0
LINE
  8
0
 10
116.061
 20
-1.76093
 11
115.999
 21
-1.17566
  0
LINE
  8
0
 10
115.999
 20
-1.17566
 11
115.962
 21
-0.588348
  0
LINE
  8
0
 10
115.962
 20
-0.588348
 11
115.95
 21
0
  0
LINE
  8
0
 10
115.95
 20
0
 11
115.962
 21
0.588348
  0
LINE
  8
0
 10
115.962
 20
0.588348
 11
115.999
 21
1.17566
  0
LINE
  8
0
 10
115.999
 20
1.17566
 11
116.061
 21
1.76093
  0
LINE
  8
0
 10
116.061
 20
1.76093
 11
116.147
 21
2.34309
  0
LINE
  8
0
 10
116.147
 20
2.34309
 11
116.257
 21
2.92116
  0
LINE
  8
0
 10
116.257
 20
2.92116
 11
116.391
 21
3.49408
  0
LINE
  8
0
 10
116.391
 20
3.49408
 11
116.55
 21
4.06088
  0
LINE
  8
0
 10
116.55
 20
4.06088
 11
116.732
 21
4.62057
  0
LINE
  8
0
 10
116.732
 20
4.62057
 11
116.937
 21
5.17215
  0
LINE
  8
0
 10
116.937
 20
5.17215
 11
117.165
 21
5.71465
  0
LINE
  8
0
 10
117.165
 20
5.71465
 11
117.415
 21
6.24712
  0
LINE
  8
0
 10
117.415
 20
6.24712
 11
117.688
 21
6.76863
  0
LINE
  8
0
 10
117.688
 20
6.76863
 11
117.982
 21
7.27827
  0
LINE
  8
0
 10
117.982
 20
7.27827
 11
118.297
 21
7.77515
  0
LINE
  8
0
 10
118.297
 20
7.77515
 11
118.633
 21
8.25838
  0
LINE
  8
0
 10
118.633
 20
8.25838
 11
118.989
 21
8.72711
  0
LINE
  8
0
 10
118.989
 20
8.72711
 11
119.364
 21
9.18056
  0
LINE
  8
0
 10
119.364
 20
9.18056
 11
119.758
 21
9.61787
  0
LINE
  8
0
 10
119.758
 20
9.61787
 11
120.17
 21
10.0383
  0
LINE
  8
0
 10
120.17
 20
10.0383
 11
120.599
 21
10.4412
  0
LINE
  8
0
 10
120.599
 20
10.4412
 11
121.044
 21
10.8257
  0
LINE
  8
0
 10
121.044
 20
10.8257
 11
121.505
 21
11.1912
  0
LINE
  8
0
 10
121.505
 20
11.1912
 11
121.981
 21
11.5371
  0
LINE
  8
0
 10
121.981
 20
11.5371
 11
122.472
 21
11.8628
  0
LINE
  8
0
 10
122.472
 20
11.8628
 11
122.975
 21
12.1676
  0
LINE
  8
0
 10
122.975
 20
12.1676
 11
123.491
 21
12.4512
  0
LINE
  8
0
 10
123.491
 20
12.4512
 11
124.018
 21
12.7128
  0
LINE
  8
0
 10
124.018
 20
12.7128
 11
124.555
 21
12.9522
  0
LINE
  8
0
 10
124.555
 20
12.9522
 11
125.103
 21
13.1688
  0
LINE
  8
0
 10
125.103
 20
13.1688
 11
125.658
 21
13.3623
  0
LINE
  8
0
 10
125.658
 20
13.3623
 11
126.222
 21
13.5324
  0
LINE
  8
0
 10
126.222
 20
13.5324
 11
126.792
 21
13.6788
  0
LINE
  8
0
 10
126.792
 20
13.6788
 11
127.367
 21
13.8011
  0
LINE
  8
0
 10
127.367
 20
13.8011
 11
127.948
 21
13.8993
  0
LINE
  8
0
 10
127.948
 20
13.8993
 11
128.531
 21
13.973
  0
LINE
  8
0
 10
128.531
 20
13.973
 11
129.118
 21
14.0223
  0
LINE
  8
0
 10
129.118
 20
14.0223
 11
129.706
 21
14.0469
  0
LINE
  8
0
 10
129.706
 20
14.0469
 11
130.294
 21
14.0469
  0
LINE
  8
0
 10
130.294
 20
14.0469
 11
130.882
 21
14.0223
  0
LINE
  8
0
 10
130.882
 20
14.0223
 11
131.469
 21
13.973
  0
LINE
  8
0
 10
131.469
 20
13.973
 11
132.052
 21
13.8993
  0
LINE
  8
0
 10
132.052
 20
13.8993
 11
132.633
 21
13.8011
  0
LINE
  8
0
 10
132.633
 20
13.8011
 11
133.208
 21
13.6788
  0
LINE
  8
0
 10
133.208
 20
13.6788
 11
133.778
 21
13.5324
  0
LINE
  8
0
 10
133.778
 20
13.5324
 11
134.342
 21
13.3623
  0
LINE
  8
0
 10
134.342
 20
13.3623
 11
134.897
 21
13.1688
  0
LINE
  8
0
 10
134.897
 20
13.1688
 11
135.445
 21
12.9522
  0
LINE
  8
0
 10
135.445
 20
12.9522
 11
135.982
 21
12.7128
  0
LINE
  8
0
 10
135.982
 20
12.7128
 11
136.509
 21
12.4512
  0
LINE
  8
0
 10
136.509
 20
12.4512
 11
137.025
 21
12.1676
  0
LINE
  8
0
 10
137.025
 20
12.1676
 11
137.528
 21
11.8628
  0
LINE
  8
0
 10
137.528
 20
11.8628
 11
138.019
 21
11.5371
  0
LINE
  8
0
 10
138.019
 20
11.5371
 11
138.495
 21
11.1912
  0
LINE
  8
0
 10
138.495
 20
11.1912
 11
138.956
 21
10.8257
  0
LINE
  8
0
 10
138.956
 20
10.8257
 11
139.401
 21
10.4412
  0
LINE
  8
0
 10
139.401
 20
10.4412
 11
139.83
 21
10.0383
  0
LINE
  8
0
 10
139.83
 20
10.0383
 11
140.242
 21
9.61787
  0
LINE
  8
0
 10
140.242
 20
9.61787
 11
140.636
 21
9.18056
  0
LINE
  8
0
 10
140.636
 20
9.18056
 11
141.011
 21
8.72711
  0
LINE
  8
0
 10
141.011
 20
8.72711
 11
141.367
 21
8.25838
  0
LINE
  8
0
 10
141.367
 20
8.25838
 11
141.703
 21
7.77515
  0
LINE
  8
0
 10
141.703
 20
7.77515
 11
142.018
 21
7.27827
  0
LINE
  8
0
 10
142.018
 20
7.27827
 11
142.312
 21
6.76863
  0
LINE
  8
0
 10
142.312
 20
6.76863
 11
142.585
 21
6.24712
  0
LINE
  8
0
 10
142.585
 20
6.24712
 11
142.835
 21
5.71465
  0
LINE
  8
0
 10
142.835
 20
5.71465
 11
143.063
 21
5.17215
  0
LINE
  8
0
 10
143.063
 20
5.17215
 11
143.268
 21
4.62057
  0
LINE
  8
0
 10
143.268
 20
4.62057
 11
143.45
 21
4.06088
  0
LINE
  8
0
 10
143.45
 20
4.06088
 11
143.609
 21
3.49408
  0
LINE
  8
0
 10
143.609
 20
3.49408
 11
143.743
 21
2.92116
  0
LINE
  8
0
 10
143.743
 20
2.92116
 11
143.853
 21
2.34309
  0
LINE
  8
0
 10
143.853
 20
2.34309
 11
143.939
 21
1.76093
  0
LINE
  8
0
 10
143.939
 20
1.76093
 11
144.001
 21
1.17566
  0
LINE
  8
0
 10
144.001
 20
1.17566
 11
144.038
 21
0.588348
  0
LINE
  8
0
 10
144.038
 20
0.588348
 11
144.05
 21
0
  0
LINE
  8
0
 10
144.05
 20
0
 11
144.038
 21
-0.588348
  0
LINE
  8
0
 10
144.038
 20
-0.588348
 11
144.001
 21
-1.17566
  0
LINE
  8
0
 10
144.001
 20
-1.17566
 11
143.939
 21
-1.76093
  0
LINE
  8
0
 10
143.939
 20
-1.76093
 11
143.853
 21
-2.34309
  0
LINE
  8
0
 10
143.853
 20
-2.34309
 11
143.743
 21
-2.92116
  0
LINE
  8
0
 10
143.743
 20
-2.92116
 11
143.609
 21
-3.49408
  0
LINE
  8
0
 10
143.609
 20
-3.49408
 11
143.45
 21
-4.06088
  0
LINE
  8
0
 10
143.45
 20
-4.06088
 11
143.268
 21
-4.62057
  0
LINE
  8
0
 10
143.268
 20
-4.62057
 11
143.063
 21
-5.17215
  0
LINE
  8
0
 10
143.063
 20
-5.17215
 11
142.835
 21
-5.71465
  0
LINE
  8
0
 10
142.835
 20
-5.71465
 11
142.585
 21
-6.24712
  0
LINE
  8
0
 10
142.585
 20
-6.24712
 11
142.312
 21
-6.76863
  0
LINE
  8
0
 10
142.312
 20
-6.76863
 11
142.018
 21
-7.27827
  0
LINE
  8
0
 10
142.018
 20
-7.27827
 11
141.703
 21
-7.77515
  0
LINE
  8
0
 10
141.703
 20
-7.77515
 11
141.367
 21
-8.25838
  0
LINE
  8
0
 10
141.367
 20
-8.25838
 11
141.011
 21
-8.72711
  0
LINE
  8
0
 10
141.011
 20
-8.72711
 11
140.636
 21
-9.18056
  0
LINE
  8
0
 10
140.636
 20
-9.18056
 11
140.242
 21
-9.61787
  0
LINE
  8
0
 10
140.242
 20
-9.61787
 11
139.83
 21
-10.0383
  0
LINE
  8
0
 10
139.83
 20
-10.0383
 11
139.401
 21
-10.4412
  0
LINE
  8
0
 10
139.401
 20
-10.4412
 11
138.956
 21
-10.8257
  0
LINE
  8
0
 10
138.956
 20
-10.8257
 11
138.495
 21
-11.1912
  0
LINE
  8
0
 10
138.495
 20
-11.1912
 11
138.019
 21
-11.5371
  0
LINE
  8
0
 10
138.019
 20
-11.5371
 11
137.528
 21
-11.8628
  0
LINE
  8
0
 10
137.528
 20
-11.8628
 11
137.025
 21
-12.1676
  0
LINE
  8
0
 10
137.025
 20
-12.1676
 11
136.509
 21
-12.4512
  0
LINE
  8
0
 10
136.509
 20
-12.4512
 11
135.982
 21
-12.7128
  0
LINE
  8
0
 10
135.982
 20
-12.7128
 11
135.445
 21
-12.9522
  0
LINE
  8
0
 10
135.445
 20
-12.9522
 11
135
 21
-13.1282
  0
LINE
  8
0
 10
135
 20
-13.1282
 11
135
 21
-44.4
  0
LINE
  8
0
 10
135
 20
-44.4
 11
152.85
 21
-44.4
  0
LINE
  8
0
 10
152.85
 20
-44.4
 11
152.85
 21
-42.2991
  0
LINE
  8
0
 10
152.85
 20
-42.2991
 11
147.168
 21
-42.2991
  0
LINE
  8
0
 10
147.168
 20
-42.2991
 11
147.005
 21
-42.2923
  0
LINE
  8
0
 10
147.005
 20
-42.2923
 11
146.842
 21
-42.2786
  0
LINE
  8
0
 10
146.842
 20
-42.2786
 11
146.68
 21
-42.2581
  0
LINE
  8
0
 10
146.68
 20
-42.2581
 11
146.519
 21
-42.2309
  0
LINE
  8
0
 10
146.519
 20
-42.2309
 11
146.359
 21
-42.1969
  0
LINE
  8
0
 10
146.359
 20
-42.1969
 11
146.201
 21
-42.1563
  0
LINE
  8
0
 10
146.201
 20
-42.1563
 11
146.045
 21
-42.1091
  0
LINE
  8
0
 10
146.045
 20
-42.1091
 11
145.891
 21
-42.0554
  0
LINE
  8
0
 10
145.891
 20
-42.0554
 11
145.739
 21
-41.9953
  0
LINE
  8
0
 10
145.739
 20
-41.9953
 11
145.589
 21
-41.9288
  0
LINE
  8
0
 10
145.589
 20
-41.9288
 11
145.443
 21
-41.8562
  0
LINE
  8
0
 10
145.443
 20
-41.8562
 11
145.3
 21
-41.7775
  0
LINE
  8
0
 10
145.3
 20
-41.7775
 11
145.16
 21
-41.6929
  0
LINE
  8
0
 10
145.16
 20
-41.6929
 11
145.024
 21
-41.6025
  0
LINE
  8
0
 10
145.024
 20
-41.6025
 11
144.892
 21
-41.5065
  0
LINE
  8
0
 10
144.892
 20
-41.5065
 11
144.764
 21
-41.405
  0
LINE
  8
0
 10
144.764
 20
-41.405
 11
144.64
 21
-41.2983
  0
LINE
  8
0
 10
144.64
 20
-41.2983
 11
144.521
 21
-41.1864
  0
LINE
  8
0
 10
144.521
 20
-41.1864
 11
144.407
 21
-41.0697
  0
LINE
  8
0
 10
144.407
 20
-41.0697
 11
144.298
 21
-40.9483
  0
LINE
  8
0
 10
144.298
 20
-40.9483
 11
144.194
 21
-40.8225
  0
LINE
  8
0
 10
144.194
 20
-40.8225
 11
144.095
 21
-40.6924
  0
LINE
  8
0
 10
144.095
 20
-40.6924
 11
144.002
 21
-40.5582
  0
LINE
  8
0
 10
144.002
 20
-40.5582
 11
143.914
 21
-40.4203
  0
LINE
  8
0
 10
143.914
 20
-40.4203
 11
143.832
 21
-40.2788
  0
LINE
  8
0
 10
143.832
 20
-40.2788
 11
143.757
 21
-40.1341
  0
LINE
  8
0
 10
143.757
 20
-40.1341
 11
143.687
 21
-39.9863
  0
LINE
  8
0
 10
143.687
 20
-39.9863
 11
143.624
 21
-39.8357
  0
LINE
  8
0
 10
143.624
 20
-39.8357
 11
143.567
 21
-39.6826
  0
LINE
  8
0
 10
143.567
 20
-39.6826
 11
143.516
 21
-39.5272
  0
LINE
  8
0
 10
143.516
 20
-39.5272
 11
143.473
 21
-39.3699
  0
LINE
  8
0
 10
143.473
 20
-39.3699
 11
143.435
 21
-39.2108
  0
LINE
  8
0
 10
143.435
 20
-39.2108
 11
143.405
 21
-39.0504
  0
LINE
  8
0
 10
143.405
 20
-39.0504
 11
143.381
 21
-38.8888
  0
LINE
  8
0
 10
143.381
 20
-38.8888
 11
143.364
 21
-38.7263
  0
LINE
  8
0
 10
143.364
 20
-38.7263
 11
143.353
 21
-38.5633
  0
LINE
  8
0
 10
143.353
 20
-38.5633
 11
143.35
 21
-38.4
  0
LINE
  8
0
 10
143.35
 20
-38.4
 11
143.353
 21
-38.2367
  0
LINE
  8
0
 10
143.353
 20
-38.2367
 11
143.364
 21
-38.0737
  0
LINE
  8
0
 10
143.364
 20
-38.0737
 11
143.381
 21
-37.9112
  0
LINE
  8
0
 10
143.381
 20
-37.9112
 11
143.405
 21
-37.7496
  0
LINE
  8
0
 10
143.405
 20
-37.7496
 11
143.435
 21
-37.5891
  0
LINE
  8
0
 10
143.435
 20
-37.5891
 11
143.473
 21
-37.4301
  0
LINE
  8
0
 10
143.473
 20
-37.4301
 11
143.516
 21
-37.2728
  0
LINE
  8
0
 10
143.516
 20
-37.2728
 11
143.567
 21
-37.1174
  0
LINE
  8
0
 10
143.567
 20
-37.1174
 11
143.624
 21
-36.9643
  0
LINE
  8
0
 10
143.624
 20
-36.9643
 11
143.687
 21
-36.8137
  0
LINE
  8
0
 10
143.687
 20
-36.8137
 11
143.757
 21
-36.6659
  0
LINE
  8
0
 10
143.757
 20
-36.6659
 11
143.832
 21
-36.5211
  0
LINE
  8
0
 10
143.832
 20
-36.5211
 11
143.914
 21
-36.3797
  0
LINE
  8
0
 10
143.914
 20
-36.3797
 11
144.002
 21
-36.2418
  0
LINE
  8
0
 10
144.002
 20
-36.2418
 11
144.095
 21
-36.1076
  0
LINE
  8
0
 10
144.095
 20
-36.1076
 11
144.194
 21
-35.9775
  0
LINE
  8
0
 10
144.194
 20
-35.9775
 11
144.298
 21
-35.8517
  0
LINE
  8
0
 10
144.298
 20
-35.8517
 11
144.407
 21
-35.7303
  0
LINE
  8
0
 10
144.407
 20
-35.7303
 11
144.521
 21
-35.6136
  0
LINE
  8
0
 10
144.521
 20
-35.6136
 11
144.64
 21
-35.5017
  0
LINE
  8
0
 10
144.64
 20
-35.5017
 11
144.764
 21
-35.395
  0
LINE
  8
0
 10
144.764
 20
-35.395
 11
144.892
 21
-35.2935
  0
LINE
  8
0
 10
144.892
 20
-35.2935
 11
145.024
 21
-35.1975
  0
LINE
  8
0
 10
145.024
 20
-35.1975
 11
145.16
 21
-35.1071
  0
LINE
  8
0
 10
145.16
 20
-35.1071
 11
145.3
 21
-35.0225
  0
LINE
  8
0
 10
145.3
 20
-35.0225
 11
145.443
 21
-34.9438
  0
LINE
  8
0
 10
145.443
 20
-34.9438
 11
145.589
 21
-34.8712
  0
LINE
  8
0
 10
145.589
 20
-34.8712
 11
145.739
 21
-34.8047
  0
LINE
  8
0
 10
145.739
 20
-34.8047
 11
145.891
 21
-34.7446
  0
LINE
  8
0
 10
145.891
 20
-34.7446
 11
146.045
 21
-34.6909
  0
LINE
  8
0
 10
146.045
 20
-34.6909
 11
146.201
 21
-34.6437
  0
LINE
  8
0
 10
146.201
 20
-34.6437
 11
146.359
 21
-34.603
  0
LINE
  8
0
 10
146.359
 20
-34.603
 11
146.519
 21
-34.5691
  0
LINE
  8
0
 10
146.519
 20
-34.5691
 11
146.68
 21
-34.5418
  0
LINE
  8
0
 10
146.68
 20
-34.5418
 11
146.842
 21
-34.5214
  0
LINE
  8
0
 10
146.842
 20
-34.5214
 11
147.005
 21
-34.5077
  0
LINE
  8
0
 10
147.005
 20
-34.5077
 11
147.168
 21
-34.5009
  0
LINE
  8
0
 10
147.168
 20
-34.5009
 11
152.85
 21
-34.5009
  0
LINE
  8
0
 10
152.85
 20
-34.5009
 11
152.85
 21
-15.4731
  0
LINE
  8
0
 10
152.85
 20
-15.4731
 11
152.989
 21
-15.2736
  0
LINE
  8
0
 10
152.989
 20
-15.2736
 11
153.608
 21
-14.2975
  0
LINE
  8
0
 10
153.608
 20
-14.2975
 11
154.186
 21
-13.2964
  0
LINE
  8
0
 10
154.186
 20
-13.2964
 11
154.722
 21
-12.2719
  0
LINE
  8
0
 10
154.722
 20
-12.2719
 11
155.214
 21
-11.2259
  0
LINE
  8
0
 10
155.214
 20
-11.2259
 11
155.662
 21
-10.1602
  0
LINE
  8
0
 10
155.662
 20
-10.1602
 11
156.065
 21
-9.07671
  0
LINE
  8
0
 10
156.065
 20
-9.07671
 11
156.422
 21
-7.97726
  0
LINE
  8
0
 10
156.422
 20
-7.97726
 11
156.733
 21
-6.86383
  0
LINE
  8
0
 10
156.733
 20
-6.86383
 11
156.997
 21
-5.73836
  0
LINE
  8
0
 10
156.997
 20
-5.73836
 11
157.213
 21
-4.60281
  0
LINE
  8
0
 10
157.213
 20
-4.60281
 11
157.382
 21
-3.45918
  0
LINE
  8
0
 10
157.382
 20
-3.45918
 11
157.503
 21
-2.30949
  0
LINE
  8
0
 10
157.503
 20
-2.30949
 11
157.576
 21
-1.15576
  0
LINE
  8
0
 10
157.576
 20
-1.15576
 11
157.6
 21
0
  0
LINE
  8
0
 10
157.6
 20
0
 11
157.576
 21
1.15576
  0
LINE
  8
0
 10
157.576
 20
1.15576
 11
157.503
 21
2.30949
  0
LINE
  8
0
 10
157.503
 20
2.30949
 11
157.382
 21
3.45918
  0
LINE
  8
0
 10
157.382
 20
3.45918
 11
157.213
 21
4.60281
  0
LINE
  8
0
 10
157.213
 20
4.60281
 11
156.997
 21
5.73836
  0
LINE
  8
0
 10
156.997
 20
5.73836
 11
156.733
 21
6.86383
  0
LINE
  8
0
 10
156.733
 20
6.86383
 11
156.422
 21
7.97726
  0
LINE
  8
0
 10
156.422
 20
7.97726
 11
156.065
 21
9.07671
  0
LINE
  8
0
 10
156.065
 20
9.07671
 11
155.662
 21
10.1602
  0
LINE
  8
0
 10
155.662
 20
10.1602
 11
155.214
 21
11.2259
  0
LINE
  8
0
 10
155.214
 20
11.2259
 11
154.722
 21
12.2719
  0
LINE
  8
0
 10
154.722
 20
12.2719
 11
154.186
 21
13.2964
  0
LINE
  8
0
 10
154.186
 20
13.2964
 11
153.608
 21
14.2975
  0
LINE
  8
0
 10
153.608
 20
14.2975
 11
152.989
 21
15.2736
  0
LINE
  8
0
 10
152.989
 20
15.2736
 11
152.329
 21
16.2229
  0
LINE
  8
0
 10
152.329
 20
16.2229
 11
151.63
 21
17.1437
  0
LINE
  8
0
 10
151.63
 20
17.1437
 11
150.893
 21
18.0344
  0
LINE
  8
0
 10
150.893
 20
18.0344
 11
150.12
 21
18.8935
  0
LINE
  8
0
 10
150.12
 20
18.8935
 11
149.311
 21
19.7194
  0
LINE
  8
0
 10
149.311
 20
19.7194
 11
148.468
 21
20.5108
  0
LINE
  8
0
 10
148.468
 20
20.5108
 11
147.593
 21
21.2662
  0
LINE
  8
0
 10
147.593
 20
21.2662
 11
146.687
 21
21.9842
  0
LINE
  8
0
 10
146.687
 20
21.9842
 11
145.752
 21
22.6637
  0
LINE
  8
0
 10
145.752
 20
22.6637
 11
144.789
 21
23.3034
  0
LINE
  8
0
 10
144.789
 20
23.3034
 11
143.8
 21
23.9023
  0
LINE
  8
0
 10
143.8
 20
23.9023
 11
142.787
 21
24.4592
  0
LINE
  8
0
 10
142.787
 20
24.4592
 11
141.751
 21
24.9732
  0
LINE
  8
0
 10
141.751
 20
24.9732
 11
140.695
 21
25.4434
  0
LINE
  8
0
 10
140.695
 20
25.4434
 11
139.621
 21
25.869
  0
LINE
  8
0
 10
139.621
 20
25.869
 11
138.529
 21
26.2491
  0
LINE
  8
0
 10
138.529
 20
26.2491
 11
137.422
 21
26.5833
  0
LINE
  8
0
 10
137.422
 20
26.5833
 11
136.302
 21
26.8708
  0
LINE
  8
0
 10
136.302
 20
26.8708
 11
135.172
 21
27.1111
  0
LINE
  8
0
 10
135.172
 20
27.1111
 11
134.032
 21
27.3039
  0
LINE
  8
0
 10
134.032
 20
27.3039
 11
132.885
 21
27.4488
  0
LINE
  8
0
 10
132.885
 20
27.4488
 11
131.733
 21
27.5455
  0
LINE
  8
0
 10
131.733
 20
27.5455
 11
130.578
 21
27.5939
  0
LINE
  8
0
 10
130.578
 20
27.5939
 11
129.422
 21
27.5939
  0
LINE
  8
0
 10
129.422
 20
27.5939
 11
128.267
 21
27.5455
  0
LINE
  8
0
 10
128.267
 20
27.5455
 11
127.115
 21
27.4488
  0
LINE
  8
0
 10
127.115
 20
27.4488
 11
125.968
 21
27.3039
  0
LINE
  8
0
 10
125.968
 20
27.3039
 11
124.828
 21
27.1111
  0
LINE
  8
0
 10
124.828
 20
27.1111
 11
123.698
 21
26.8708
  0
LINE
  8
0
 10
123.698
 20
26.8708
 11
122.578
 21
26.5833
  0
LINE
  8
0
 10
122.578
 20
26.5833
 11
121.471
 21
26.2491
  0
LINE
  8
0
 10
121.471
 20
26.2491
 11
120.379
 21
25.869
  0
LINE
  8
0
 10
120.379
 20
25.869
 11
119.305
 21
25.4434
  0
LINE
  8
0
 10
119.305
 20
25.4434
 11
118.249
 21
24.9732
  0
LINE
  8
0
 10
118.249
 20
24.9732
 11
117.213
 21
24.4592
  0
LINE
  8
0
 10
117.213
 20
24.4592
 11
116.2
 21
23.9023
  0
LINE
  8
0
 10
116.2
 20
23.9023
 11
115.211
 21
23.3034
  0
LINE
  8
0
 10
115.211
 20
23.3034
 11
114.248
 21
22.6637
  0
LINE
  8
0
 10
114.248
 20
22.6637
 11
113.313
 21
21.9842
  0
LINE
  8
0
 10
113.313
 20
21.9842
 11
112.407
 21
21.2662
  0
LINE
  8
0
 10
112.407
 20
21.2662
 11
111.532
 21
20.5108
  0
LINE
  8
0
 10
111.532
 20
20.5108
 11
110.689
 21
19.7194
  0
LINE
  8
0
 10
110.689
 20
19.7194
 11
109.88
 21
18.8935
  0
LINE
  8
0
 10
109.88
 20
18.8935
 11
109.107
 21
18.0344
  0
LINE
  8
0
 10
109.107
 20
18.0344
 11
108.37
 21
17.1437
  0
LINE
  8
0
 10
108.37
 20
17.1437
 11
107.671
 21
16.2229
  0
LINE
  8
0
 10
107.671
 20
16.2229
 11
107.011
 21
15.2736
  0
LINE
  8
0
 10
107.011
 20
15.2736
 11
106.392
 21
14.2975
  0
LINE
  8
0
 10
106.392
 20
14.2975
 11
105.814
 21
13.2964
  0
LINE
  8
0
 10
105.814
 20
13.2964
 11
105.278
 21
12.2719
  0
LINE
  8
0
 10
105.278
 20
12.2719
 11
104.786
 21
11.2259
  0
LINE
  8
0
 10
104.786
 20
11.2259
 11
104.338
 21
10.1602
  0
LINE
  8
0
 10
104.338
 20
10.1602
 11
103.935
 21
9.07671
  0
LINE
  8
0
 10
103.935
 20
9.07671
 11
103.578
 21
7.97726
  0
LINE
  8
0
 10
103.578
 20
7.97726
 11
103.267
 21
6.86383
  0
LINE
  8
0
 10
103.267
 20
6.86383
 11
103.003
 21
5.73836
  0
LINE
  8
0
 10
103.003
 20
5.73836
 11
102.787
 21
4.60281
  0
LINE
  8
0
 10
102.787
 20
4.60281
 11
102.618
 21
3.45918
  0
LINE
  8
0
 10
102.618
 20
3.45918
 11
102.497
 21
2.30949
  0
LINE
  8
0
 10
102.497
 20
2.30949
 11
102.424
 21
1.15576
  0
LINE
  8
0
 10
102.424
 20
1.15576
 11
102.4
 21
0
  0
LINE
  8
0
 10
102.4
 20
0
 11
102.424
 21
-1.15576
  0
LINE
  8
0
 10
102.424
 20
-1.15576
 11
102.497
 21
-2.30949
  0
LINE
  8
0
 10
102.497
 20
-2.30949
 11
102.618
 21
-3.45918
  0
LINE
  8
0
 10
102.618
 20
-3.45918
 11
102.787
 21
-4.60281
  0
LINE
  8
0
 10
102.787
 20
-4.60281
 11
103.003
 21
-5.73836
  0
LINE
  8
0
 10
103.003
 20
-5.73836
 11
103.267
 21
-6.86383
  0
LINE
  8
0
 10
103.267
 20
-6.86383
 11
103.578
 21
-7.97726
  0
LINE
  8
0
 10
103.578
 20
-7.97726
 11
103.935
 21
-9.07671
  0
LINE
  8
0
 10
103.935
 20
-9.07671
 11
104.338
 21
-10.1602
  0
LINE
  8
0
 10
104.338
 20
-10.1602
 11
104.786
 21
-11.2259
  0
LINE
  8
0
 10
104.786
 20
-11.2259
 11
105.278
 21
-12.2719
  0
LINE
  8
0
 10
105.278
 20
-12.2719
 11
105.814
 21
-13.2964
  0
LINE
  8
0
 10
105.814
 20
-13.2964
 11
106.392
 21
-14.2975
  0
LINE
  8
0
 10
106.392
 20
-14.2975
 11
107.011
 21
-15.2736
  0
LINE
  8
0
 10
107.011
 20
-15.2736
 11
107.15
 21
-15.4731
  0
LINE
  8
0
 10
107.15
 20
-15.4731
 11
107.15
 21
-34.5009
  0
LINE
  8
0
 10
107.15
 20
-34.5009
 11
112.832
 21
-34.5009
  0
LINE
  8
0
 10
112.832
 20
-34.5009
 11
112.995
 21
-34.5077
  0
LINE
  8
0
 10
112.995
 20
-34.5077
 11
113.158
 21
-34.5214
  0
LINE
  8
0
 10
113.158
 20
-34.5214
 11
113.32
 21
-34.5418
  0
LINE
  8
0
 10
113.32
 20
-34.5418
 11
113.481
 21
-34.5691
  0
LINE
  8
0
 10
113.481
 20
-34.5691
 11
113.641
 21
-34.603
  0
LINE
  8
0
 10
113.641
 20
-34.603
 11
113.799
 21
-34.6437
  0
LINE
  8
0
 10
113.799
 20
-34.6437
 11
113.955
 21
-34.6909
  0
LINE
  8
0
 10
113.955
 20
-34.6909
 11
114.109
 21
-34.7446
  0
LINE
  8
0
 10
114.109
 20
-34.7446
 11
114.261
 21
-34.8047
  0
LINE
  8
0
 10
114.261
 20
-34.8047
 11
114.411
 21
-34.8712
  0
LINE
  8
0
 10
114.411
 20
-34.8712
 11
114.557
 21
-34.9438
  0
LINE
  8
0
 10
114.557
 20
-34.9438
 11
114.7
 21
-35.0225
  0
LINE
  8
0
 10
114.7
 20
-35.0225
 11
114.84
 21
-35.1071
  0
LINE
  8
0
 10
114.84
 20
-35.1071
 11
114.976
 21
-35.1975
  0
LINE
  8
0
 10
114.976
 20
-35.1975
 11
115.108
 21
-35.2935
  0
LINE
  8
0
 10
115.108
 20
-35.2935
 11
115.236
 21
-35.395
  0
LINE
  8
0
 10
115.236
 20
-35.395
 11
115.36
 21
-35.5017
  0
LINE
  8
0
 10
115.36
 20
-35.5017
 11
115.479
 21
-35.6136
  0
LINE
  8
0
 10
115.479
 20
-35.6136
 11
115.593
 21
-35.7303
  0
LINE
  8
0
 10
115.593
 20
-35.7303
 11
115.702
 21
-35.8517
  0
LINE
  8
0
 10
115.702
 20
-35.8517
 11
115.806
 21
-35.9775
  0
LINE
  8
0
 10
115.806
 20
-35.9775
 11
115.905
 21
-36.1076
  0
LINE
  8
0
 10
115.905
 20
-36.1076
 11
115.998
 21
-36.2418
  0
LINE
  8
0
 10
115.998
 20
-36.2418
 11
116.086
 21
-36.3797
  0
LINE
  8
0
 10
116.086
 20
-36.3797
 11
116.168
 21
-36.5211
  0
LINE
  8
0
 10
116.168
 20
-36.5211
 11
116.243
 21
-36.6659
  0
LINE
  8
0
 10
116.243
 20
-36.6659
 11
116.313
 21
-36.8137
  0
LINE
  8
0
 10
116.313
 20
-36.8137
 11
116.376
 21
-36.9643
  0
LINE
  8
0
 10
116.376
 20
-36.9643
 11
116.433
 21
-37.1174
  0
LINE
  8
0
 10
116.433
 20
-37.1174
 11
116.484
 21
-37.2728
  0
LINE
  8
0
 10
116.484
 20
-37.2728
 11
116.527
 21
-37.4301
  0
LINE
  8
0
 10
116.527
 20
-37.4301
 11
116.565
 21
-37.5891
  0
LINE
  8
0
 10
116.565
 20
-37.5891
 11
116.595
 21
-37.7496
  0
LINE
  8
0
 10
116.595
 20
-37.7496
 11
116.619
 21
-37.9112
  0
LINE
  8
0
 10
116.619
 20
-37.9112
 11
116.636
 21
-38.0737
  0
LINE
  8
0
 10
116.636
 20
-38.0737
 11
116.647
 21
-38.2367
  0
LINE
  8
0
 10
116.647
 20
-38.2367
 11
116.65
 21
-38.4
  0
LINE
  8
0
 10
116.65
 20
-38.4
 11
116.647
 21
-38.5633
  0
LINE
  8
0
 10
116.647
 20
-38.5633
 11
116.636
 21
-38.7263
  0
LINE
  8
0
 10
116.636
 20
-38.7263
 11
116.619
 21
-38.8888
  0
LINE
  8
0
 10
116.619
 20
-38.8888
 11
116.595
 21
-39.0504
  0
LINE
  8
0
 10
116.595
 20
-39.0504
 11
116.565
 21
-39.2108
  0
LINE
  8
0
 10
116.565
 20
-39.2108
 11
116.527
 21
-39.3699
  0
LINE
  8
0
 10
116.527
 20
-39.3699
 11
116.484
 21
-39.5272
  0
LINE
  8
0
 10
116.484
 20
-39.5272
 11
116.433
 21
-39.6826
  0
LINE
  8
0
 10
116.433
 20
-39.6826
 11
116.376
 21
-39.8357
  0
LINE
  8
0
 10
116.376
 20
-39.8357
 11
116.313
 21
-39.9863
  0
LINE
  8
0
 10
116.313
 20
-39.9863
 11
116.243
 21
-40.1341
  0
LINE
  8
0
 10
116.243
 20
-40.1341
 11
116.168
 21
-40.2788
  0
LINE
  8
0
 10
116.168
 20
-40.2788
 11
116.086
 21
-40.4203
  0
LINE
  8
0
 10
116.086
 20
-40.4203
 11
115.998
 21
-40.5582
  0
LINE
  8
0
 10
115.998
 20
-40.5582
 11
115.905
 21
-40.6924
  0
LINE
  8
0
 10
115.905
 20
-40.6924
 11
115.806
 21
-40.8225
  0
LINE
  8
0
 10
115.806
 20
-40.8225
 11
115.702
 21
-40.9483
  0
LINE
  8
0
 10
115.702
 20
-40.9483
 11
115.593
 21
-41.0697
  0
LINE
  8
0
 10
115.593
 20
-41.0697
 11
115.479
 21
-41.1864
  0
LINE
  8
0
 10
115.479
 20
-41.1864
 11
115.36
 21
-41.2983
  0
LINE
  8
0
 10
115.36
 20
-41.2983
 11
115.236
 21
-41.405
  0
LINE
  8
0
 10
115.236
 20
-41.405
 11
115.108
 21
-41.5065
  0
LINE
  8
0
 10
115.108
 20
-41.5065
 11
114.976
 21
-41.6025
  0
LINE
  8
0
 10
114.976
 20
-41.6025
 11
114.84
 21
-41.6929
  0
LINE
  8
0
 10
114.84
 20
-41.6929
 11
114.7
 21
-41.7775
  0
LINE
  8
0
 10
114.7
 20
-41.7775
 11
114.557
 21
-41.8562
  0
LINE
  8
0
 10
114.557
 20
-41.8562
 11
114.411
 21
-41.9288
  0
LINE
  8
0
 10
114.411
 20
-41.9288
 11
114.261
 21
-41.9953
  0
LINE
  8
0
 10
114.261
 20
-41.9953
 11
114.109
 21
-42.0554
  0
LINE
  8
0
 10
114.109
 20
-42.0554
 11
113.955
 21
-42.1091
  0
LINE
  8
0
 10
113.955
 20
-42.1091
 11
113.799
 21
-42.1563
  0
LINE
  8
0
 10
113.799
 20
-42.1563
 11
113.641
 21
-42.1969
  0
LINE
  8
0
 10
113.641
 20
-42.1969
 11
113.481
 21
-42.2309
  0
LINE
  8
0
 10
113.481
 20
-42.2309
 11
113.32
 21
-42.2581
  0
LINE
  8
0
 10
113.32
 20
-42.2581
 11
113.158
 21
-42.2786
  0
LINE
  8
0
 10
113.158
 20
-42.2786
 11
112.995
 21
-42.2923
  0
LINE
  8
0
 10
112.995
 20
-42.2923
 11
112.832
 21
-42.2991
  0
LINE
  8
0
 10
112.832
 20
-42.2991
 11
107.15
 21
-42.2991
  0
LINE
  8
0
 10
107.15
 20
-42.2991
 11
107.15
 21
-44.4
  0
LINE
  8
0
 10
107.15
 20
-44.4
 11
125
 21
-44.4
  0
LINE
  8
0
 10
125
 20
-44.4
 11
125
 21
-13.1282
  0
LINE
  8
0
 10
129.892
 20
15.1205
 11
129.892
 21
19.3375
  0
LINE
  8
0
 10
129.892
 20
19.3375
 11
129.838
 21
19.3375
  0
LINE
  8
0
 10
129.838
 20
19.3375
 11
129.77
 21
19.2702
  0
LINE
  8
0
 10
129.77
 20
19.2702
 11
129.703
 21
19.3375
  0
LINE
  8
0
 10
129.703
 20
19.3375
 11
125.404
 21
19.3375
  0
LINE
  8
0
 10
125.404
 20
19.3375
 11
125.404
 21
19.6625
  0
LINE
  8
0
 10
125.404
 20
19.6625
 11
129.378
 21
19.6625
  0
LINE
  8
0
 10
129.378
 20
19.6625
 11
126.52
 21
22.5202
  0
LINE
  8
0
 10
126.52
 20
22.5202
 11
126.98
 21
22.9798
  0
LINE
  8
0
 10
126.98
 20
22.9798
 11
130.23
 21
19.7298
  0
LINE
  8
0
 10
130.23
 20
19.7298
 11
130.217
 21
19.7167
  0
LINE
  8
0
 10
130.217
 20
19.7167
 11
130.217
 21
15.1205
  0
LINE
  8
0
 10
130.217
 20
15.1205
 11
129.892
 21
15.1205
  0
LINE
  8
0
 10
190
 20
-13.1282
 11
189.555
 21
-12.9522
  0
LINE
  8
0
 10
189.555
 20
-12.9522
 11
189.018
 21
-12.7128
  0
LINE
  8
0
 10
189.018
 20
-12.7128
 11
188.491
 21
-12.4512
  0
LINE
  8
0
 10
188.491
 20
-12.4512
 11
187.975
 21
-12.1676
  0
LINE
  8
0
 10
187.975
 20
-12.1676
 11
187.472
 21
-11.8628
  0
LINE
  8
0
 10
187.472
 20
-11.8628
 11
186.981
 21
-11.5371
  0
LINE
  8
0
 10
186.981
 20
-11.5371
 11
186.505
 21
-11.1912
  0
LINE
  8
0
 10
186.505
 20
-11.1912
 11
186.044
 21
-10.8257
  0
LINE
  8
0
 10
186.044
 20
-10.8257
 11
185.599
 21
-10.4412
  0
LINE
  8
0
 10
185.599
 20
-10.4412
 11
185.17
 21
-10.0383
  0
LINE
  8
0
 10
185.17
 20
-10.0383
 11
184.758
 21
-9.61787
  0
LINE
  8
0
 10
184.758
 20
-9.61787
 11
184.364
 21
-9.18056
  0
LINE
  8
0
 10
184.364
 20
-9.18056
 11
183.989
 21
-8.72711
  0
LINE
  8
0
 10
183.989
 20
-8.72711
 11
183.633
 21
-8.25838
  0
LINE
  8
0
 10
183.633
 20
-8.25838
 11
183.297
 21
-7.77515
  0
LINE
  8
0
 10
183.297
 20
-7.77515
 11
182.982
 21
-7.27827
  0
LINE
  8
0
 10
182.982
 20
-7.27827
 11
182.688
 21
-6.76863
  0
LINE
  8
0
 10
182.688
 20
-6.76863
 11
182.415
 21
-6.24712
  0
LINE
  8
0
 10
182.415
 20
-6.24712
 11
182.165
 21
-5.71465
  0
LINE
  8
0
 10
182.165
 20
-5.71465
 11
181.937
 21
-5.17215
  0
LINE
  8
0
 10
181.937
 20
-5.17215
 11
181.732
 21
-4.62057
  0
LINE
  8
0
 10
181.732
 20
-4.62057
 11
181.55
 21
-4.06088
  0
LINE
  8
0
 10
181.55
 20
-4.06088
 11
181.391
 21
-3.49408
  0
LINE
  8
0
 10
181.391
 20
-3.49408
 11
181.257
 21
-2.92116
  0
LINE
  8
0
 10
181.257
 20
-2.92116
 11
181.147
 21
-2.34309
  0
LINE
  8
0
 10
181.147
 20
-2.34309
 11
181.061
 21
-1.76093
  0
LINE
  8
0
 10
181.061
 20
-1.76093
 11
180.999
 21
-1.17566
  0
LINE
  8
0
 10
180.999
 20
-1.17566
 11
180.962
 21
-0.588348
  0
LINE
  8
0
 10
180.962
 20
-0.588348
 11
180.95
 21
0
  0
LINE
  8
0
 10
180.95
 20
0
 11
180.962
 21
0.588348
  0
LINE
  8
0
 10
180.962
 20
0.588348
 11
180.999
 21
1.17566
  0
LINE
  8
0
 10
180.999
 20
1.17566
 11
181.061
 21
1.76093
  0
LINE
  8
0
 10
181.061
 20
1.76093
 11
181.147
 21
2.34309
  0
LINE
  8
0
 10
181.147
 20
2.34309
 11
181.257
 21
2.92116
  0
LINE
  8
0
 10
181.257
 20
2.92116
 11
181.391
 21
3.49408
  0
LINE
  8
0
 10
181.391
 20
3.49408
 11
181.55
 21
4.06088
  0
LINE
  8
0
 10
181.55
 20
4.06088
 11
181.732
 21
4.62057
  0
LINE
  8
0
 10
181.732
 20
4.62057
 11
181.937
 21
5.17215
  0
LINE
  8
0
 10
181.937
 20
5.17215
 11
182.165
 21
5.71465
  0
LINE
  8
0
 10
182.165
 20
5.71465
 11
182.415
 21
6.24712
  0
LINE
  8
0
 10
182.415
 20
6.24712
 11
182.688
 21
6.76863
  0
LINE
  8
0
 10
182.688
 20
6.76863
 11
182.982
 21
7.27827
  0
LINE
  8
0
 10
182.982
 20
7.27827
 11
183.297
 21
7.77515
  0
LINE
  8
0
 10
183.297
 20
7.77515
 11
183.633
 21
8.25838
  0
LINE
  8
0
 10
183.633
 20
8.25838
 11
183.989
 21
8.72711
  0
LINE
  8
0
 10
183.989
 20
8.72711
 11
184.364
 21
9.18056
  0
LINE
  8
0
 10
184.364
 20
9.18056
 11
184.758
 21
9.61787
  0
LINE
  8
0
 10
184.758
 20
9.61787
 11
185.17
 21
10.0383
  0
LINE
  8
0
 10
185.17
 20
10.0383
 11
185.599
 21
10.4412
  0
LINE
  8
0
 10
185.599
 20
10.4412
 11
186.044
 21
10.8257
  0
LINE
  8
0
 10
186.044
 20
10.8257
 11
186.505
 21
11.1912
  0
LINE
  8
0
 10
186.505
 20
11.1912
 11
186.981
 21
11.5371
  0
LINE
  8
0
 10
186.981
 20
11.5371
 11
187.472
 21
11.8628
  0
LINE
  8
0
 10
187.472
 20
11.8628
 11
187.975
 21
12.1676
  0
LINE
  8
0
 10
187.975
 20
12.1676
 11
188.491
 21
12.4512
  0
LINE
  8
0
 10
188.491
 20
12.4512
 11
189.018
 21
12.7128
  0
LINE
  8
0
 10
189.018
 20
12.7128
 11
189.555
 21
12.9522
  0
LINE
  8
0
 10
189.555
 20
12.9522
 11
190.103
 21
13.1688
  0
LINE
  8
0
 10
190.103
 20
13.1688
 11
190.658
 21
13.3623
  0
LINE
  8
0
 10
190.658
 20
13.3623
 11
191.222
 21
13.5324
  0
LINE
  8
0
 10
191.222
 20
13.5324
 11
191.792
 21
13.6788
  0
LINE
  8
0
 10
191.792
 20
13.6788
 11
192.367
 21
13.8011
  0
LINE
  8
0
 10
192.367
 20
13.8011
 11
192.948
 21
13.8993
  0
LINE
  8
0
 10
192.948
 20
13.8993
 11
193.531
 21
13.973
  0
LINE
  8
0
 10
193.531
 20
13.973
 11
194.118
 21
14.0223
  0
LINE
  8
0
 10
194.118
 20
14.0223
 11
194.706
 21
14.0469
  0
LINE
  8
0
 10
194.706
 20
14.0469
 11
195.294
 21
14.0469
  0
LINE
  8
0
 10
195.294
 20
14.0469
 11
195.882
 21
14.0223
  0
LINE
  8
0
 10
195.882
 20
14.0223
 11
196.469
 21
13.973
  0
LINE
  8
0
 10
196.469
 20
13.973
 11
197.052
 21
13.8993
  0
LINE
  8
0
 10
197.052
 20
13.8993
 11
197.633
 21
13.8011
  0
LINE
  8
0
 10
197.633
 20
13.8011
 11
198.208
 21
13.6788
  0
LINE
  8
0
 10
198.208
 20
13.6788
 11
198.778
 21
13.5324
  0
LINE
  8
0
 10
198.778
 20
13.5324
 11
199.342
 21
13.3623
  0
LINE
  8
0
 10
199.342
 20
13.3623
 11
199.897
 21
13.1688
  0
LINE
  8
0
 10
199.897
 20
13.1688
 11
200.445
 21
12.9522
  0
LINE
  8
0
 10
200.445
 20
12.9522
 11
200.982
 21
12.7128
  0
LINE
  8
0
 10
200.982
 20
12.7128
 11
201.509
 21
12.4512
  0
LINE
  8
0
 10
201.509
 20
12.4512
 11
202.025
 21
12.1676
  0
LINE
  8
0
 10
202.025
 20
12.1676
 11
202.528
 21
11.8628
  0
LINE
  8
0
 10
202.528
 20
11.8628
 11
203.019
 21
11.5371
  0
LINE
  8
0
 10
203.019
 20
11.5371
 11
203.495
 21
11.1912
  0
LINE
  8
0
 10
203.495
 20
11.1912
 11
203.956
 21
10.8257
  0
LINE
  8
0
 10
203.956
 20
10.8257
 11
204.401
 21
10.4412
  0
LINE
  8
0
 10
204.401
 20
10.4412
 11
204.83
 21
10.0383
  0
LINE
  8
0
 10
204.83
 20
10.0383
 11
205.242
 21
9.61787
  0
LINE
  8
0
 10
205.242
 20
9.61787
 11
205.636
 21
9.18056
  0
LINE
  8
0
 10
205.636
 20
9.18056
 11
206.011
 21
8.72711
  0
LINE
  8
0
 10
206.011
 20
8.72711
 11
206.367
 21
8.25838
  0
LINE
  8
0
 10
206.367
 20
8.25838
 11
206.703
 21
7.77515
  0
LINE
  8
0
 10
206.703
 20
7.77515
 11
207.018
 21
7.27827
  0
LINE
  8
0
 10
207.018
 20
7.27827
 11
207.312
 21
6.76863
  0
LINE
  8
0
 10
207.312
 20
6.76863
 11
207.585
 21
6.24712
  0
LINE
  8
0
 10
207.585
 20
6.24712
 11
207.835
 21
5.71465
  0
LINE
  8
0
 10
207.835
 20
5.71465
 11
208.063
 21
5.17215
  0
LINE
  8
0
 10
208.063
 20
5.17215
 11
208.268
 21
4.62057
  0
LINE
  8
0
 10
208.268
 20
4.62057
 11
208.45
 21
4.06088
  0
LINE
  8
0
 10
208.45
 20
4.06088
 11
208.609
 21
3.49408
  0
LINE
  8
0
 10
208.609
 20
3.49408
 11
208.743
 21
2.92116
  0
LINE
  8
0
 10
208.743
 20
2.92116
 11
208.853
 21
2.34309
  0
LINE
  8
0
 10
208.853
 20
2.34309
 11
208.939
 21
1.76093
  0
LINE
  8
0
 10
208.939
 20
1.76093
 11
209.001
 21
1.17566
  0
LINE
  8
0
 10
209.001
 20
1.17566
 11
209.038
 21
0.588348
  0
LINE
  8
0
 10
209.038
 20
0.588348
 11
209.05
 21
0
  0
LINE
  8
0
 10
209.05
 20
0
 11
209.038
 21
-0.588348
  0
LINE
  8
0
 10
209.038
 20
-0.588348
 11
209.001
 21
-1.17566
  0
LINE
  8
0
 10
209.001
 20
-1.17566
 11
208.939
 21
-1.76093
  0
LINE
  8
0
 10
208.939
 20
-1.76093
 11
208.853
 21
-2.34309
  0
LINE
  8
0
 10
208.853
 20
-2.34309
 11
208.743
 21
-2.92116
  0
LINE
  8
0
 10
208.743
 20
-2.92116
 11
208.609
 21
-3.49408
  0
LINE
  8
0
 10
208.609
 20
-3.49408
 11
208.45
 21
-4.06088
  0
LINE
  8
0
 10
208.45
 20
-4.06088
 11
208.268
 21
-4.62057
  0
LINE
  8
0
 10
208.268
 20
-4.62057
 11
208.063
 21
-5.17215
  0
LINE
  8
0
 10
208.063
 20
-5.17215
 11
207.835
 21
-5.71465
  0
LINE
  8
0
 10
207.835
 20
-5.71465
 11
207.585
 21
-6.24712
  0
LINE
  8
0
 10
207.585
 20
-6.24712
 11
207.312
 21
-6.76863
  0
LINE
  8
0
 10
207.312
 20
-6.76863
 11
207.018
 21
-7.27827
  0
LINE
  8
0
 10
207.018
 20
-7.27827
 11
206.703
 21
-7.77515
  0
LINE
  8
0
 10
206.703
 20
-7.77515
 11
206.367
 21
-8.25838
  0
LINE
  8
0
 10
206.367
 20
-8.25838
 11
206.011
 21
-8.72711
  0
LINE
  8
0
 10
206.011
 20
-8.72711
 11
205.636
 21
-9.18056
  0
LINE
  8
0
 10
205.636
 20
-9.18056
 11
205.242
 21
-9.61787
  0
LINE
  8
0
 10
205.242
 20
-9.61787
 11
204.83
 21
-10.0383
  0
LINE
  8
0
 10
204.83
 20
-10.0383
 11
204.401
 21
-10.4412
  0
LINE
  8
0
 10
204.401
 20
-10.4412
 11
203.956
 21
-10.8257
  0
LINE
  8
0
 10
203.956
 20
-10.8257
 11
203.495
 21
-11.1912
  0
LINE
  8
0
 10
203.495
 20
-11.1912
 11
203.019
 21
-11.5371
  0
LINE
  8
0
 10
203.019
 20
-11.5371
 11
202.528
 21
-11.8628
  0
LINE
  8
0
 10
202.528
 20
-11.8628
 11
202.025
 21
-12.1676
  0
LINE
  8
0
 10
202.025
 20
-12.1676
 11
201.509
 21
-12.4512
  0
LINE
  8
0
 10
201.509
 20
-12.4512
 11
200.982
 21
-12.7128
  0
LINE
  8
0
 10
200.982
 20
-12.7128
 11
200.445
 21
-12.9522
  0
LINE
  8
0
 10
200.445
 20
-12.9522
 11
200
 21
-13.1282
  0
LINE
  8
0
 10
200
 20
-13.1282
 11
200
 21
-44.4
  0
LINE
  8
0
 10
200
 20
-44.4
 11
217.85
 21
-44.4
  0
LINE
  8
0
 10
217.85
 20
-44.4
 11
217.85
 21
-42.2991
  0
LINE
  8
0
 10
217.85
 20
-42.2991
 11
212.168
 21
-42.2991
  0
LINE
  8
0
 10
212.168
 20
-42.2991
 11
212.005
 21
-42.2923
  0
LINE
  8
0
 10
212.005
 20
-42.2923
 11
211.842
 21
-42.2786
  0
LINE
  8
0
 10
211.842
 20
-42.2786
 11
211.68
 21
-42.2581
  0
LINE
  8
0
 10
211.68
 20
-42.2581
 11
211.519
 21
-42.2309
  0
LINE
  8
0
 10
211.519
 20
-42.2309
 11
211.359
 21
-42.1969
  0
LINE
  8
0
 10
211.359
 20
-42.1969
 11
211.201
 21
-42.1563
  0
LINE
  8
0
 10
211.201
 20
-42.1563
 11
211.045
 21
-42.1091
  0
LINE
  8
0
 10
211.045
 20
-42.1091
 11
210.891
 21
-42.0554
  0
LINE
  8
0
 10
210.891
 20
-42.0554
 11
210.739
 21
-41.9953
  0
LINE
  8
0
 10
210.739
 20
-41.9953
 11
210.589
 21
-41.9288
  0
LINE
  8
0
 10
210.589
 20
-41.9288
 11
210.443
 21
-41.8562
  0
LINE
  8
0
 10
210.443
 20
-41.8562
 11
210.3
 21
-41.7775
  0
LINE
  8
0
 10
210.3
 20
-41.7775
 11
210.16
 21
-41.6929
  0
LINE
  8
0
 10
210.16
 20
-41.6929
 11
210.024
 21
-41.6025
  0
LINE
  8
0
 10
210.024
 20
-41.6025
 11
209.892
 21
-41.5065
  0
LINE
  8
0
 10
209.892
 20
-41.5065
 11
209.764
 21
-41.405
  0
LINE
  8
0
 10
209.764
 20
-41.405
 11
209.64
 21
-41.2983
  0
LINE
  8
0
 10
209.64
 20
-41.2983
 11
209.521
 21
-41.1864
  0
LINE
  8
0
 10
209.521
 20
-41.1864
 11
209.407
 21
-41.0697
  0
LINE
  8
0
 10
209.407
 20
-41.0697
 11
209.298
 21
-40.9483
  0
LINE
  8
0
 10
209.298
 20
-40.9483
 11
209.194
 21
-40.8225
  0
LINE
  8
0
 10
209.194
 20
-40.8225
 11
209.095
 21
-40.6924
  0
LINE
  8
0
 10
209.095
 20
-40.6924
 11
209.002
 21
-40.5582
  0
LINE
  8
0
 10
209.002
 20
-40.5582
 11
208.914
 21
-40.4203
  0
LINE
  8
0
 10
208.914
 20
-40.4203
 11
208.832
 21
-40.2788
  0
LINE
  8
0
 10
208.832
 20
-40.2788
 11
208.757
 21
-40.1341
  0
LINE
  8
0
 10
208.757
 20
-40.1341
 11
208.687
 21
-39.9863
  0
LINE
  8
0
 10
208.687
 20
-39.9863
 11
208.624
 21
-39.8357
  0
LINE
  8
0
 10
208.624
 20
-39.8357
 11
208.567
 21
-39.6826
  0
LINE
  8
0
 10
208.567
 20
-39.6826
 11
208.516
 21
-39.5272
  0
LINE
  8
0
 10
208.516
 20
-39.5272
 11
208.473
 21
-39.3699
  0
LINE
  8
0
 10
208.473
 20
-39.3699
 11
208.435
 21
-39.2108
  0
LINE
  8
0
 10
208.435
 20
-39.2108
 11
208.405
 21
-39.0504
  0
LINE
  8
0
 10
208.405
 20
-39.0504
 11
208.381
 21
-38.8888
  0
LINE
  8
0
 10
208.381
 20
-38.8888
 11
208.364
 21
-38.7263
  0
LINE
  8
0
 10
208.364
 20
-38.7263
 11
208.353
 21
-38.5633
  0
LINE
  8
0
 10
208.353
 20
-38.5633
 11
208.35
 21
-38.4
  0
LINE
  8
0
 10
208.35
 20
-38.4
 11
208.353
 21
-38.2367
  0
LINE
  8
0
 10
208.353
 20
-38.2367
 11
208.364
 21
-38.0737
  0
LINE
  8
0
 10
208.364
 20
-38.0737
 11
208.381
 21
-37.9112
  0
LINE
  8
0
 10
208.381
 20
-37.9112
 11
208.405
 21
-37.7496
  0
LINE
  8
0
 10
208.405
 20
-37.7496
 11
208.435
 21
-37.5891
  0
LINE
  8
0
 10
208.435
 20
-37.5891
 11
208.473
 21
-37.4301
  0
LINE
  8
0
 10
208.473
 20
-37.4301
 11
208.516
 21
-37.2728
  0
LINE
  8
0
 10
208.516
 20
-37.2728
 11
208.567
 21
-37.1174
  0
LINE
  8
0
 10
208.567
 20
-37.1174
 11
208.624
 21
-36.9643
  0
LINE
  8
0
 10
208.624
 20
-36.9643
 11
208.687
 21
-36.8137
  0
LINE
  8
0
 10
208.687
 20
-36.8137
 11
208.757
 21
-36.6659
  0
LINE
  8
0
 10
208.757
 20
-36.6659
 11
208.832
 21
-36.5211
  0
LINE
  8
0
 10
208.832
 20
-36.5211
 11
208.914
 21
-36.3797
  0
LINE
  8
0
 10
208.914
 20
-36.3797
 11
209.002
 21
-36.2418
  0
LINE
  8
0
 10
209.002
 20
-36.2418
 11
209.095
 21
-36.1076
  0
LINE
  8
0
 10
209.095
 20
-36.1076
 11
209.194
 21
-35.9775
  0
LINE
  8
0
 10
209.194
 20
-35.9775
 11
209.298
 21
-35.8517
  0
LINE
  8
0
 10
209.298
 20
-35.8517
 11
209.407
 21
-35.7303
  0
LINE
  8
0
 10
209.407
 20
-35.7303
 11
209.521
 21
-35.6136
  0
LINE
  8
0
 10
209.521
 20
-35.6136
 11
209.64
 21
-35.5017
  0
LINE
  8
0
 10
209.64
 20
-35.5017
 11
209.764
 21
-35.395
  0
LINE
  8
0
 10
209.764
 20
-35.395
 11
209.892
 21
-35.2935
  0
LINE
  8
0
 10
209.892
 20
-35.2935
 11
210.024
 21
-35.1975
  0
LINE
  8
0
 10
210.024
 20
-35.1975
 11
210.16
 21
-35.1071
  0
LINE
  8
0
 10
210.16
 20
-35.1071
 11
210.3
 21
-35.0225
  0
LINE
  8
0
 10
210.3
 20
-35.0225
 11
210.443
 21
-34.9438
  0
LINE
  8
0
 10
210.443
 20
-34.9438
 11
210.589
 21
-34.8712
  0
LINE
  8
0
 10
210.589
 20
-34.8712
 11
210.739
 21
-34.8047
  0
LINE
  8
0
 10
210.739
 20
-34.8047
 11
210.891
 21
-34.7446
  0
LINE
  8
0
 10
210.891
 20
-34.7446
 11
211.045
 21
-34.6909
  0
LINE
  8
0
 10
211.045
 20
-34.6909
 11
211.201
 21
-34.6437
  0
LINE
  8
0
 10
211.201
 20
-34.6437
 11
211.359
 21
-34.603
  0
LINE
  8
0
 10
211.359
 20
-34.603
 11
211.519
 21
-34.5691
  0
LINE
  8
0
 10
211.519
 20
-34.5691
 11
211.68
 21
-34.5418
  0
LINE
  8
0
 10
211.68
 20
-34.5418
 11
211.842
 21
-34.5214
  0
LINE
  8
0
 10
211.842
 20
-34.5214
 11
212.005
 21
-34.5077
  0
LINE
  8
0
 10
212.005
 20
-34.5077
 11
212.168
 21
-34.5009
  0
LINE
  8
0
 10
212.168
 20
-34.5009
 11
217.85
 21
-34.5009
  0
LINE
  8
0
 10
217.85
 20
-34.5009
 11
217.85
 21
-15.4731
  0
LINE
  8
0
 10
217.85
 20
-15.4731
 11
217.989
 21
-15.2736
  0
LINE
  8
0
 10
217.989
 20
-15.2736
 11
218.608
 21
-14.2975
  0
LINE
  8
0
 10
218.608
 20
-14.2975
 11
219.186
 21
-13.2964
  0
LINE
  8
0
 10
219.186
 20
-13.2964
 11
219.722
 21
-12.2719
  0
LINE
  8
0
 10
219.722
 20
-12.2719
 11
220.214
 21
-11.2259
  0
LINE
  8
0
 10
220.214
 20
-11.2259
 11
220.662
 21
-10.1602
  0
LINE
  8
0
 10
220.662
 20
-10.1602
 11
221.065
 21
-9.07671
  0
LINE
  8
0
 10
221.065
 20
-9.07671
 11
221.422
 21
-7.97726
  0
LINE
  8
0
 10
221.422
 20
-7.97726
 11
221.733
 21
-6.86383
  0
LINE
  8
0
 10
221.733
 20
-6.86383
 11
221.997
 21
-5.73836
  0
LINE
  8
0
 10
221.997
 20
-5.73836
 11
222.213
 21
-4.60281
  0
LINE
  8
0
 10
222.213
 20
-4.60281
 11
222.382
 21
-3.45918
  0
LINE
  8
0
 10
222.382
 20
-3.45918
 11
222.503
 21
-2.30949
  0
LINE
  8
0
 10
222.503
 20
-2.30949
 11
222.576
 21
-1.15576
  0
LINE
  8
0
 10
222.576
 20
-1.15576
 11
222.6
 21
0
  0
LINE
  8
0
 10
222.6
 20
0
 11
222.576
 21
1.15576
  0
LINE
  8
0
 10
222.576
 20
1.15576
 11
222.503
 21
2.30949
  0
LINE
  8
0
 10
222.503
 20
2.30949
 11
222.382
 21
3.45918
  0
LINE
  8
0
 10
222.382
 20
3.45918
 11
222.213
 21
4.60281
  0
LINE
  8
0
 10
222.213
 20
4.60281
 11
221.997
 21
5.73836
  0
LINE
  8
0
 10
221.997
 20
5.73836
 11
221.733
 21
6.86383
  0
LINE
  8
0
 10
221.733
 20
6.86383
 11
221.422
 21
7.97726
  0
LINE
  8
0
 10
221.422
 20
7.97726
 11
221.065
 21
9.07671
  0
LINE
  8
0
 10
221.065
 20
9.07671
 11
220.662
 21
10.1602
  0
LINE
  8
0
 10
220.662
 20
10.1602
 11
220.214
 21
11.2259
  0
LINE
  8
0
 10
220.214
 20
11.2259
 11
219.722
 21
12.2719
  0
LINE
  8
0
 10
219.722
 20
12.2719
 11
219.186
 21
13.2964
  0
LINE
  8
0
 10
219.186
 20
13.2964
 11
218.608
 21
14.2975
  0
LINE
  8
0
 10
218.608
 20
14.2975
 11
217.989
 21
15.2736
  0
LINE
  8
0
 10
217.989
 20
15.2736
 11
217.329
 21
16.2229
  0
LINE
  8
0
 10
217.329
 20
16.2229
 11
216.63
 21
17.1437
  0
LINE
  8
0
 10
216.63
 20
17.1437
 11
215.893
 21
18.0344
  0
LINE
  8
0
 10
215.893
 20
18.0344
 11
215.12
 21
18.8935
  0
LINE
  8
0
 10
215.12
 20
18.8935
 11
214.311
 21
19.7194
  0
LINE
  8
0
 10
214.311
 20
19.7194
 11
213.468
 21
20.5108
  0
LINE
  8
0
 10
213.468
 20
20.5108
 11
212.593
 21
21.2662
  0
LINE
  8
0
 10
212.593
 20
21.2662
 11
211.687
 21
21.9842
  0
LINE
  8
0
 10
211.687
 20
21.9842
 11
210.752
 21
22.6637
  0
LINE
  8
0
 10
210.752
 20
22.6637
 11
209.789
 21
23.3034
  0
LINE
  8
0
 10
209.789
 20
23.3034
 11
208.8
 21
23.9023
  0
LINE
  8
0
 10
208.8
 20
23.9023
 11
207.787
 21
24.4592
  0
LINE
  8
0
 10
207.787
 20
24.4592
 11
206.751
 21
24.9732
  0
LINE
  8
0
 10
206.751
 20
24.9732
 11
205.695
 21
25.4434
  0
LINE
  8
0
 10
205.695
 20
25.4434
 11
204.621
 21
25.869
  0
LINE
  8
0
 10
204.621
 20
25.869
 11
203.529
 21
26.2491
  0
LINE
  8
0
 10
203.529
 20
26.2491
 11
202.422
 21
26.5833
  0
LINE
  8
0
 10
202.422
 20
26.5833
 11
201.302
 21
26.8708
  0
LINE
  8
0
 10
201.302
 20
26.8708
 11
200.172
 21
27.1111
  0
LINE
  8
0
 10
200.172
 20
27.1111
 11
199.032
 21
27.3039
  0
LINE
  8
0
 10
199.032
 20
27.3039
 11
197.885
 21
27.4488
  0
LINE
  8
0
 10
197.885
 20
27.4488
 11
196.733
 21
27.5455
  0
LINE
  8
0
 10
196.733
 20
27.5455
 11
195.578
 21
27.5939
  0
LINE
  8
0
 10
195.578
 20
27.5939
 11
194.422
 21
27.5939
  0
LINE
  8
0
 10
194.422
 20
27.5939
 11
193.267
 21
27.5455
  0
LINE
  8
0
 10
193.267
 20
27.5455
 11
192.115
 21
27.4488
  0
LINE
  8
0
 10
192.115
 20
27.4488
 11
190.968
 21
27.3039
  0
LINE
  8
0
 10
190.968
 20
27.3039
 11
189.828
 21
27.1111
  0
LINE
  8
0
 10
189.828
 20
27.1111
 11
188.698
 21
26.8708
  0
LINE
  8
0
 10
188.698
 20
26.8708
 11
187.578
 21
26.5833
  0
LINE
  8
0
 10
187.578
 20
26.5833
 11
186.471
 21
26.2491
  0
LINE
  8
0
 10
186.471
 20
26.2491
 11
185.379
 21
25.869
  0
LINE
  8
0
 10
185.379
 20
25.869
 11
184.305
 21
25.4434
  0
LINE
  8
0
 10
184.305
 20
25.4434
 11
183.249
 21
24.9732
  0
LINE
  8
0
 10
183.249
 20
24.9732
 11
182.213
 21
24.4592
  0
LINE
  8
0
 10
182.213
 20
24.4592
 11
181.2
 21
23.9023
  0
LINE
  8
0
 10
181.2
 20
23.9023
 11
180.211
 21
23.3034
  0
LINE
  8
0
 10
180.211
 20
23.3034
 11
179.248
 21
22.6637
  0
LINE
  8
0
 10
179.248
 20
22.6637
 11
178.313
 21
21.9842
  0
LINE
  8
0
 10
178.313
 20
21.9842
 11
177.407
 21
21.2662
  0
LINE
  8
0
 10
177.407
 20
21.2662
 11
176.532
 21
20.5108
  0
LINE
  8
0
 10
176.532
 20
20.5108
 11
175.689
 21
19.7194
  0
LINE
  8
0
 10
175.689
 20
19.7194
 11
174.88
 21
18.8935
  0
LINE
  8
0
 10
174.88
 20
18.8935
 11
174.107
 21
18.0344
  0
LINE
  8
0
 10
174.107
 20
18.0344
 11
173.37
 21
17.1437
  0
LINE
  8
0
 10
173.37
 20
17.1437
 11
172.671
 21
16.2229
  0
LINE
  8
0
 10
172.671
 20
16.2229
 11
172.011
 21
15.2736
  0
LINE
  8
0
 10
172.011
 20
15.2736
 11
171.392
 21
14.2975
  0
LINE
  8
0
 10
171.392
 20
14.2975
 11
170.814
 21
13.2964
  0
LINE
  8
0
 10
170.814
 20
13.2964
 11
170.278
 21
12.2719
  0
LINE
  8
0
 10
170.278
 20
12.2719
 11
169.786
 21
11.2259
  0
LINE
  8
0
 10
169.786
 20
11.2259
 11
169.338
 21
10.1602
  0
LINE
  8
0
 10
169.338
 20
10.1602
 11
168.935
 21
9.07671
  0
LINE
  8
0
 10
168.935
 20
9.07671
 11
168.578
 21
7.97726
  0
LINE
  8
0
 10
168.578
 20
7.97726
 11
168.267
 21
6.86383
  0
LINE
  8
0
 10
168.267
 20
6.86383
 11
168.003
 21
5.73836
  0
LINE
  8
0
 10
168.003
 20
5.73836
 11
167.787
 21
4.60281
  0
LINE
  8
0
 10
167.787
 20
4.60281
 11
167.618
 21
3.45918
  0
LINE
  8
0
 10
167.618
 20
3.45918
 11
167.497
 21
2.30949
  0
LINE
  8
0
 10
167.497
 20
2.30949
 11
167.424
 21
1.15576
  0
LINE
  8
0
 10
167.424
 20
1.15576
 11
167.4
 21
0
  0
LINE
  8
0
 10
167.4
 20
0
 11
167.424
 21
-1.15576
  0
LINE
  8
0
 10
167.424
 20
-1.15576
 11
167.497
 21
-2.30949
  0
LINE
  8
0
 10
167.497
 20
-2.30949
 11
167.618
 21
-3.45918
  0
LINE
  8
0
 10
167.618
 20
-3.45918
 11
167.787
 21
-4.60281
  0
LINE
  8
0
 10
167.787
 20
-4.60281
 11
168.003
 21
-5.73836
  0
LINE
  8
0
 10
168.003
 20
-5.73836
 11
168.267
 21
-6.86383
  0
LINE
  8
0
 10
168.267
 20
-6.86383
 11
168.578
 21
-7.97726
  0
LINE
  8
0
 10
168.578
 20
-7.97726
 11
168.935
 21
-9.07671
  0
LINE
  8
0
 10
168.935
 20
-9.07671
 11
169.338
 21
-10.1602
  0
LINE
  8
0
 10
169.338
 20
-10.1602
 11
169.786
 21
-11.2259
  0
LINE
  8
0
 10
169.786
 20
-11.2259
 11
170.278
 21
-12.2719
  0
LINE
  8
0
 10
170.278
 20
-12.2719
 11
170.814
 21
-13.2964
  0
LINE
  8
0
 10
170.814
 20
-13.2964
 11
171.392
 21
-14.2975
  0
LINE
  8
0
 10
171.392
 20
-14.2975
 11
172.011
 21
-15.2736
  0
LINE
  8
0
 10
172.011
 20
-15.2736
 11
172.15
 21
-15.4731
  0
LINE
  8
0
 10
172.15
 20
-15.4731
 11
172.15
 21
-34.5009
  0
LINE
  8
0
 10
172.15
 20
-34.5009
 11
177.832
 21
-34.5009
  0
LINE
  8
0
 10
177.832
 20
-34.5009
 11
177.995
 21
-34.5077
  0
LINE
  8
0
 10
177.995
 20
-34.5077
 11
178.158
 21
-34.5214
  0
LINE
  8
0
 10
178.158
 20
-34.5214
 11
178.32
 21
-34.5418
  0
LINE
  8
0
 10
178.32
 20
-34.5418
 11
178.481
 21
-34.5691
  0
LINE
  8
0
 10
178.481
 20
-34.5691
 11
178.641
 21
-34.603
  0
LINE
  8
0
 10
178.641
 20
-34.603
 11
178.799
 21
-34.6437
  0
LINE
  8
0
 10
178.799
 20
-34.6437
 11
178.955
 21
-34.6909
  0
LINE
  8
0
 10
178.955
 20
-34.6909
 11
179.109
 21
-34.7446
  0
LINE
  8
0
 10
179.109
 20
-34.7446
 11
179.261
 21
-34.8047
  0
LINE
  8
0
 10
179.261
 20
-34.8047
 11
179.411
 21
-34.8712
  0
LINE
  8
0
 10
179.411
 20
-34.8712
 11
179.557
 21
-34.9438
  0
LINE
  8
0
 10
179.557
 20
-34.9438
 11
179.7
 21
-35.0225
  0
LINE
  8
0
 10
179.7
 20
-35.0225
 11
179.84
 21
-35.1071
  0
LINE
  8
0
 10
179.84
 20
-35.1071
 11
179.976
 21
-35.1975
  0
LINE
  8
0
 10
179.976
 20
-35.1975
 11
180.108
 21
-35.2935
  0
LINE
  8
0
 10
180.108
 20
-35.2935
 11
180.236
 21
-35.395
  0
LINE
  8
0
 10
180.236
 20
-35.395
 11
180.36
 21
-35.5017
  0
LINE
  8
0
 10
180.36
 20
-35.5017
 11
180.479
 21
-35.6136
  0
LINE
  8
0
 10
180.479
 20
-35.6136
 11
180.593
 21
-35.7303
  0
LINE
  8
0
 10
180.593
 20
-35.7303
 11
180.702
 21
-35.8517
  0
LINE
  8
0
 10
180.702
 20
-35.8517
 11
180.806
 21
-35.9775
  0
LINE
  8
0
 10
180.806
 20
-35.9775
 11
180.905
 21
-36.1076
  0
LINE
  8
0
 10
180.905
 20
-36.1076
 11
180.998
 21
-36.2418
  0
LINE
  8
0
 10
180.998
 20
-36.2418
 11
181.086
 21
-36.3797
  0
LINE
  8
0
 10
181.086
 20
-36.3797
 11
181.168
 21
-36.5211
  0
LINE
  8
0
 10
181.168
 20
-36.5211
 11
181.243
 21
-36.6659
  0
LINE
  8
0
 10
181.243
 20
-36.6659
 11
181.313
 21
-36.8137
  0
LINE
  8
0
 10
181.313
 20
-36.8137
 11
181.376
 21
-36.9643
  0
LINE
  8
0
 10
181.376
 20
-36.9643
 11
181.433
 21
-37.1174
  0
LINE
  8
0
 10
181.433
 20
-37.1174
 11
181.484
 21
-37.2728
  0
LINE
  8
0
 10
181.484
 20
-37.2728
 11
181.527
 21
-37.4301
  0
LINE
  8
0
 10
181.527
 20
-37.4301
 11
181.565
 21
-37.5891
  0
LINE
  8
0
 10
181.565
 20
-37.5891
 11
181.595
 21
-37.7496
  0
LINE
  8
0
 10
181.595
 20
-37.7496
 11
181.619
 21
-37.9112
  0
LINE
  8
0
 10
181.619
 20
-37.9112
 11
181.636
 21
-38.0737
  0
LINE
  8
0
 10
181.636
 20
-38.0737
 11
181.647
 21
-38.2367
  0
LINE
  8
0
 10
181.647
 20
-38.2367
 11
181.65
 21
-38.4
  0
LINE
  8
0
 10
181.65
 20
-38.4
 11
181.647
 21
-38.5633
  0
LINE
  8
0
 10
181.647
 20
-38.5633
 11
181.636
 21
-38.7263
  0
LINE
  8
0
 10
181.636
 20
-38.7263
 11
181.619
 21
-38.8888
  0
LINE
  8
0
 10
181.619
 20
-38.8888
 11
181.595
 21
-39.0504
  0
LINE
  8
0
 10
181.595
 20
-39.0504
 11
181.565
 21
-39.2108
  0
LINE
  8
0
 10
181.565
 20
-39.2108
 11
181.527
 21
-39.3699
  0
LINE
  8
0
 10
181.527
 20
-39.3699
 11
181.484
 21
-39.5272
  0
LINE
  8
0
 10
181.484
 20
-39.5272
 11
181.433
 21
-39.6826
  0
LINE
  8
0
 10
181.433
 20
-39.6826
 11
181.376
 21
-39.8357
  0
LINE
  8
0
 10
181.376
 20
-39.8357
 11
181.313
 21
-39.9863
  0
LINE
  8
0
 10
181.313
 20
-39.9863
 11
181.243
 21
-40.1341
  0
LINE
  8
0
 10
181.243
 20
-40.1341
 11
181.168
 21
-40.2788
  0
LINE
  8
0
 10
181.168
 20
-40.2788
 11
181.086
 21
-40.4203
  0
LINE
  8
0
 10
181.086
 20
-40.4203
 11
180.998
 21
-40.5582
  0
LINE
  8
0
 10
180.998
 20
-40.5582
 11
180.905
 21
-40.6924
  0
LINE
  8
0
 10
180.905
 20
-40.6924
 11
180.806
 21
-40.8225
  0
LINE
  8
0
 10
180.806
 20
-40.8225
 11
180.702
 21
-40.9483
  0
LINE
  8
0
 10
180.702
 20
-40.9483
 11
180.593
 21
-41.0697
  0
LINE
  8
0
 10
180.593
 20
-41.0697
 11
180.479
 21
-41.1864
  0
LINE
  8
0
 10
180.479
 20
-41.1864
 11
180.36
 21
-41.2983
  0
LINE
  8
0
 10
180.36
 20
-41.2983
 11
180.236
 21
-41.405
  0
LINE
  8
0
 10
180.236
 20
-41.405
 11
180.108
 21
-41.5065
  0
LINE
  8
0
 10
180.108
 20
-41.5065
 11
179.976
 21
-41.6025
  0
LINE
  8
0
 10
179.976
 20
-41.6025
 11
179.84
 21
-41.6929
  0
LINE
  8
0
 10
179.84
 20
-41.6929
 11
179.7
 21
-41.7775
  0
LINE
  8
0
 10
179.7
 20
-41.7775
 11
179.557
 21
-41.8562
  0
LINE
  8
0
 10
179.557
 20
-41.8562
 11
179.411
 21
-41.9288
  0
LINE
  8
0
 10
179.411
 20
-41.9288
 11
179.261
 21
-41.9953
  0
LINE
  8
0
 10
179.261
 20
-41.9953
 11
179.109
 21
-42.0554
  0
LINE
  8
0
 10
179.109
 20
-42.0554
 11
178.955
 21
-42.1091
  0
LINE
  8
0
 10
178.955
 20
-42.1091
 11
178.799
 21
-42.1563
  0
LINE
  8
0
 10
178.799
 20
-42.1563
 11
178.641
 21
-42.1969
  0
LINE
  8
0
 10
178.641
 20
-42.1969
 11
178.481
 21
-42.2309
  0
LINE
  8
0
 10
178.481
 20
-42.2309
 11
178.32
 21
-42.2581
  0
LINE
  8
0
 10
178.32
 20
-42.2581
 11
178.158
 21
-42.2786
  0
LINE
  8
0
 10
178.158
 20
-42.2786
 11
177.995
 21
-42.2923
  0
LINE
  8
0
 10
177.995
 20
-42.2923
 11
177.832
 21
-42.2991
  0
LINE
  8
0
 10
177.832
 20
-42.2991
 11
172.15
 21
-42.2991
  0
LINE
  8
0
 10
172.15
 20
-42.2991
 11
172.15
 21
-44.4
  0
LINE
  8
0
 10
172.15
 20
-44.4
 11
190
 21
-44.4
  0
LINE
  8
0
 10
190
 20
-44.4
 11
190
 21
-13.1282
  0
LINE
  8
0
 10
255
 20
-13.1282
 11
254.555
 21
-12.9522
  0
LINE
  8
0
 10
254.555
 20
-12.9522
 11
254.018
 21
-12.7128
  0
LINE
  8
0
 10
254.018
 20
-12.7128
 11
253.491
 21
-12.4512
  0
LINE
  8
0
 10
253.491
 20
-12.4512
 11
252.975
 21
-12.1676
  0
LINE
  8
0
 10
252.975
 20
-12.1676
 11
252.472
 21
-11.8628
  0
LINE
  8
0
 10
252.472
 20
-11.8628
 11
251.981
 21
-11.5371
  0
LINE
  8
0
 10
251.981
 20
-11.5371
 11
251.505
 21
-11.1912
  0
LINE
  8
0
 10
251.505
 20
-11.1912
 11
251.044
 21
-10.8257
  0
LINE
  8
0
 10
251.044
 20
-10.8257
 11
250.599
 21
-10.4412
  0
LINE
  8
0
 10
250.599
 20
-10.4412
 11
250.17
 21
-10.0383
  0
LINE
  8
0
 10
250.17
 20
-10.0383
 11
249.758
 21
-9.61787
  0
LINE
  8
0
 10
249.758
 20
-9.61787
 11
249.364
 21
-9.18056
  0
LINE
  8
0
 10
249.364
 20
-9.18056
 11
248.989
 21
-8.72711
  0
LINE
  8
0
 10
248.989
 20
-8.72711
 11
248.633
 21
-8.25838
  0
LINE
  8
0
 10
248.633
 20
-8.25838
 11
248.297
 21
-7.77515
  0
LINE
  8
0
 10
248.297
 20
-7.77515
 11
247.982
 21
-7.27827
  0
LINE
  8
0
 10
247.982
 20
-7.27827
 11
247.688
 21
-6.76863
  0
LINE
  8
0
 10
247.688
 20
-6.76863
 11
247.415
 21
-6.24712
  0
LINE
  8
0
 10
247.415
 20
-6.24712
 11
247.165
 21
-5.71465
  0
LINE
  8
0
 10
247.165
 20
-5.71465
 11
246.937
 21
-5.17215
  0
LINE
  8
0
 10
246.937
 20
-5.17215
 11
246.732
 21
-4.62057
  0
LINE
  8
0
 10
246.732
 20
-4.62057
 11
246.55
 21
-4.06088
  0
LINE
  8
0
 10
246.55
 20
-4.06088
 11
246.391
 21
-3.49408
  0
LINE
  8
0
 10
246.391
 20
-3.49408
 11
246.257
 21
-2.92116
  0
LINE
  8
0
 10
246.257
 20
-2.92116
 11
246.147
 21
-2.34309
  0
LINE
  8
0
 10
246.147
 20
-2.34309
 11
246.061
 21
-1.76093
  0
LINE
  8
0
 10
246.061
 20
-1.76093
 11
245.999
 21
-1.17566
  0
LINE
  8
0
 10
245.999
 20
-1.17566
 11
245.962
 21
-0.588348
  0
LINE
  8
0
 10
245.962
 20
-0.588348
 11
245.95
 21
0
  0
LINE
  8
0
 10
245.95
 20
0
 11
245.962
 21
0.588348
  0
LINE
  8
0
 10
245.962
 20
0.588348
 11
245.999
 21
1.17566
  0
LINE
  8
0
 10
245.999
 20
1.17566
 11
246.061
 21
1.76093
  0
LINE
  8
0
 10
246.061
 20
1.76093
 11
246.147
 21
2.34309
  0
LINE
  8
0
 10
246.147
 20
2.34309
 11
246.257
 21
2.92116
  0
LINE
  8
0
 10
246.257
 20
2.92116
 11
246.391
 21
3.49408
  0
LINE
  8
0
 10
246.391
 20
3.49408
 11
246.55
 21
4.06088
  0
LINE
  8
0
 10
246.55
 20
4.06088
 11
246.732
 21
4.62057
  0
LINE
  8
0
 10
246.732
 20
4.62057
 11
246.937
 21
5.17215
  0
LINE
  8
0
 10
246.937
 20
5.17215
 11
247.165
 21
5.71465
  0
LINE
  8
0
 10
247.165
 20
5.71465
 11
247.415
 21
6.24712
  0
LINE
  8
0
 10
247.415
 20
6.24712
 11
247.688
 21
6.76863
  0
LINE
  8
0
 10
247.688
 20
6.76863
 11
247.982
 21
7.27827
  0
LINE
  8
0
 10
247.982
 20
7.27827
 11
248.297
 21
7.77515
  0
LINE
  8
0
 10
248.297
 20
7.77515
 11
248.633
 21
8.25838
  0
LINE
  8
0
 10
248.633
 20
8.25838
 11
248.989
 21
8.72711
  0
LINE
  8
0
 10
248.989
 20
8.72711
 11
249.364
 21
9.18056
  0
LINE
  8
0
 10
249.364
 20
9.18056
 11
249.758
 21
9.61787
  0
LINE
  8
0
 10
249.758
 20
9.61787
 11
250.17
 21
10.0383
  0
LINE
  8
0
 10
250.17
 20
10.0383
 11
250.599
 21
10.4412
  0
LINE
  8
0
 10
250.599
 20
10.4412
 11
251.044
 21
10.8257
  0
LINE
  8
0
 10
251.044
 20
10.8257
 11
251.505
 21
11.1912
  0
LINE
  8
0
 10
251.505
 20
11.1912
 11
251.981
 21
11.5371
  0
LINE
  8
0
 10
251.981
 20
11.5371
 11
252.472
 21
11.8628
  0
LINE
  8
0
 10
252.472
 20
11.8628
 11
252.975
 21
12.1676
  0
LINE
  8
0
 10
252.975
 20
12.1676
 11
253.491
 21
12.4512
  0
LINE
  8
0
 10
253.491
 20
12.4512
 11
254.018
 21
12.7128
  0
LINE
  8
0
 10
254.018
 20
12.7128
 11
254.555
 21
12.9522
  0
LINE
  8
0
 10
254.555
 20
12.9522
 11
255.103
 21
13.1688
  0
LINE
  8
0
 10
255.103
 20
13.1688
 11
255.658
 21
13.3623
  0
LINE
  8
0
 10
255.658
 20
13.3623
 11
256.222
 21
13.5324
  0
LINE
  8
0
 10
256.222
 20
13.5324
 11
256.792
 21
13.6788
  0
LINE
  8
0
 10
256.792
 20
13.6788
 11
257.367
 21
13.8011
  0
LINE
  8
0
 10
257.367
 20
13.8011
 11
257.948
 21
13.8993
  0
LINE
  8
0
 10
257.948
 20
13.8993
 11
258.531
 21
13.973
  0
LINE
  8
0
 10
258.531
 20
13.973
 11
259.118
 21
14.0223
  0
LINE
  8
0
 10
259.118
 20
14.0223
 11
259.706
 21
14.0469
  0
LINE
  8
0
 10
259.706
 20
14.0469
 11
260.294
 21
14.0469
  0
LINE
  8
0
 10
260.294
 20
14.0469
 11
260.882
 21
14.0223
  0
LINE
  8
0
 10
260.882
 20
14.0223
 11
261.469
 21
13.973
  0
LINE
  8
0
 10
261.469
 20
13.973
 11
262.052
 21
13.8993
  0
LINE
  8
0
 10
262.052
 20
13.8993
 11
262.633
 21
13.8011
  0
LINE
  8
0
 10
262.633
 20
13.8011
 11
263.208
 21
13.6788
  0
LINE
  8
0
 10
263.208
 20
13.6788
 11
263.778
 21
13.5324
  0
LINE
  8
0
 10
263.778
 20
13.5324
 11
264.342
 21
13.3623
  0
LINE
  8
0
 10
264.342
 20
13.3623
 11
264.897
 21
13.1688
  0
LINE
  8
0
 10
264.897
 20
13.1688
 11
265.445
 21
12.9522
  0
LINE
  8
0
 10
265.445
 20
12.9522
 11
265.982
 21
12.7128
  0
LINE
  8
0
 10
265.982
 20
12.7128
 11
266.509
 21
12.4512
  0
LINE
  8
0
 10
266.509
 20
12.4512
 11
267.025
 21
12.1676
  0
LINE
  8
0
 10
267.025
 20
12.1676
 11
267.528
 21
11.8628
  0
LINE
  8
0
 10
267.528
 20
11.8628
 11
268.019
 21
11.5371
  0
LINE
  8
0
 10
268.019
 20
11.5371
 11
268.495
 21
11.1912
  0
LINE
  8
0
 10
268.495
 20
11.1912
 11
268.956
 21
10.8257
  0
LINE
  8
0
 10
268.956
 20
10.8257
 11
269.401
 21
10.4412
  0
LINE
  8
0
 10
269.401
 20
10.4412
 11
269.83
 21
10.0383
  0
LINE
  8
0
 10
269.83
 20
10.0383
 11
270.242
 21
9.61787
  0
LINE
  8
0
 10
270.242
 20
9.61787
 11
270.636
 21
9.18056
  0
LINE
  8
0
 10
270.636
 20
9.18056
 11
271.011
 21
8.72711
  0
LINE
  8
0
 10
271.011
 20
8.72711
 11
271.367
 21
8.25838
  0
LINE
  8
0
 10
271.367
 20
8.25838
 11
271.703
 21
7.77515
  0
LINE
  8
0
 10
271.703
 20
7.77515
 11
272.018
 21
7.27827
  0
LINE
  8
0
 10
272.018
 20
7.27827
 11
272.312
 21
6.76863
  0
LINE
  8
0
 10
272.312
 20
6.76863
 11
272.585
 21
6.24712
  0
LINE
  8
0
 10
272.585
 20
6.24712
 11
272.835
 21
5.71465
  0
LINE
  8
0
 10
272.835
 20
5.71465
 11
273.063
 21
5.17215
  0
LINE
  8
0
 10
273.063
 20
5.17215
 11
273.268
 21
4.62057
  0
LINE
  8
0
 10
273.268
 20
4.62057
 11
273.45
 21
4.06088
  0
LINE
  8
0
 10
273.45
 20
4.06088
 11
273.609
 21
3.49408
  0
LINE
  8
0
 10
273.609
 20
3.49408
 11
273.743
 21
2.92116
  0
LINE
  8
0
 10
273.743
 20
2.92116
 11
273.853
 21
2.34309
  0
LINE
  8
0
 10
273.853
 20
2.34309
 11
273.939
 21
1.76093
  0
LINE
  8
0
 10
273.939
 20
1.76093
 11
274.001
 21
1.17566
  0
LINE
  8
0
 10
274.001
 20
1.17566
 11
274.038
 21
0.588348
  0
LINE
  8
0
 10
274.038
 20
0.588348
 11
274.05
 21
0
  0
LINE
  8
0
 10
274.05
 20
0
 11
274.038
 21
-0.588348
  0
LINE
  8
0
 10
274.038
 20
-0.588348
 11
274.001
 21
-1.17566
  0
LINE
  8
0
 10
274.001
 20
-1.17566
 11
273.939
 21
-1.76093
  0
LINE
  8
0
 10
273.939
 20
-1.76093
 11
273.853
 21
-2.34309
  0
LINE
  8
0
 10
273.853
 20
-2.34309
 11
273.743
 21
-2.92116
  0
LINE
  8
0
 10
273.743
 20
-2.92116
 11
273.609
 21
-3.49408
  0
LINE
  8
0
 10
273.609
 20
-3.49408
 11
273.45
 21
-4.06088
  0
LINE
  8
0
 10
273.45
 20
-4.06088
 11
273.268
 21
-4.62057
  0
LINE
  8
0
 10
273.268
 20
-4.62057
 11
273.063
 21
-5.17215
  0
LINE
  8
0
 10
273.063
 20
-5.17215
 11
272.835
 21
-5.71465
  0
LINE
  8
0
 10
272.835
 20
-5.71465
 11
272.585
 21
-6.24712
  0
LINE
  8
0
 10
272.585
 20
-6.24712
 11
272.312
 21
-6.76863
  0
LINE
  8
0
 10
272.312
 20
-6.76863
 11
272.018
 21
-7.27827
  0
LINE
  8
0
 10
272.018
 20
-7.27827
 11
271.703
 21
-7.77515
  0
LINE
  8
0
 10
271.703
 20
-7.77515
 11
271.367
 21
-8.25838
  0
LINE
  8
0
 10
271.367
 20
-8.25838
 11
271.011
 21
-8.72711
  0
LINE
  8
0
 10
271.011
 20
-8.72711
 11
270.636
 21
-9.18056
  0
LINE
  8
0
 10
270.636
 20
-9.18056
 11
270.242
 21
-9.61787
  0
LINE
  8
0
 10
270.242
 20
-9.61787
 11
269.83
 21
-10.0383
  0
LINE
  8
0
 10
269.83
 20
-10.0383
 11
269.401
 21
-10.4412
  0
LINE
  8
0
 10
269.401
 20
-10.4412
 11
268.956
 21
-10.8257
  0
LINE
  8
0
 10
268.956
 20
-10.8257
 11
268.495
 21
-11.1912
  0
LINE
  8
0
 10
268.495
 20
-11.1912
 11
268.019
 21
-11.5371
  0
LINE
  8
0
 10
268.019
 20
-11.5371
 11
267.528
 21
-11.8628
  0
LINE
  8
0
 10
267.528
 20
-11.8628
 11
267.025
 21
-12.1676
  0
LINE
  8
0
 10
267.025
 20
-12.1676
 11
266.509
 21
-12.4512
  0
LINE
  8
0
 10
266.509
 20
-12.4512
 11
265.982
 21
-12.7128
  0
LINE
  8
0
 10
265.982
 20
-12.7128
 11
265.445
 21
-12.9522
  0
LINE
  8
0
 10
265.445
 20
-12.9522
 11
265
 21
-13.1282
  0
LINE
  8
0
 10
265
 20
-13.1282
 11
265
 21
-44.4
  0
LINE
  8
0
 10
265
 20
-44.4
 11
282.85
 21
-44.4
  0
LINE
  8
0
 10
282.85
 20
-44.4
 11
282.85
 21
-42.2991
  0
LINE
  8
0
 10
282.85
 20
-42.2991
 11
277.168
 21
-42.2991
  0
LINE
  8
0
 10
277.168
 20
-42.2991
 11
277.005
 21
-42.2923
  0
LINE
  8
0
 10
277.005
 20
-42.2923
 11
276.842
 21
-42.2786
  0
LINE
  8
0
 10
276.842
 20
-42.2786
 11
276.68
 21
-42.2581
  0
LINE
  8
0
 10
276.68
 20
-42.2581
 11
276.519
 21
-42.2309
  0
LINE
  8
0
 10
276.519
 20
-42.2309
 11
276.359
 21
-42.1969
  0
LINE
  8
0
 10
276.359
 20
-42.1969
 11
276.201
 21
-42.1563
  0
LINE
  8
0
 10
276.201
 20
-42.1563
 11
276.045
 21
-42.1091
  0
LINE
  8
0
 10
276.045
 20
-42.1091
 11
275.891
 21
-42.0554
  0
LINE
  8
0
 10
275.891
 20
-42.0554
 11
275.739
 21
-41.9953
  0
LINE
  8
0
 10
275.739
 20
-41.9953
 11
275.589
 21
-41.9288
  0
LINE
  8
0
 10
275.589
 20
-41.9288
 11
275.443
 21
-41.8562
  0
LINE
  8
0
 10
275.443
 20
-41.8562
 11
275.3
 21
-41.7775
  0
LINE
  8
0
 10
275.3
 20
-41.7775
 11
275.16
 21
-41.6929
  0
LINE
  8
0
 10
275.16
 20
-41.6929
 11
275.024
 21
-41.6025
  0
LINE
  8
0
 10
275.024
 20
-41.6025
 11
274.892
 21
-41.5065
  0
LINE
  8
0
 10
274.892
 20
-41.5065
 11
274.764
 21
-41.405
  0
LINE
  8
0
 10
274.764
 20
-41.405
 11
274.64
 21
-41.2983
  0
LINE
  8
0
 10
274.64
 20
-41.2983
 11
274.521
 21
-41.1864
  0
LINE
  8
0
 10
274.521
 20
-41.1864
 11
274.407
 21
-41.0697
  0
LINE
  8
0
 10
274.407
 20
-41.0697
 11
274.298
 21
-40.9483
  0
LINE
  8
0
 10
274.298
 20
-40.9483
 11
274.194
 21
-40.8225
  0
LINE
  8
0
 10
274.194
 20
-40.8225
 11
274.095
 21
-40.6924
  0
LINE
  8
0
 10
274.095
 20
-40.6924
 11
274.002
 21
-40.5582
  0
LINE
  8
0
 10
274.002
 20
-40.5582
 11
273.914
 21
-40.4203
  0
LINE
  8
0
 10
273.914
 20
-40.4203
 11
273.832
 21
-40.2788
  0
LINE
  8
0
 10
273.832
 20
-40.2788
 11
273.757
 21
-40.1341
  0
LINE
  8
0
 10
273.757
 20
-40.1341
 11
273.687
 21
-39.9863
  0
LINE
  8
0
 10
273.687
 20
-39.9863
 11
273.624
 21
-39.8357
  0
LINE
  8
0
 10
273.624
 20
-39.8357
 11
273.567
 21
-39.6826
  0
LINE
  8
0
 10
273.567
 20
-39.6826
 11
273.516
 21
-39.5272
  0
LINE
  8
0
 10
273.516
 20
-39.5272
 11
273.473
 21
-39.3699
  0
LINE
  8
0
 10
273.473
 20
-39.3699
 11
273.435
 21
-39.2108
  0
LINE
  8
0
 10
273.435
 20
-39.2108
 11
273.405
 21
-39.0504
  0
LINE
  8
0
 10
273.405
 20
-39.0504
 11
273.381
 21
-38.8888
  0
LINE
  8
0
 10
273.381
 20
-38.8888
 11
273.364
 21
-38.7263
  0
LINE
  8
0
 10
273.364
 20
-38.7263
 11
273.353
 21
-38.5633
  0
LINE
  8
0
 10
273.353
 20
-38.5633
 11
273.35
 21
-38.4
  0
LINE
  8
0
 10
273.35
 20
-38.4
 11
273.353
 21
-38.2367
  0
LINE
  8
0
 10
273.353
 20
-38.2367
 11
273.364
 21
-38.0737
  0
LINE
  8
0
 10
273.364
 20
-38.0737
 11
273.381
 21
-37.9112
  0
LINE
  8
0
 10
273.381
 20
-37.9112
 11
273.405
 21
-37.7496
  0
LINE
  8
0
 10
273.405
 20
-37.7496
 11
273.435
 21
-37.5891
  0
LINE
  8
0
 10
273.435
 20
-37.5891
 11
273.473
 21
-37.4301
  0
LINE
  8
0
 10
273.473
 20
-37.4301
 11
273.516
 21
-37.2728
  0
LINE
  8
0
 10
273.516
 20
-37.2728
 11
273.567
 21
-37.1174
  0
LINE
  8
0
 10
273.567
 20
-37.1174
 11
273.624
 21
-36.9643
  0
LINE
  8
0
 10
273.624
 20
-36.9643
 11
273.687
 21
-36.8137
  0
LINE
  8
0
 10
273.687
 20
-36.8137
 11
273.757
 21
-36.6659
  0
LINE
  8
0
 10
273.757
 20
-36.6659
 11
273.832
 21
-36.5211
  0
LINE
  8
0
 10
273.832
 20
-36.5211
 11
273.914
 21
-36.3797
  0
LINE
  8
0
 10
273.914
 20
-36.3797
 11
274.002
 21
-36.2418
  0
LINE
  8
0
 10
274.002
 20
-36.2418
 11
274.095
 21
-36.1076
  0
LINE
  8
0
 10
274.095
 20
-36.1076
 11
274.194
 21
-35.9775
  0
LINE
  8
0
 10
274.194
 20
-35.9775
 11
274.298
 21
-35.8517
  0
LINE
  8
0
 10
274.298
 20
-35.8517
 11
274.407
 21
-35.7303
  0
LINE
  8
0
 10
274.407
 20
-35.7303
 11
274.521
 21
-35.6136
  0
LINE
  8
0
 10
274.521
 20
-35.6136
 11
274.64
 21
-35.5017
  0
LINE
  8
0
 10
274.64
 20
-35.5017
 11
274.764
 21
-35.395
  0
LINE
  8
0
 10
274.764
 20
-35.395
 11
274.892
 21
-35.2935
  0
LINE
  8
0
 10
274.892
 20
-35.2935
 11
275.024
 21
-35.1975
  0
LINE
  8
0
 10
275.024
 20
-35.1975
 11
275.16
 21
-35.1071
  0
LINE
  8
0
 10
275.16
 20
-35.1071
 11
275.3
 21
-35.0225
  0
LINE
  8
0
 10
275.3
 20
-35.0225
 11
275.443
 21
-34.9438
  0
LINE
  8
0
 10
275.443
 20
-34.9438
 11
275.589
 21
-34.8712
  0
LINE
  8
0
 10
275.589
 20
-34.8712
 11
275.739
 21
-34.8047
  0
LINE
  8
0
 10
275.739
 20
-34.8047
 11
275.891
 21
-34.7446
  0
LINE
  8
0
 10
275.891
 20
-34.7446
 11
276.045
 21
-34.6909
  0
LINE
  8
0
 10
276.045
 20
-34.6909
 11
276.201
 21
-34.6437
  0
LINE
  8
0
 10
276.201
 20
-34.6437
 11
276.359
 21
-34.603
  0
LINE
  8
0
 10
276.359
 20
-34.603
 11
276.519
 21
-34.5691
  0
LINE
  8
0
 10
276.519
 20
-34.5691
 11
276.68
 21
-34.5418
  0
LINE
  8
0
 10
276.68
 20
-34.5418
 11
276.842
 21
-34.5214
  0
LINE
  8
0
 10
276.842
 20
-34.5214
 11
277.005
 21
-34.5077
  0
LINE
  8
0
 10
277.005
 20
-34.5077
 11
277.168
 21
-34.5009
  0
LINE
  8
0
 10
277.168
 20
-34.5009
 11
282.85
 21
-34.5009
  0
LINE
  8
0
 10
282.85
 20
-34.5009
 11
282.85
 21
-15.4731
  0
LINE
  8
0
 10
282.85
 20
-15.4731
 11
282.989
 21
-15.2736
  0
LINE
  8
0
 10
282.989
 20
-15.2736
 11
283.608
 21
-14.2975
  0
LINE
  8
0
 10
283.608
 20
-14.2975
 11
284.186
 21
-13.2964
  0
LINE
  8
0
 10
284.186
 20
-13.2964
 11
284.722
 21
-12.2719
  0
LINE
  8
0
 10
284.722
 20
-12.2719
 11
285.214
 21
-11.2259
  0
LINE
  8
0
 10
285.214
 20
-11.2259
 11
285.662
 21
-10.1602
  0
LINE
  8
0
 10
285.662
 20
-10.1602
 11
286.065
 21
-9.07671
  0
LINE
  8
0
 10
286.065
 20
-9.07671
 11
286.422
 21
-7.97726
  0
LINE
  8
0
 10
286.422
 20
-7.97726
 11
286.733
 21
-6.86383
  0
LINE
  8
0
 10
286.733
 20
-6.86383
 11
286.997
 21
-5.73836
  0
LINE
  8
0
 10
286.997
 20
-5.73836
 11
287.213
 21
-4.60281
  0
LINE
  8
0
 10
287.213
 20
-4.60281
 11
287.382
 21
-3.45918
  0
LINE
  8
0
 10
287.382
 20
-3.45918
 11
287.503
 21
-2.30949
  0
LINE
  8
0
 10
287.503
 20
-2.30949
 11
287.576
 21
-1.15576
  0
LINE
  8
0
 10
287.576
 20
-1.15576
 11
287.6
 21
0
  0
LINE
  8
0
 10
287.6
 20
0
 11
287.576
 21
1.15576
  0
LINE
  8
0
 10
287.576
 20
1.15576
 11
287.503
 21
2.30949
  0
LINE
  8
0
 10
287.503
 20
2.30949
 11
287.382
 21
3.45918
  0
LINE
  8
0
 10
287.382
 20
3.45918
 11
287.213
 21
4.60281
  0
LINE
  8
0
 10
287.213
 20
4.60281
 11
286.997
 21
5.73836
  0
LINE
  8
0
 10
286.997
 20
5.73836
 11
286.733
 21
6.86383
  0
LINE
  8
0
 10
286.733
 20
6.86383
 11
286.422
 21
7.97726
  0
LINE
  8
0
 10
286.422
 20
7.97726
 11
286.065
 21
9.07671
  0
LINE
  8
0
 10
286.065
 20
9.07671
 11
285.662
 21
10.1602
  0
LINE
  8
0
 10
285.662
 20
10.1602
 11
285.214
 21
11.2259
  0
LINE
  8
0
 10
285.214
 20
11.2259
 11
284.722
 21
12.2719
  0
LINE
  8
0
 10
284.722
 20
12.2719
 11
284.186
 21
13.2964
  0
LINE
  8
0
 10
284.186
 20
13.2964
 11
283.608
 21
14.2975
  0
LINE
  8
0
 10
283.608
 20
14.2975
 11
282.989
 21
15.2736
  0
LINE
  8
0
 10
282.989
 20
15.2736
 11
282.329
 21
16.2229
  0
LINE
  8
0
 10
282.329
 20
16.2229
 11
281.63
 21
17.1437
  0
LINE
  8
0
 10
281.63
 20
17.1437
 11
280.893
 21
18.0344
  0
LINE
  8
0
 10
280.893
 20
18.0344
 11
280.12
 21
18.8935
  0
LINE
  8
0
 10
280.12
 20
18.8935
 11
279.311
 21
19.7194
  0
LINE
  8
0
 10
279.311
 20
19.7194
 11
278.468
 21
20.5108
  0
LINE
  8
0
 10
278.468
 20
20.5108
 11
277.593
 21
21.2662
  0
LINE
  8
0
 10
277.593
 20
21.2662
 11
276.687
 21
21.9842
  0
LINE
  8
0
 10
276.687
 20
21.9842
 11
275.752
 21
22.6637
  0
LINE
  8
0
 10
275.752
 20
22.6637
 11
274.789
 21
23.3034
  0
LINE
  8
0
 10
274.789
 20
23.3034
 11
273.8
 21
23.9023
  0
LINE
  8
0
 10
273.8
 20
23.9023
 11
272.787
 21
24.4592
  0
LINE
  8
0
 10
272.787
 20
24.4592
 11
271.751
 21
24.9732
  0
LINE
  8
0
 10
271.751
 20
24.9732
 11
270.695
 21
25.4434
  0
LINE
  8
0
 10
270.695
 20
25.4434
 11
269.621
 21
25.869
  0
LINE
  8
0
 10
269.621
 20
25.869
 11
268.529
 21
26.2491
  0
LINE
  8
0
 10
268.529
 20
26.2491
 11
267.422
 21
26.5833
  0
LINE
  8
0
 10
267.422
 20
26.5833
 11
266.302
 21
26.8708
  0
LINE
  8
0
 10
266.302
 20
26.8708
 11
265.172
 21
27.1111
  0
LINE
  8
0
 10
265.172
 20
27.1111
 11
264.032
 21
27.3039
  0
LINE
  8
0
 10
264.032
 20
27.3039
 11
262.885
 21
27.4488
  0
LINE
  8
0
 10
262.885
 20
27.4488
 11
261.733
 21
27.5455
  0
LINE
  8
0
 10
261.733
 20
27.5455
 11
260.578
 21
27.5939
  0
LINE
  8
0
 10
260.578
 20
27.5939
 11
259.422
 21
27.5939
  0
LINE
  8
0
 10
259.422
 20
27.5939
 11
258.267
 21
27.5455
  0
LINE
  8
0
 10
258.267
 20
27.5455
 11
257.115
 21
27.4488
  0
LINE
  8
0
 10
257.115
 20
27.4488
 11
255.968
 21
27.3039
  0
LINE
  8
0
 10
255.968
 20
27.3039
 11
254.828
 21
27.1111
  0
LINE
  8
0
 10
254.828
 20
27.1111
 11
253.698
 21
26.8708
  0
LINE
  8
0
 10
253.698
 20
26.8708
 11
252.578
 21
26.5833
  0
LINE
  8
0
 10
252.578
 20
26.5833
 11
251.471
 21
26.2491
  0
LINE
  8
0
 10
251.471
 20
26.2491
 11
250.379
 21
25.869
  0
LINE
  8
0
 10
250.379
 20
25.869
 11
249.305
 21
25.4434
  0
LINE
  8
0
 10
249.305
 20
25.4434
 11
248.249
 21
24.9732
  0
LINE
  8
0
 10
248.249
 20
24.9732
 11
247.213
 21
24.4592
  0
LINE
  8
0
 10
247.213
 20
24.4592
 11
246.2
 21
23.9023
  0
LINE
  8
0
 10
246.2
 20
23.9023
 11
245.211
 21
23.3034
  0
LINE
  8
0
 10
245.211
 20
23.3034
 11
244.248
 21
22.6637
  0
LINE
  8
0
 10
244.248
 20
22.6637
 11
243.313
 21
21.9842
  0
LINE
  8
0
 10
243.313
 20
21.9842
 11
242.407
 21
21.2662
  0
LINE
  8
0
 10
242.407
 20
21.2662
 11
241.532
 21
20.5108
  0
LINE
  8
0
 10
241.532
 20
20.5108
 11
240.689
 21
19.7194
  0
LINE
  8
0
 10
240.689
 20
19.7194
 11
239.88
 21
18.8935
  0
LINE
  8
0
 10
239.88
 20
18.8935
 11
239.107
 21
18.0344
  0
LINE
  8
0
 10
239.107
 20
18.0344
 11
238.37
 21
17.1437
  0
LINE
  8
0
 10
238.37
 20
17.1437
 11
237.671
 21
16.2229
  0
LINE
  8
0
 10
237.671
 20
16.2229
 11
237.011
 21
15.2736
  0
LINE
  8
0
 10
237.011
 20
15.2736
 11
236.392
 21
14.2975
  0
LINE
  8
0
 10
236.392
 20
14.2975
 11
235.814
 21
13.2964
  0
LINE
  8
0
 10
235.814
 20
13.2964
 11
235.278
 21
12.2719
  0
LINE
  8
0
 10
235.278
 20
12.2719
 11
234.786
 21
11.2259
  0
LINE
  8
0
 10
234.786
 20
11.2259
 11
234.338
 21
10.1602
  0
LINE
  8
0
 10
234.338
 20
10.1602
 11
233.935
 21
9.07671
  0
LINE
  8
0
 10
233.935
 20
9.07671
 11
233.578
 21
7.97726
  0
LINE
  8
0
 10
233.578
 20
7.97726
 11
233.267
 21
6.86383
  0
LINE
  8
0
 10
233.267
 20
6.86383
 11
233.003
 21
5.73836
  0
LINE
  8
0
 10
233.003
 20
5.73836
 11
232.787
 21
4.60281
  0
LINE
  8
0
 10
232.787
 20
4.60281
 11
232.618
 21
3.45918
  0
LINE
  8
0
 10
232.618
 20
3.45918
 11
232.497
 21
2.30949
  0
LINE
  8
0
 10
232.497
 20
2.30949
 11
232.424
 21
1.15576
  0
LINE
  8
0
 10
232.424
 20
1.15576
 11
232.4
 21
0
  0
LINE
  8
0
 10
232.4
 20
0
 11
232.424
 21
-1.15576
  0
LINE
  8
0
 10
232.424
 20
-1.15576
 11
232.497
 21
-2.30949
  0
LINE
  8
0
 10
232.497
 20
-2.30949
 11
232.618
 21
-3.45918
  0
LINE
  8
0
 10
232.618
 20
-3.45918
 11
232.787
 21
-4.60281
  0
LINE
  8
0
 10
232.787
 20
-4.60281
 11
233.003
 21
-5.73836
  0
LINE
  8
0
 10
233.003
 20
-5.73836
 11
233.267
 21
-6.86383
  0
LINE
  8
0
 10
233.267
 20
-6.86383
 11
233.578
 21
-7.97726
  0
LINE
  8
0
 10
233.578
 20
-7.97726
 11
233.935
 21
-9.07671
  0
LINE
  8
0
 10
233.935
 20
-9.07671
 11
234.338
 21
-10.1602
  0
LINE
  8
0
 10
234.338
 20
-10.1602
 11
234.786
 21
-11.2259
  0
LINE
  8
0
 10
234.786
 20
-11.2259
 11
235.278
 21
-12.2719
  0
LINE
  8
0
 10
235.278
 20
-12.2719
 11
235.814
 21
-13.2964
  0
LINE
  8
0
 10
235.814
 20
-13.2964
 11
236.392
 21
-14.2975
  0
LINE
  8
0
 10
236.392
 20
-14.2975
 11
237.011
 21
-15.2736
  0
LINE
  8
0
 10
237.011
 20
-15.2736
 11
237.15
 21
-15.4731
  0
LINE
  8
0
 10
237.15
 20
-15.4731
 11
237.15
 21
-34.5009
  0
LINE
  8
0
 10
237.15
 20
-34.5009
 11
242.832
 21
-34.5009
  0
LINE
  8
0
 10
242.832
 20
-34.5009
 11
242.995
 21
-34.5077
  0
LINE
  8
0
 10
242.995
 20
-34.5077
 11
243.158
 21
-34.5214
  0
LINE
  8
0
 10
243.158
 20
-34.5214
 11
243.32
 21
-34.5418
  0
LINE
  8
0
 10
243.32
 20
-34.5418
 11
243.481
 21
-34.5691
  0
LINE
  8
0
 10
243.481
 20
-34.5691
 11
243.641
 21
-34.603
  0
LINE
  8
0
 10
243.641
 20
-34.603
 11
243.799
 21
-34.6437
  0
LINE
  8
0
 10
243.799
 20
-34.6437
 11
243.955
 21
-34.6909
  0
LINE
  8
0
 10
243.955
 20
-34.6909
 11
244.109
 21
-34.7446
  0
LINE
  8
0
 10
244.109
 20
-34.7446
 11
244.261
 21
-34.8047
  0
LINE
  8
0
 10
244.261
 20
-34.8047
 11
244.411
 21
-34.8712
  0
LINE
  8
0
 10
244.411
 20
-34.8712
 11
244.557
 21
-34.9438
  0
LINE
  8
0
 10
244.557
 20
-34.9438
 11
244.7
 21
-35.0225
  0
LINE
  8
0
 10
244.7
 20
-35.0225
 11
244.84
 21
-35.1071
  0
LINE
  8
0
 10
244.84
 20
-35.1071
 11
244.976
 21
-35.1975
  0
LINE
  8
0
 10
244.976
 20
-35.1975
 11
245.108
 21
-35.2935
  0
LINE
  8
0
 10
245.108
 20
-35.2935
 11
245.236
 21
-35.395
  0
LINE
  8
0
 10
245.236
 20
-35.395
 11
245.36
 21
-35.5017
  0
LINE
  8
0
 10
245.36
 20
-35.5017
 11
245.479
 21
-35.6136
  0
LINE
  8
0
 10
245.479
 20
-35.6136
 11
245.593
 21
-35.7303
  0
LINE
  8
0
 10
245.593
 20
-35.7303
 11
245.702
 21
-35.8517
  0
LINE
  8
0
 10
245.702
 20
-35.8517
 11
245.806
 21
-35.9775
  0
LINE
  8
0
 10
245.806
 20
-35.9775
 11
245.905
 21
-36.1076
  0
LINE
  8
0
 10
245.905
 20
-36.1076
 11
245.998
 21
-36.2418
  0
LINE
  8
0
 10
245.998
 20
-36.2418
 11
246.086
 21
-36.3797
  0
LINE
  8
0
 10
246.086
 20
-36.3797
 11
246.168
 21
-36.5211
  0
LINE
  8
0
 10
246.168
 20
-36.5211
 11
246.243
 21
-36.6659
  0
LINE
  8
0
 10
246.243
 20
-36.6659
 11
246.313
 21
-36.8137
  0
LINE
  8
0
 10
246.313
 20
-36.8137
 11
246.376
 21
-36.9643
  0
LINE
  8
0
 10
246.376
 20
-36.9643
 11
246.433
 21
-37.1174
  0
LINE
  8
0
 10
246.433
 20
-37.1174
 11
246.484
 21
-37.2728
  0
LINE
  8
0
 10
246.484
 20
-37.2728
 11
246.527
 21
-37.4301
  0
LINE
  8
0
 10
246.527
 20
-37.4301
 11
246.565
 21
-37.5891
  0
LINE
  8
0
 10
246.565
 20
-37.5891
 11
246.595
 21
-37.7496
  0
LINE
  8
0
 10
246.595
 20
-37.7496
 11
246.619
 21
-37.9112
  0
LINE
  8
0
 10
246.619
 20
-37.9112
 11
246.636
 21
-38.0737
  0
LINE
  8
0
 10
246.636
 20
-38.0737
 11
246.647
 21
-38.2367
  0
LINE
  8
0
 10
246.647
 20
-38.2367
 11
246.65
 21
-38.4
  0
LINE
  8
0
 10
246.65
 20
-38.4
 11
246.647
 21
-38.5633
  0
LINE
  8
0
 10
246.647
 20
-38.5633
 11
246.636
 21
-38.7263
  0
LINE
  8
0
 10
246.636
 20
-38.7263
 11
246.619
 21
-38.8888
  0
LINE
  8
0
 10
246.619
 20
-38.8888
 11
246.595
 21
-39.0504
  0
LINE
  8
0
 10
246.595
 20
-39.0504
 11
246.565
 21
-39.2108
  0
LINE
  8
0
 10
246.565
 20
-39.2108
 11
246.527
 21
-39.3699
  0
LINE
  8
0
 10
246.527
 20
-39.3699
 11
246.484
 21
-39.5272
  0
LINE
  8
0
 10
246.484
 20
-39.5272
 11
246.433
 21
-39.6826
  0
LINE
  8
0
 10
246.433
 20
-39.6826
 11
246.376
 21
-39.8357
  0
LINE
  8
0
 10
246.376
 20
-39.8357
 11
246.313
 21
-39.9863
  0
LINE
  8
0
 10
246.313
 20
-39.9863
 11
246.243
 21
-40.1341
  0
LINE
  8
0
 10
246.243
 20
-40.1341
 11
246.168
 21
-40.2788
  0
LINE
  8
0
 10
246.168
 20
-40.2788
 11
246.086
 21
-40.4203
  0
LINE
  8
0
 10
246.086
 20
-40.4203
 11
245.998
 21
-40.5582
  0
LINE
  8
0
 10
245.998
 20
-40.5582
 11
245.905
 21
-40.6924
  0
LINE
  8
0
 10
245.905
 20
-40.6924
 11
245.806
 21
-40.8225
  0
LINE
  8
0
 10
245.806
 20
-40.8225
 11
245.702
 21
-40.9483
  0
LINE
  8
0
 10
245.702
 20
-40.9483
 11
245.593
 21
-41.0697
  0
LINE
  8
0
 10
245.593
 20
-41.0697
 11
245.479
 21
-41.1864
  0
LINE
  8
0
 10
245.479
 20
-41.1864
 11
245.36
 21
-41.2983
  0
LINE
  8
0
 10
245.36
 20
-41.2983
 11
245.236
 21
-41.405
  0
LINE
  8
0
 10
245.236
 20
-41.405
 11
245.108
 21
-41.5065
  0
LINE
  8
0
 10
245.108
 20
-41.5065
 11
244.976
 21
-41.6025
  0
LINE
  8
0
 10
244.976
 20
-41.6025
 11
244.84
 21
-41.6929
  0
LINE
  8
0
 10
244.84
 20
-41.6929
 11
244.7
 21
-41.7775
  0
LINE
  8
0
 10
244.7
 20
-41.7775
 11
244.557
 21
-41.8562
  0
LINE
  8
0
 10
244.557
 20
-41.8562
 11
244.411
 21
-41.9288
  0
LINE
  8
0
 10
244.411
 20
-41.9288
 11
244.261
 21
-41.9953
  0
LINE
  8
0
 10
244.261
 20
-41.9953
 11
244.109
 21
-42.0554
  0
LINE
  8
0
 10
244.109
 20
-42.0554
 11
243.955
 21
-42.1091
  0
LINE
  8
0
 10
243.955
 20
-42.1091
 11
243.799
 21
-42.1563
  0
LINE
  8
0
 10
243.799
 20
-42.1563
 11
243.641
 21
-42.1969
  0
LINE
  8
0
 10
243.641
 20
-42.1969
 11
243.481
 21
-42.2309
  0
LINE
  8
0
 10
243.481
 20
-42.2309
 11
243.32
 21
-42.2581
  0
LINE
  8
0
 10
243.32
 20
-42.2581
 11
243.158
 21
-42.2786
  0
LINE
  8
0
 10
243.158
 20
-42.2786
 11
242.995
 21
-42.2923
  0
LINE
  8
0
 10
242.995
 20
-42.2923
 11
242.832
 21
-42.2991
  0
LINE
  8
0
 10
242.832
 20
-42.2991
 11
237.15
 21
-42.2991
  0
LINE
  8
0
 10
237.15
 20
-42.2991
 11
237.15
 21
-44.4
  0
LINE
  8
0
 10
237.15
 20
-44.4
 11
255
 21
-44.4
  0
LINE
  8
0
 10
255
 20
-44.4
 11
255
 21
-13.1282
  0
LINE
  8
0
 10
320
 20
-13.1282
 11
319.555
 21
-12.9522
  0
LINE
  8
0
 10
319.555
 20
-12.9522
 11
319.018
 21
-12.7128
  0
LINE
  8
0
 10
319.018
 20
-12.7128
 11
318.491
 21
-12.4512
  0
LINE
  8
0
 10
318.491
 20
-12.4512
 11
317.975
 21
-12.1676
  0
LINE
  8
0
 10
317.975
 20
-12.1676
 11
317.472
 21
-11.8628
  0
LINE
  8
0
 10
317.472
 20
-11.8628
 11
316.981
 21
-11.5371
  0
LINE
  8
0
 10
316.981
 20
-11.5371
 11
316.505
 21
-11.1912
  0
LINE
  8
0
 10
316.505
 20
-11.1912
 11
316.044
 21
-10.8257
  0
LINE
  8
0
 10
316.044
 20
-10.8257
 11
315.599
 21
-10.4412
  0
LINE
  8
0
 10
315.599
 20
-10.4412
 11
315.17
 21
-10.0383
  0
LINE
  8
0
 10
315.17
 20
-10.0383
 11
314.758
 21
-9.61787
  0
LINE
  8
0
 10
314.758
 20
-9.61787
 11
314.364
 21
-9.18056
  0
LINE
  8
0
 10
314.364
 20
-9.18056
 11
313.989
 21
-8.72711
  0
LINE
  8
0
 10
313.989
 20
-8.72711
 11
313.633
 21
-8.25838
  0
LINE
  8
0
 10
313.633
 20
-8.25838
 11
313.297
 21
-7.77515
  0
LINE
  8
0
 10
313.297
 20
-7.77515
 11
312.982
 21
-7.27827
  0
LINE
  8
0
 10
312.982
 20
-7.27827
 11
312.688
 21
-6.76863
  0
LINE
  8
0
 10
312.688
 20
-6.76863
 11
312.415
 21
-6.24712
  0
LINE
  8
0
 10
312.415
 20
-6.24712
 11
312.165
 21
-5.71465
  0
LINE
  8
0
 10
312.165
 20
-5.71465
 11
311.937
 21
-5.17215
  0
LINE
  8
0
 10
311.937
 20
-5.17215
 11
311.732
 21
-4.62057
  0
LINE
  8
0
 10
311.732
 20
-4.62057
 11
311.55
 21
-4.06088
  0
LINE
  8
0
 10
311.55
 20
-4.06088
 11
311.391
 21
-3.49408
  0
LINE
  8
0
 10
311.391
 20
-3.49408
 11
311.257
 21
-2.92116
  0
LINE
  8
0
 10
311.257
 20
-2.92116
 11
311.147
 21
-2.34309
  0
LINE
  8
0
 10
311.147
 20
-2.34309
 11
311.061
 21
-1.76093
  0
LINE
  8
0
 10
311.061
 20
-1.76093
 11
310.999
 21
-1.17566
  0
LINE
  8
0
 10
310.999
 20
-1.17566
 11
310.962
 21
-0.588348
  0
LINE
  8
0
 10
310.962
 20
-0.588348
 11
310.95
 21
0
  0
LINE
  8
0
 10
310.95
 20
0
 11
310.962
 21
0.588348
  0
LINE
  8
0
 10
310.962
 20
0.588348
 11
310.999
 21
1.17566
  0
LINE
  8
0
 10
310.999
 20
1.17566
 11
311.061
 21
1.76093
  0
LINE
  8
0
 10
311.061
 20
1.76093
 11
311.147
 21
2.34309
  0
LINE
  8
0
 10
311.147
 20
2.34309
 11
311.257
 21
2.92116
  0
LINE
  8
0
 10
311.257
 20
2.92116
 11
311.391
 21
3.49408
  0
LINE
  8
0
 10
311.391
 20
3.49408
 11
311.55
 21
4.06088
  0
LINE
  8
0
 10
311.55
 20
4.06088
 11
311.732
 21
4.62057
  0
LINE
  8
0
 10
311.732
 20
4.62057
 11
311.937
 21
5.17215
  0
LINE
  8
0
 10
311.937
 20
5.17215
 11
312.165
 21
5.71465
  0
LINE
  8
0
 10
312.165
 20
5.71465
 11
312.415
 21
6.24712
  0
LINE
  8
0
 10
312.415
 20
6.24712
 11
312.688
 21
6.76863
  0
LINE
  8
0
 10
312.688
 20
6.76863
 11
312.982
 21
7.27827
  0
LINE
  8
0
 10
312.982
 20
7.27827
 11
313.297
 21
7.77515
  0
LINE
  8
0
 10
313.297
 20
7.77515
 11
313.633
 21
8.25838
  0
LINE
  8
0
 10
313.633
 20
8.25838
 11
313.989
 21
8.72711
  0
LINE
  8
0
 10
313.989
 20
8.72711
 11
314.364
 21
9.18056
  0
LINE
  8
0
 10
314.364
 20
9.18056
 11
314.758
 21
9.61787
  0
LINE
  8
0
 10
314.758
 20
9.61787
 11
315.17
 21
10.0383
  0
LINE
  8
0
 10
315.17
 20
10.0383
 11
315.599
 21
10.4412
  0
LINE
  8
0
 10
315.599
 20
10.4412
 11
316.044
 21
10.8257
  0
LINE
  8
0
 10
316.044
 20
10.8257
 11
316.505
 21
11.1912
  0
LINE
  8
0
 10
316.505
 20
11.1912
 11
316.981
 21
11.5371
  0
LINE
  8
0
 10
316.981
 20
11.5371
 11
317.472
 21
11.8628
  0
LINE
  8
0
 10
317.472
 20
11.8628
 11
317.975
 21
12.1676
  0
LINE
  8
0
 10
317.975
 20
12.1676
 11
318.491
 21
12.4512
  0
LINE
  8
0
 10
318.491
 20
12.4512
 11
319.018
 21
12.7128
  0
LINE
  8
0
 10
319.018
 20
12.7128
 11
319.555
 21
12.9522
  0
LINE
  8
0
 10
319.555
 20
12.9522
 11
320.103
 21
13.1688
  0
LINE
  8
0
 10
320.103
 20
13.1688
 11
320.658
 21
13.3623
  0
LINE
  8
0
 10
320.658
 20
13.3623
 11
321.222
 21
13.5324
  0
LINE
  8
0
 10
321.222
 20
13.5324
 11
321.792
 21
13.6788
  0
LINE
  8
0
 10
321.792
 20
13.6788
 11
322.367
 21
13.8011
  0
LINE
  8
0
 10
322.367
 20
13.8011
 11
322.948
 21
13.8993
  0
LINE
  8
0
 10
322.948
 20
13.8993
 11
323.531
 21
13.973
  0
LINE
  8
0
 10
323.531
 20
13.973
 11
324.118
 21
14.0223
  0
LINE
  8
0
 10
324.118
 20
14.0223
 11
324.706
 21
14.0469
  0
LINE
  8
0
 10
324.706
 20
14.0469
 11
325.294
 21
14.0469
  0
LINE
  8
0
 10
325.294
 20
14.0469
 11
325.882
 21
14.0223
  0
LINE
  8
0
 10
325.882
 20
14.0223
 11
326.469
 21
13.973
  0
LINE
  8
0
 10
326.469
 20
13.973
 11
327.052
 21
13.8993
  0
LINE
  8
0
 10
327.052
 20
13.8993
 11
327.633
 21
13.8011
  0
LINE
  8
0
 10
327.633
 20
13.8011
 11
328.208
 21
13.6788
  0
LINE
  8
0
 10
328.208
 20
13.6788
 11
328.778
 21
13.5324
  0
LINE
  8
0
 10
328.778
 20
13.5324
 11
329.342
 21
13.3623
  0
LINE
  8
0
 10
329.342
 20
13.3623
 11
329.897
 21
13.1688
  0
LINE
  8
0
 10
329.897
 20
13.1688
 11
330.445
 21
12.9522
  0
LINE
  8
0
 10
330.445
 20
12.9522
 11
330.982
 21
12.7128
  0
LINE
  8
0
 10
330.982
 20
12.7128
 11
331.509
 21
12.4512
  0
LINE
  8
0
 10
331.509
 20
12.4512
 11
332.025
 21
12.1676
  0
LINE
  8
0
 10
332.025
 20
12.1676
 11
332.528
 21
11.8628
  0
LINE
  8
0
 10
332.528
 20
11.8628
 11
333.019
 21
11.5371
  0
LINE
  8
0
 10
333.019
 20
11.5371
 11
333.495
 21
11.1912
  0
LINE
  8
0
 10
333.495
 20
11.1912
 11
333.956
 21
10.8257
  0
LINE
  8
0
 10
333.956
 20
10.8257
 11
334.401
 21
10.4412
  0
LINE
  8
0
 10
334.401
 20
10.4412
 11
334.83
 21
10.0383
  0
LINE
  8
0
 10
334.83
 20
10.0383
 11
335.242
 21
9.61787
  0
LINE
  8
0
 10
335.242
 20
9.61787
 11
335.636
 21
9.18056
  0
LINE
  8
0
 10
335.636
 20
9.18056
 11
336.011
 21
8.72711
  0
LINE
  8
0
 10
336.011
 20
8.72711
 11
336.367
 21
8.25838
  0
LINE
  8
0
 10
336.367
 20
8.25838
 11
336.703
 21
7.77515
  0
LINE
  8
0
 10
336.703
 20
7.77515
 11
337.018
 21
7.27827
  0
LINE
  8
0
 10
337.018
 20
7.27827
 11
337.312
 21
6.76863
  0
LINE
  8
0
 10
337.312
 20
6.76863
 11
337.585
 21
6.24712
  0
LINE
  8
0
 10
337.585
 20
6.24712
 11
337.835
 21
5.71465
  0
LINE
  8
0
 10
337.835
 20
5.71465
 11
338.063
 21
5.17215
  0
LINE
  8
0
 10
338.063
 20
5.17215
 11
338.268
 21
4.62057
  0
LINE
  8
0
 10
338.268
 20
4.62057
 11
338.45
 21
4.06088
  0
LINE
  8
0
 10
338.45
 20
4.06088
 11
338.609
 21
3.49408
  0
LINE
  8
0
 10
338.609
 20
3.49408
 11
338.743
 21
2.92116
  0
LINE
  8
0
 10
338.743
 20
2.92116
 11
338.853
 21
2.34309
  0
LINE
  8
0
 10
338.853
 20
2.34309
 11
338.939
 21
1.76093
  0
LINE
  8
0
 10
338.939
 20
1.76093
 11
339.001
 21
1.17566
  0
LINE
  8
0
 10
339.001
 20
1.17566
 11
339.038
 21
0.588348
  0
LINE
  8
0
 10
339.038
 20
0.588348
 11
339.05
 21
0
  0
LINE
  8
0
 10
339.05
 20
0
 11
339.038
 21
-0.588348
  0
LINE
  8
0
 10
339.038
 20
-0.588348
 11
339.001
 21
-1.17566
  0
LINE
  8
0
 10
339.001
 20
-1.17566
 11
338.939
 21
-1.76093
  0
LINE
  8
0
 10
338.939
 20
-1.76093
 11
338.853
 21
-2.34309
  0
LINE
  8
0
 10
338.853
 20
-2.34309
 11
338.743
 21
-2.92116
  0
LINE
  8
0
 10
338.743
 20
-2.92116
 11
338.609
 21
-3.49408
  0
LINE
  8
0
 10
338.609
 20
-3.49408
 11
338.45
 21
-4.06088
  0
LINE
  8
0
 10
338.45
 20
-4.06088
 11
338.268
 21
-4.62057
  0
LINE
  8
0
 10
338.268
 20
-4.62057
 11
338.063
 21
-5.17215
  0
LINE
  8
0
 10
338.063
 20
-5.17215
 11
337.835
 21
-5.71465
  0
LINE
  8
0
 10
337.835
 20
-5.71465
 11
337.585
 21
-6.24712
  0
LINE
  8
0
 10
337.585
 20
-6.24712
 11
337.312
 21
-6.76863
  0
LINE
  8
0
 10
337.312
 20
-6.76863
 11
337.018
 21
-7.27827
  0
LINE
  8
0
 10
337.018
 20
-7.27827
 11
336.703
 21
-7.77515
  0
LINE
  8
0
 10
336.703
 20
-7.77515
 11
336.367
 21
-8.25838
  0
LINE
  8
0
 10
336.367
 20
-8.25838
 11
336.011
 21
-8.72711
  0
LINE
  8
0
 10
336.011
 20
-8.72711
 11
335.636
 21
-9.18056
  0
LINE
  8
0
 10
335.636
 20
-9.18056
 11
335.242
 21
-9.61787
  0
LINE
  8
0
 10
335.242
 20
-9.61787
 11
334.83
 21
-10.0383
  0
LINE
  8
0
 10
334.83
 20
-10.0383
 11
334.401
 21
-10.4412
  0
LINE
  8
0
 10
334.401
 20
-10.4412
 11
333.956
 21
-10.8257
  0
LINE
  8
0
 10
333.956
 20
-10.8257
 11
333.495
 21
-11.1912
  0
LINE
  8
0
 10
333.495
 20
-11.1912
 11
333.019
 21
-11.5371
  0
LINE
  8
0
 10
333.019
 20
-11.5371
 11
332.528
 21
-11.8628
  0
LINE
  8
0
 10
332.528
 20
-11.8628
 11
332.025
 21
-12.1676
  0
LINE
  8
0
 10
332.025
 20
-12.1676
 11
331.509
 21
-12.4512
  0
LINE
  8
0
 10
331.509
 20
-12.4512
 11
330.982
 21
-12.7128
  0
LINE
  8
0
 10
330.982
 20
-12.7128
 11
330.445
 21
-12.9522
  0
LINE
  8
0
 10
330.445
 20
-12.9522
 11
330
 21
-13.1282
  0
LINE
  8
0
 10
330
 20
-13.1282
 11
330
 21
-44.4
  0
LINE
  8
0
 10
330
 20
-44.4
 11
347.85
 21
-44.4
  0
LINE
  8
0
 10
347.85
 20
-44.4
 11
347.85
 21
-42.2991
  0
LINE
  8
0
 10
347.85
 20
-42.2991
 11
342.168
 21
-42.2991
  0
LINE
  8
0
 10
342.168
 20
-42.2991
 11
342.005
 21
-42.2923
  0
LINE
  8
0
 10
342.005
 20
-42.2923
 11
341.842
 21
-42.2786
  0
LINE
  8
0
 10
341.842
 20
-42.2786
 11
341.68
 21
-42.2581
  0
LINE
  8
0
 10
341.68
 20
-42.2581
 11
341.519
 21
-42.2309
  0
LINE
  8
0
 10
341.519
 20
-42.2309
 11
341.359
 21
-42.1969
  0
LINE
  8
0
 10
341.359
 20
-42.1969
 11
341.201
 21
-42.1563
  0
LINE
  8
0
 10
341.201
 20
-42.1563
 11
341.045
 21
-42.1091
  0
LINE
  8
0
 10
341.045
 20
-42.1091
 11
340.891
 21
-42.0554
  0
LINE
  8
0
 10
340.891
 20
-42.0554
 11
340.739
 21
-41.9953
  0
LINE
  8
0
 10
340.739
 20
-41.9953
 11
340.589
 21
-41.9288
  0
LINE
  8
0
 10
340.589
 20
-41.9288
 11
340.443
 21
-41.8562
  0
LINE
  8
0
 10
340.443
 20
-41.8562
 11
340.3
 21
-41.7775
  0
LINE
  8
0
 10
340.3
 20
-41.7775
 11
340.16
 21
-41.6929
  0
LINE
  8
0
 10
340.16
 20
-41.6929
 11
340.024
 21
-41.6025
  0
LINE
  8
0
 10
340.024
 20
-41.6025
 11
339.892
 21
-41.5065
  0
LINE
  8
0
 10
339.892
 20
-41.5065
 11
339.764
 21
-41.405
  0
LINE
  8
0
 10
339.764
 20
-41.405
 11
339.64
 21
-41.2983
  0
LINE
  8
0
 10
339.64
 20
-41.2983
 11
339.521
 21
-41.1864
  0
LINE
  8
0
 10
339.521
 20
-41.1864
 11
339.407
 21
-41.0697
  0
LINE
  8
0
 10
339.407
 20
-41.0697
 11
339.298
 21
-40.9483
  0
LINE
  8
0
 10
339.298
 20
-40.9483
 11
339.194
 21
-40.8225
  0
LINE
  8
0
 10
339.194
 20
-40.8225
 11
339.095
 21
-40.6924
  0
LINE
  8
0
 10
339.095
 20
-40.6924
 11
339.002
 21
-40.5582
  0
LINE
  8
0
 10
339.002
 20
-40.5582
 11
338.914
 21
-40.4203
  0
LINE
  8
0
 10
338.914
 20
-40.4203
 11
338.832
 21
-40.2788
  0
LINE
  8
0
 10
338.832
 20
-40.2788
 11
338.757
 21
-40.1341
  0
LINE
  8
0
 10
338.757
 20
-40.1341
 11
338.687
 21
-39.9863
  0
LINE
  8
0
 10
338.687
 20
-39.9863
 11
338.624
 21
-39.8357
  0
LINE
  8
0
 10
338.624
 20
-39.8357
 11
338.567
 21
-39.6826
  0
LINE
  8
0
 10
338.567
 20
-39.6826
 11
338.516
 21
-39.5272
  0
LINE
  8
0
 10
338.516
 20
-39.5272
 11
338.473
 21
-39.3699
  0
LINE
  8
0
 10
338.473
 20
-39.3699
 11
338.435
 21
-39.2108
  0
LINE
  8
0
 10
338.435
 20
-39.2108
 11
338.405
 21
-39.0504
  0
LINE
  8
0
 10
338.405
 20
-39.0504
 11
338.381
 21
-38.8888
  0
LINE
  8
0
 10
338.381
 20
-38.8888
 11
338.364
 21
-38.7263
  0
LINE
  8
0
 10
338.364
 20
-38.7263
 11
338.353
 21
-38.5633
  0
LINE
  8
0
 10
338.353
 20
-38.5633
 11
338.35
 21
-38.4
  0
LINE
  8
0
 10
338.35
 20
-38.4
 11
338.353
 21
-38.2367
  0
LINE
  8
0
 10
338.353
 20
-38.2367
 11
338.364
 21
-38.0737
  0
LINE
  8
0
 10
338.364
 20
-38.0737
 11
338.381
 21
-37.9112
  0
LINE
  8
0
 10
338.381
 20
-37.9112
 11
338.405
 21
-37.7496
  0
LINE
  8
0
 10
338.405
 20
-37.7496
 11
338.435
 21
-37.5891
  0
LINE
  8
0
 10
338.435
 20
-37.5891
 11
338.473
 21
-37.4301
  0
LINE
  8
0
 10
338.473
 20
-37.4301
 11
338.516
 21
-37.2728
  0
LINE
  8
0
 10
338.516
 20
-37.2728
 11
338.567
 21
-37.1174
  0
LINE
  8
0
 10
338.567
 20
-37.1174
 11
338.624
 21
-36.9643
  0
LINE
  8
0
 10
338.624
 20
-36.9643
 11
338.687
 21
-36.8137
  0
LINE
  8
0
 10
338.687
 20
-36.8137
 11
338.757
 21
-36.6659
  0
LINE
  8
0
 10
338.757
 20
-36.6659
 11
338.832
 21
-36.5211
  0
LINE
  8
0
 10
338.832
 20
-36.5211
 11
338.914
 21
-36.3797
  0
LINE
  8
0
 10
338.914
 20
-36.3797
 11
339.002
 21
-36.2418
  0
LINE
  8
0
 10
339.002
 20
-36.2418
 11
339.095
 21
-36.1076
  0
LINE
  8
0
 10
339.095
 20
-36.1076
 11
339.194
 21
-35.9775
  0
LINE
  8
0
 10
339.194
 20
-35.9775
 11
339.298
 21
-35.8517
  0
LINE
  8
0
 10
339.298
 20
-35.8517
 11
339.407
 21
-35.7303
  0
LINE
  8
0
 10
339.407
 20
-35.7303
 11
339.521
 21
-35.6136
  0
LINE
  8
0
 10
339.521
 20
-35.6136
 11
339.64
 21
-35.5017
  0
LINE
  8
0
 10
339.64
 20
-35.5017
 11
339.764
 21
-35.395
  0
LINE
  8
0
 10
339.764
 20
-35.395
 11
339.892
 21
-35.2935
  0
LINE
  8
0
 10
339.892
 20
-35.2935
 11
340.024
 21
-35.1975
  0
LINE
  8
0
 10
340.024
 20
-35.1975
 11
340.16
 21
-35.1071
  0
LINE
  8
0
 10
340.16
 20
-35.1071
 11
340.3
 21
-35.0225
  0
LINE
  8
0
 10
340.3
 20
-35.0225
 11
340.443
 21
-34.9438
  0
LINE
  8
0
 10
340.443
 20
-34.9438
 11
340.589
 21
-34.8712
  0
LINE
  8
0
 10
340.589
 20
-34.8712
 11
340.739
 21
-34.8047
  0
LINE
  8
0
 10
340.739
 20
-34.8047
 11
340.891
 21
-34.7446
  0
LINE
  8
0
 10
340.891
 20
-34.7446
 11
341.045
 21
-34.6909
  0
LINE
  8
0
 10
341.045
 20
-34.6909
 11
341.201
 21
-34.6437
  0
LINE
  8
0
 10
341.201
 20
-34.6437
 11
341.359
 21
-34.603
  0
LINE
  8
0
 10
341.359
 20
-34.603
 11
341.519
 21
-34.5691
  0
LINE
  8
0
 10
341.519
 20
-34.5691
 11
341.68
 21
-34.5418
  0
LINE
  8
0
 10
341.68
 20
-34.5418
 11
341.842
 21
-34.5214
  0
LINE
  8
0
 10
341.842
 20
-34.5214
 11
342.005
 21
-34.5077
  0
LINE
  8
0
 10
342.005
 20
-34.5077
 11
342.168
 21
-34.5009
  0
LINE
  8
0
 10
342.168
 20
-34.5009
 11
347.85
 21
-34.5009
  0
LINE
  8
0
 10
347.85
 20
-34.5009
 11
347.85
 21
-15.4731
  0
LINE
  8
0
 10
347.85
 20
-15.4731
 11
347.989
 21
-15.2736
  0
LINE
  8
0
 10
347.989
 20
-15.2736
 11
348.608
 21
-14.2975
  0
LINE
  8
0
 10
348.608
 20
-14.2975
 11
349.186
 21
-13.2964
  0
LINE
  8
0
 10
349.186
 20
-13.2964
 11
349.722
 21
-12.2719
  0
LINE
  8
0
 10
349.722
 20
-12.2719
 11
350.214
 21
-11.2259
  0
LINE
  8
0
 10
350.214
 20
-11.2259
 11
350.662
 21
-10.1602
  0
LINE
  8
0
 10
350.662
 20
-10.1602
 11
351.065
 21
-9.07671
  0
LINE
  8
0
 10
351.065
 20
-9.07671
 11
351.422
 21
-7.97726
  0
LINE
  8
0
 10
351.422
 20
-7.97726
 11
351.733
 21
-6.86383
  0
LINE
  8
0
 10
351.733
 20
-6.86383
 11
351.997
 21
-5.73836
  0
LINE
  8
0
 10
351.997
 20
-5.73836
 11
352.213
 21
-4.60281
  0
LINE
  8
0
 10
352.213
 20
-4.60281
 11
352.382
 21
-3.45918
  0
LINE
  8
0
 10
352.382
 20
-3.45918
 11
352.503
 21
-2.30949
  0
LINE
  8
0
 10
352.503
 20
-2.30949
 11
352.576
 21
-1.15576
  0
LINE
  8
0
 10
352.576
 20
-1.15576
 11
352.6
 21
0
  0
LINE
  8
0
 10
352.6
 20
0
 11
352.576
 21
1.15576
  0
LINE
  8
0
 10
352.576
 20
1.15576
 11
352.503
 21
2.30949
  0
LINE
  8
0
 10
352.503
 20
2.30949
 11
352.382
 21
3.45918
  0
LINE
  8
0
 10
352.382
 20
3.45918
 11
352.213
 21
4.60281
  0
LINE
  8
0
 10
352.213
 20
4.60281
 11
351.997
 21
5.73836
  0
LINE
  8
0
 10
351.997
 20
5.73836
 11
351.733
 21
6.86383
  0
LINE
  8
0
 10
351.733
 20
6.86383
 11
351.422
 21
7.97726
  0
LINE
  8
0
 10
351.422
 20
7.97726
 11
351.065
 21
9.07671
  0
LINE
  8
0
 10
351.065
 20
9.07671
 11
350.662
 21
10.1602
  0
LINE
  8
0
 10
350.662
 20
10.1602
 11
350.214
 21
11.2259
  0
LINE
  8
0
 10
350.214
 20
11.2259
 11
349.722
 21
12.2719
  0
LINE
  8
0
 10
349.722
 20
12.2719
 11
349.186
 21
13.2964
  0
LINE
  8
0
 10
349.186
 20
13.2964
 11
348.608
 21
14.2975
  0
LINE
  8
0
 10
348.608
 20
14.2975
 11
347.989
 21
15.2736
  0
LINE
  8
0
 10
347.989
 20
15.2736
 11
347.329
 21
16.2229
  0
LINE
  8
0
 10
347.329
 20
16.2229
 11
346.63
 21
17.1437
  0
LINE
  8
0
 10
346.63
 20
17.1437
 11
345.893
 21
18.0344
  0
LINE
  8
0
 10
345.893
 20
18.0344
 11
345.12
 21
18.8935
  0
LINE
  8
0
 10
345.12
 20
18.8935
 11
344.311
 21
19.7194
  0
LINE
  8
0
 10
344.311
 20
19.7194
 11
343.468
 21
20.5108
  0
LINE
  8
0
 10
343.468
 20
20.5108
 11
342.593
 21
21.2662
  0
LINE
  8
0
 10
342.593
 20
21.2662
 11
341.687
 21
21.9842
  0
LINE
  8
0
 10
341.687
 20
21.9842
 11
340.752
 21
22.6637
  0
LINE
  8
0
 10
340.752
 20
22.6637
 11
339.789
 21
23.3034
  0
LINE
  8
0
 10
339.789
 20
23.3034
 11
338.8
 21
23.9023
  0
LINE
  8
0
 10
338.8
 20
23.9023
 11
337.787
 21
24.4592
  0
LINE
  8
0
 10
337.787
 20
24.4592
 11
336.751
 21
24.9732
  0
LINE
  8
0
 10
336.751
 20
24.9732
 11
335.695
 21
25.4434
  0
LINE
  8
0
 10
335.695
 20
25.4434
 11
334.621
 21
25.869
  0
LINE
  8
0
 10
334.621
 20
25.869
 11
333.529
 21
26.2491
  0
LINE
  8
0
 10
333.529
 20
26.2491
 11
332.422
 21
26.5833
  0
LINE
  8
0
 10
332.422
 20
26.5833
 11
331.302
 21
26.8708
  0
LINE
  8
0
 10
331.302
 20
26.8708
 11
330.172
 21
27.1111
  0
LINE
  8
0
 10
330.172
 20
27.1111
 11
329.032
 21
27.3039
  0
LINE
  8
0
 10
329.032
 20
27.3039
 11
327.885
 21
27.4488
  0
LINE
  8
0
 10
327.885
 20
27.4488
 11
326.733
 21
27.5455
  0
LINE
  8
0
 10
326.733
 20
27.5455
 11
325.578
 21
27.5939
  0
LINE
  8
0
 10
325.578
 20
27.5939
 11
324.422
 21
27.5939
  0
LINE
  8
0
 10
324.422
 20
27.5939
 11
323.267
 21
27.5455
  0
LINE
  8
0
 10
323.267
 20
27.5455
 11
322.115
 21
27.4488
  0
LINE
  8
0
 10
322.115
 20
27.4488
 11
320.968
 21
27.3039
  0
LINE
  8
0
 10
320.968
 20
27.3039
 11
319.828
 21
27.1111
  0
LINE
  8
0
 10
319.828
 20
27.1111
 11
318.698
 21
26.8708
  0
LINE
  8
0
 10
318.698
 20
26.8708
 11
317.578
 21
26.5833
  0
LINE
  8
0
 10
317.578
 20
26.5833
 11
316.471
 21
26.2491
  0
LINE
  8
0
 10
316.471
 20
26.2491
 11
315.379
 21
25.869
  0
LINE
  8
0
 10
315.379
 20
25.869
 11
314.305
 21
25.4434
  0
LINE
  8
0
 10
314.305
 20
25.4434
 11
313.249
 21
24.9732
  0
LINE
  8
0
 10
313.249
 20
24.9732
 11
312.213
 21
24.4592
  0
LINE
  8
0
 10
312.213
 20
24.4592
 11
311.2
 21
23.9023
  0
LINE
  8
0
 10
311.2
 20
23.9023
 11
310.211
 21
23.3034
  0
LINE
  8
0
 10
310.211
 20
23.3034
 11
309.248
 21
22.6637
  0
LINE
  8
0
 10
309.248
 20
22.6637
 11
308.313
 21
21.9842
  0
LINE
  8
0
 10
308.313
 20
21.9842
 11
307.407
 21
21.2662
  0
LINE
  8
0
 10
307.407
 20
21.2662
 11
306.532
 21
20.5108
  0
LINE
  8
0
 10
306.532
 20
20.5108
 11
305.689
 21
19.7194
  0
LINE
  8
0
 10
305.689
 20
19.7194
 11
304.88
 21
18.8935
  0
LINE
  8
0
 10
304.88
 20
18.8935
 11
304.107
 21
18.0344
  0
LINE
  8
0
 10
304.107
 20
18.0344
 11
303.37
 21
17.1437
  0
LINE
  8
0
 10
303.37
 20
17.1437
 11
302.671
 21
16.2229
  0
LINE
  8
0
 10
302.671
 20
16.2229
 11
302.011
 21
15.2736
  0
LINE
  8
0
 10
302.011
 20
15.2736
 11
301.392
 21
14.2975
  0
LINE
  8
0
 10
301.392
 20
14.2975
 11
300.814
 21
13.2964
  0
LINE
  8
0
 10
300.814
 20
13.2964
 11
300.278
 21
12.2719
  0
LINE
  8
0
 10
300.278
 20
12.2719
 11
299.786
 21
11.2259
  0
LINE
  8
0
 10
299.786
 20
11.2259
 11
299.338
 21
10.1602
  0
LINE
  8
0
 10
299.338
 20
10.1602
 11
298.935
 21
9.07671
  0
LINE
  8
0
 10
298.935
 20
9.07671
 11
298.578
 21
7.97726
  0
LINE
  8
0
 10
298.578
 20
7.97726
 11
298.267
 21
6.86383
  0
LINE
  8
0
 10
298.267
 20
6.86383
 11
298.003
 21
5.73836
  0
LINE
  8
0
 10
298.003
 20
5.73836
 11
297.787
 21
4.60281
  0
LINE
  8
0
 10
297.787
 20
4.60281
 11
297.618
 21
3.45918
  0
LINE
  8
0
 10
297.618
 20
3.45918
 11
297.497
 21
2.30949
  0
LINE
  8
0
 10
297.497
 20
2.30949
 11
297.424
 21
1.15576
  0
LINE
  8
0
 10
297.424
 20
1.15576
 11
297.4
 21
0
  0
LINE
  8
0
 10
297.4
 20
0
 11
297.424
 21
-1.15576
  0
LINE
  8
0
 10
297.424
 20
-1.15576
 11
297.497
 21
-2.30949
  0
LINE
  8
0
 10
297.497
 20
-2.30949
 11
297.618
 21
-3.45918
  0
LINE
  8
0
 10
297.618
 20
-3.45918
 11
297.787
 21
-4.60281
  0
LINE
  8
0
 10
297.787
 20
-4.60281
 11
298.003
 21
-5.73836
  0
LINE
  8
0
 10
298.003
 20
-5.73836
 11
298.267
 21
-6.86383
  0
LINE
  8
0
 10
298.267
 20
-6.86383
 11
298.578
 21
-7.97726
  0
LINE
  8
0
 10
298.578
 20
-7.97726
 11
298.935
 21
-9.07671
  0
LINE
  8
0
 10
298.935
 20
-9.07671
 11
299.338
 21
-10.1602
  0
LINE
  8
0
 10
299.338
 20
-10.1602
 11
299.786
 21
-11.2259
  0
LINE
  8
0
 10
299.786
 20
-11.2259
 11
300.278
 21
-12.2719
  0
LINE
  8
0
 10
300.278
 20
-12.2719
 11
300.814
 21
-13.2964
  0
LINE
  8
0
 10
300.814
 20
-13.2964
 11
301.392
 21
-14.2975
  0
LINE
  8
0
 10
301.392
 20
-14.2975
 11
302.011
 21
-15.2736
  0
LINE
  8
0
 10
302.011
 20
-15.2736
 11
302.15
 21
-15.4731
  0
LINE
  8
0
 10
302.15
 20
-15.4731
 11
302.15
 21
-34.5009
  0
LINE
  8
0
 10
302.15
 20
-34.5009
 11
307.832
 21
-34.5009
  0
LINE
  8
0
 10
307.832
 20
-34.5009
 11
307.995
 21
-34.5077
  0
LINE
  8
0
 10
307.995
 20
-34.5077
 11
308.158
 21
-34.5214
  0
LINE
  8
0
 10
308.158
 20
-34.5214
 11
308.32
 21
-34.5418
  0
LINE
  8
0
 10
308.32
 20
-34.5418
 11
308.481
 21
-34.5691
  0
LINE
  8
0
 10
308.481
 20
-34.5691
 11
308.641
 21
-34.603
  0
LINE
  8
0
 10
308.641
 20
-34.603
 11
308.799
 21
-34.6437
  0
LINE
  8
0
 10
308.799
 20
-34.6437
 11
308.955
 21
-34.6909
  0
LINE
  8
0
 10
308.955
 20
-34.6909
 11
309.109
 21
-34.7446
  0
LINE
  8
0
 10
309.109
 20
-34.7446
 11
309.261
 21
-34.8047
  0
LINE
  8
0
 10
309.261
 20
-34.8047
 11
309.411
 21
-34.8712
  0
LINE
  8
0
 10
309.411
 20
-34.8712
 11
309.557
 21
-34.9438
  0
LINE
  8
0
 10
309.557
 20
-34.9438
 11
309.7
 21
-35.0225
  0
LINE
  8
0
 10
309.7
 20
-35.0225
 11
309.84
 21
-35.1071
  0
LINE
  8
0
 10
309.84
 20
-35.1071
 11
309.976
 21
-35.1975
  0
LINE
  8
0
 10
309.976
 20
-35.1975
 11
310.108
 21
-35.2935
  0
LINE
  8
0
 10
310.108
 20
-35.2935
 11
310.236
 21
-35.395
  0
LINE
  8
0
 10
310.236
 20
-35.395
 11
310.36
 21
-35.5017
  0
LINE
  8
0
 10
310.36
 20
-35.5017
 11
310.479
 21
-35.6136
  0
LINE
  8
0
 10
310.479
 20
-35.6136
 11
310.593
 21
-35.7303
  0
LINE
  8
0
 10
310.593
 20
-35.7303
 11
310.702
 21
-35.8517
  0
LINE
  8
0
 10
310.702
 20
-35.8517
 11
310.806
 21
-35.9775
  0
LINE
  8
0
 10
310.806
 20
-35.9775
 11
310.905
 21
-36.1076
  0
LINE
  8
0
 10
310.905
 20
-36.1076
 11
310.998
 21
-36.2418
  0
LINE
  8
0
 10
310.998
 20
-36.2418
 11
311.086
 21
-36.3797
  0
LINE
  8
0
 10
311.086
 20
-36.3797
 11
311.168
 21
-36.5211
  0
LINE
  8
0
 10
311.168
 20
-36.5211
 11
311.243
 21
-36.6659
  0
LINE
  8
0
 10
311.243
 20
-36.6659
 11
311.313
 21
-36.8137
  0
LINE
  8
0
 10
311.313
 20
-36.8137
 11
311.376
 21
-36.9643
  0
LINE
  8
0
 10
311.376
 20
-36.9643
 11
311.433
 21
-37.1174
  0
LINE
  8
0
 10
311.433
 20
-37.1174
 11
311.484
 21
-37.2728
  0
LINE
  8
0
 10
311.484
 20
-37.2728
 11
311.527
 21
-37.4301
  0
LINE
  8
0
 10
311.527
 20
-37.4301
 11
311.565
 21
-37.5891
  0
LINE
  8
0
 10
311.565
 20
-37.5891
 11
311.595
 21
-37.7496
  0
LINE
  8
0
 10
311.595
 20
-37.7496
 11
311.619
 21
-37.9112
  0
LINE
  8
0
 10
311.619
 20
-37.9112
 11
311.636
 21
-38.0737
  0
LINE
  8
0
 10
311.636
 20
-38.0737
 11
311.647
 21
-38.2367
  0
LINE
  8
0
 10
311.647
 20
-38.2367
 11
311.65
 21
-38.4
  0
LINE
  8
0
 10
311.65
 20
-38.4
 11
311.647
 21
-38.5633
  0
LINE
  8
0
 10
311.647
 20
-38.5633
 11
311.636
 21
-38.7263
  0
LINE
  8
0
 10
311.636
 20
-38.7263
 11
311.619
 21
-38.8888
  0
LINE
  8
0
 10
311.619
 20
-38.8888
 11
311.595
 21
-39.0504
  0
LINE
  8
0
 10
311.595
 20
-39.0504
 11
311.565
 21
-39.2108
  0
LINE
  8
0
 10
311.565
 20
-39.2108
 11
311.527
 21
-39.3699
  0
LINE
  8
0
 10
311.527
 20
-39.3699
 11
311.484
 21
-39.5272
  0
LINE
  8
0
 10
311.484
 20
-39.5272
 11
311.433
 21
-39.6826
  0
LINE
  8
0
 10
311.433
 20
-39.6826
 11
311.376
 21
-39.8357
  0
LINE
  8
0
 10
311.376
 20
-39.8357
 11
311.313
 21
-39.9863
  0
LINE
  8
0
 10
311.313
 20
-39.9863
 11
311.243
 21
-40.1341
  0
LINE
  8
0
 10
311.243
 20
-40.1341
 11
311.168
 21
-40.2788
  0
LINE
  8
0
 10
311.168
 20
-40.2788
 11
311.086
 21
-40.4203
  0
LINE
  8
0
 10
311.086
 20
-40.4203
 11
310.998
 21
-40.5582
  0
LINE
  8
0
 10
310.998
 20
-40.5582
 11
310.905
 21
-40.6924
  0
LINE
  8
0
 10
310.905
 20
-40.6924
 11
310.806
 21
-40.8225
  0
LINE
  8
0
 10
310.806
 20
-40.8225
 11
310.702
 21
-40.9483
  0
LINE
  8
0
 10
310.702
 20
-40.9483
 11
310.593
 21
-41.0697
  0
LINE
  8
0
 10
310.593
 20
-41.0697
 11
310.479
 21
-41.1864
  0
LINE
  8
0
 10
310.479
 20
-41.1864
 11
310.36
 21
-41.2983
  0
LINE
  8
0
 10
310.36
 20
-41.2983
 11
310.236
 21
-41.405
  0
LINE
  8
0
 10
310.236
 20
-41.405
 11
310.108
 21
-41.5065
  0
LINE
  8
0
 10
310.108
 20
-41.5065
 11
309.976
 21
-41.6025
  0
LINE
  8
0
 10
309.976
 20
-41.6025
 11
309.84
 21
-41.6929
  0
LINE
  8
0
 10
309.84
 20
-41.6929
 11
309.7
 21
-41.7775
  0
LINE
  8
0
 10
309.7
 20
-41.7775
 11
309.557
 21
-41.8562
  0
LINE
  8
0
 10
309.557
 20
-41.8562
 11
309.411
 21
-41.9288
  0
LINE
  8
0
 10
309.411
 20
-41.9288
 11
309.261
 21
-41.9953
  0
LINE
  8
0
 10
309.261
 20
-41.9953
 11
309.109
 21
-42.0554
  0
LINE
  8
0
 10
309.109
 20
-42.0554
 11
308.955
 21
-42.1091
  0
LINE
  8
0
 10
308.955
 20
-42.1091
 11
308.799
 21
-42.1563
  0
LINE
  8
0
 10
308.799
 20
-42.1563
 11
308.641
 21
-42.1969
  0
LINE
  8
0
 10
308.641
 20
-42.1969
 11
308.481
 21
-42.2309
  0
LINE
  8
0
 10
308.481
 20
-42.2309
 11
308.32
 21
-42.2581
  0
LINE
  8
0
 10
308.32
 20
-42.2581
 11
308.158
 21
-42.2786
  0
LINE
  8
0
 10
308.158
 20
-42.2786
 11
307.995
 21
-42.2923
  0
LINE
  8
0
 10
307.995
 20
-42.2923
 11
307.832
 21
-42.2991
  0
LINE
  8
0
 10
307.832
 20
-42.2991
 11
302.15
 21
-42.2991
  0
LINE
  8
0
 10
302.15
 20
-42.2991
 11
302.15
 21
-44.4
  0
LINE
  8
0
 10
302.15
 20
-44.4
 11
320
 21
-44.4
  0
LINE
  8
0
 10
320
 20
-44.4
 11
320
 21
-13.1282
  0
LINE
  8
0
 10
14.85
 20
-44.4
 11
22.85
 21
-44.4
  0
LINE
  8
0
 10
22.85
 20
-44.4
 11
22.85
 21
-42.2991
  0
LINE
  8
0
 10
22.85
 20
-42.2991
 11
17.1683
 21
-42.2991
  0
LINE
  8
0
 10
17.1683
 20
-42.2991
 11
17.0051
 21
-42.2923
  0
LINE
  8
0
 10
17.0051
 20
-42.2923
 11
16.8423
 21
-42.2786
  0
LINE
  8
0
 10
16.8423
 20
-42.2786
 11
16.6803
 21
-42.2581
  0
LINE
  8
0
 10
16.6803
 20
-42.2581
 11
16.5192
 21
-42.2309
  0
LINE
  8
0
 10
16.5192
 20
-42.2309
 11
16.3594
 21
-42.1969
  0
LINE
  8
0
 10
16.3594
 20
-42.1969
 11
16.2012
 21
-42.1563
  0
LINE
  8
0
 10
16.2012
 20
-42.1563
 11
16.0448
 21
-42.1091
  0
LINE
  8
0
 10
16.0448
 20
-42.1091
 11
15.8906
 21
-42.0554
  0
LINE
  8
0
 10
15.8906
 20
-42.0554
 11
15.7387
 21
-41.9953
  0
LINE
  8
0
 10
15.7387
 20
-41.9953
 11
15.5894
 21
-41.9288
  0
LINE
  8
0
 10
15.5894
 20
-41.9288
 11
15.4431
 21
-41.8562
  0
LINE
  8
0
 10
15.4431
 20
-41.8562
 11
15.3
 21
-41.7775
  0
LINE
  8
0
 10
15.3
 20
-41.7775
 11
15.1603
 21
-41.6929
  0
LINE
  8
0
 10
15.1603
 20
-41.6929
 11
15.0242
 21
-41.6025
  0
LINE
  8
0
 10
15.0242
 20
-41.6025
 11
14.8921
 21
-41.5065
  0
LINE
  8
0
 10
14.8921
 20
-41.5065
 11
14.764
 21
-41.405
  0
LINE
  8
0
 10
14.764
 20
-41.405
 11
14.6404
 21
-41.2983
  0
LINE
  8
0
 10
14.6404
 20
-41.2983
 11
14.5213
 21
-41.1864
  0
LINE
  8
0
 10
14.5213
 20
-41.1864
 11
14.407
 21
-41.0697
  0
LINE
  8
0
 10
14.407
 20
-41.0697
 11
14.2977
 21
-40.9483
  0
LINE
  8
0
 10
14.2977
 20
-40.9483
 11
14.1936
 21
-40.8225
  0
LINE
  8
0
 10
14.1936
 20
-40.8225
 11
14.0948
 21
-40.6924
  0
LINE
  8
0
 10
14.0948
 20
-40.6924
 11
14.0016
 21
-40.5582
  0
LINE
  8
0
 10
14.0016
 20
-40.5582
 11
13.9141
 21
-40.4203
  0
LINE
  8
0
 10
13.9141
 20
-40.4203
 11
13.8324
 21
-40.2788
  0
LINE
  8
0
 10
13.8324
 20
-40.2788
 11
13.7567
 21
-40.1341
  0
LINE
  8
0
 10
13.7567
 20
-40.1341
 11
13.6872
 21
-39.9863
  0
LINE
  8
0
 10
13.6872
 20
-39.9863
 11
13.6239
 21
-39.8357
  0
LINE
  8
0
 10
13.6239
 20
-39.8357
 11
13.5669
 21
-39.6826
  0
LINE
  8
0
 10
13.5669
 20
-39.6826
 11
13.5164
 21
-39.5272
  0
LINE
  8
0
 10
13.5164
 20
-39.5272
 11
13.4725
 21
-39.3699
  0
LINE
  8
0
 10
13.4725
 20
-39.3699
 11
13.4352
 21
-39.2108
  0
LINE
  8
0
 10
13.4352
 20
-39.2108
 11
13.4046
 21
-39.0504
  0
LINE
  8
0
 10
13.4046
 20
-39.0504
 11
13.3808
 21
-38.8888
  0
LINE
  8
0
 10
13.3808
 20
-38.8888
 11
13.3637
 21
-38.7263
  0
LINE
  8
0
 10
13.3637
 20
-38.7263
 11
13.3534
 21
-38.5633
  0
LINE
  8
0
 10
13.3534
 20
-38.5633
 11
13.35
 21
-38.4
  0
LINE
  8
0
 10
13.35
 20
-38.4
 11
13.3534
 21
-38.2367
  0
LINE
  8
0
 10
13.3534
 20
-38.2367
 11
13.3637
 21
-38.0737
  0
LINE
  8
0
 10
13.3637
 20
-38.0737
 11
13.3808
 21
-37.9112
  0
LINE
  8
0
 10
13.3808
 20
-37.9112
 11
13.4046
 21
-37.7496
  0
LINE
  8
0
 10
13.4046
 20
-37.7496
 11
13.4352
 21
-37.5891
  0
LINE
  8
0
 10
13.4352
 20
-37.5891
 11
13.4725
 21
-37.4301
  0
LINE
  8
0
 10
13.4725
 20
-37.4301
 11
13.5164
 21
-37.2728
  0
LINE
  8
0
 10
13.5164
 20
-37.2728
 11
13.5669
 21
-37.1174
  0
LINE
  8
0
 10
13.5669
 20
-37.1174
 11
13.6239
 21
-36.9643
  0
LINE
  8
0
 10
13.6239
 20
-36.9643
 11
13.6872
 21
-36.8137
  0
LINE
  8
0
 10
13.6872
 20
-36.8137
 11
13.7567
 21
-36.6659
  0
LINE
  8
0
 10
13.7567
 20
-36.6659
 11
13.8324
 21
-36.5211
  0
LINE
  8
0
 10
13.8324
 20
-36.5211
 11
13.9141
 21
-36.3797
  0
LINE
  8
0
 10
13.9141
 20
-36.3797
 11
14.0016
 21
-36.2418
  0
LINE
  8
0
 10
14.0016
 20
-36.2418
 11
14.0948
 21
-36.1076
  0
LINE
  8
0
 10
14.0948
 20
-36.1076
 11
14.1936
 21
-35.9775
  0
LINE
  8
0
 10
14.1936
 20
-35.9775
 11
14.2977
 21
-35.8517
  0
LINE
  8
0
 10
14.2977
 20
-35.8517
 11
14.407
 21
-35.7303
  0
LINE
  8
0
 10
14.407
 20
-35.7303
 11
14.5213
 21
-35.6136
  0
LINE
  8
0
 10
14.5213
 20
-35.6136
 11
14.6404
 21
-35.5017
  0
LINE
  8
0
 10
14.6404
 20
-35.5017
 11
14.764
 21
-35.395
  0
LINE
  8
0
 10
14.764
 20
-35.395
 11
14.8921
 21
-35.2935
  0
LINE
  8
0
 10
14.8921
 20
-35.2935
 11
15.0242
 21
-35.1975
  0
LINE
  8
0
 10
15.0242
 20
-35.1975
 11
15.1603
 21
-35.1071
  0
LINE
  8
0
 10
15.1603
 20
-35.1071
 11
15.3
 21
-35.0225
  0
LINE
  8
0
 10
15.3
 20
-35.0225
 11
15.4431
 21
-34.9438
  0
LINE
  8
0
 10
15.4431
 20
-34.9438
 11
15.5894
 21
-34.8712
  0
LINE
  8
0
 10
15.5894
 20
-34.8712
 11
15.7387
 21
-34.8047
  0
LINE
  8
0
 10
15.7387
 20
-34.8047
 11
15.8906
 21
-34.7446
  0
LINE
  8
0
 10
15.8906
 20
-34.7446
 11
16.0448
 21
-34.6909
  0
LINE
  8
0
 10
16.0448
 20
-34.6909
 11
16.2012
 21
-34.6437
  0
LINE
  8
0
 10
16.2012
 20
-34.6437
 11
16.3594
 21
-34.603
  0
LINE
  8
0
 10
16.3594
 20
-34.603
 11
16.5192
 21
-34.5691
  0
LINE
  8
0
 10
16.5192
 20
-34.5691
 11
16.6803
 21
-34.5418
  0
LINE
  8
0
 10
16.6803
 20
-34.5418
 11
16.8423
 21
-34.5214
  0
LINE
  8
0
 10
16.8423
 20
-34.5214
 11
17.0051
 21
-34.5077
  0
LINE
  8
0
 10
17.0051
 20
-34.5077
 11
17.1683
 21
-34.5009
  0
LINE
  8
0
 10
17.1683
 20
-34.5009
 11
22.85
 21
-34.5009
  0
LINE
  8
0
 10
22.85
 20
-34.5009
 11
22.85
 21
-12.6112
  0
LINE
  8
0
 10
22.85
 20
-12.6112
 11
22.8716
 21
-12.5738
  0
LINE
  8
0
 10
22.8716
 20
-12.5738
 11
23.3781
 21
-11.605
  0
LINE
  8
0
 10
23.3781
 20
-11.605
 11
23.8435
 21
-10.6158
  0
LINE
  8
0
 10
23.8435
 20
-10.6158
 11
24.2672
 21
-9.60805
  0
LINE
  8
0
 10
24.2672
 20
-9.60805
 11
24.6482
 21
-8.5834
  0
LINE
  8
0
 10
24.6482
 20
-8.5834
 11
24.986
 21
-7.54372
  0
LINE
  8
0
 10
24.986
 20
-7.54372
 11
25.28
 21
-6.4908
  0
LINE
  8
0
 10
25.28
 20
-6.4908
 11
25.5296
 21
-5.42648
  0
LINE
  8
0
 10
25.5296
 20
-5.42648
 11
25.7345
 21
-4.35266
  0
LINE
  8
0
 10
25.7345
 20
-4.35266
 11
25.8942
 21
-3.27119
  0
LINE
  8
0
 10
25.8942
 20
-3.27119
 11
26.0085
 21
-2.18399
  0
LINE
  8
0
 10
26.0085
 20
-2.18399
 11
26.0771
 21
-1.09294
  0
LINE
  8
0
 10
26.0771
 20
-1.09294
 11
26.1
 21
0
  0
LINE
  8
0
 10
26.1
 20
0
 11
26.0771
 21
1.09294
  0
LINE
  8
0
 10
26.0771
 20
1.09294
 11
26.0085
 21
2.18399
  0
LINE
  8
0
 10
26.0085
 20
2.18399
 11
25.8942
 21
3.27119
  0
LINE
  8
0
 10
25.8942
 20
3.27119
 11
25.7345
 21
4.35266
  0
LINE
  8
0
 10
25.7345
 20
4.35266
 11
25.5296
 21
5.42648
  0
LINE
  8
0
 10
25.5296
 20
5.42648
 11
25.28
 21
6.4908
  0
LINE
  8
0
 10
25.28
 20
6.4908
 11
24.986
 21
7.54372
  0
LINE
  8
0
 10
24.986
 20
7.54372
 11
24.6482
 21
8.5834
  0
LINE
  8
0
 10
24.6482
 20
8.5834
 11
24.2672
 21
9.60805
  0
LINE
  8
0
 10
24.2672
 20
9.60805
 11
23.8435
 21
10.6158
  0
LINE
  8
0
 10
23.8435
 20
10.6158
 11
23.3781
 21
11.605
  0
LINE
  8
0
 10
23.3781
 20
11.605
 11
22.8716
 21
12.5738
  0
LINE
  8
0
 10
22.8716
 20
12.5738
 11
22.325
 21
13.5205
  0
LINE
  8
0
 10
22.325
 20
13.5205
 11
21.7392
 21
14.4435
  0
LINE
  8
0
 10
21.7392
 20
14.4435
 11
21.1153
 21
15.3412
  0
LINE
  8
0
 10
21.1153
 20
15.3412
 11
20.4544
 21
16.2119
  0
LINE
  8
0
 10
20.4544
 20
16.2119
 11
19.7576
 21
17.0543
  0
LINE
  8
0
 10
19.7576
 20
17.0543
 11
19.0261
 21
17.8667
  0
LINE
  8
0
 10
19.0261
 20
17.8667
 11
18.2612
 21
18.6477
  0
LINE
  8
0
 10
18.2612
 20
18.6477
 11
17.4643
 21
19.3961
  0
LINE
  8
0
 10
17.4643
 20
19.3961
 11
16.6368
 21
20.1104
  0
LINE
  8
0
 10
16.6368
 20
20.1104
 11
15.78
 21
20.7894
  0
LINE
  8
0
 10
15.78
 20
20.7894
 11
14.8956
 21
21.432
  0
LINE
  8
0
 10
14.8956
 20
21.432
 11
13.9851
 21
22.037
  0
LINE
  8
0
 10
13.9851
 20
22.037
 11
13.05
 21
22.6033
  0
LINE
  8
0
 10
13.05
 20
22.6033
 11
12.092
 21
23.1299
  0
LINE
  8
0
 10
12.092
 20
23.1299
 11
11.1128
 21
23.616
  0
LINE
  8
0
 10
11.1128
 20
23.616
 11
10.1142
 21
24.0606
  0
LINE
  8
0
 10
10.1142
 20
24.0606
 11
9.09772
 21
24.4631
  0
LINE
  8
0
 10
9.09772
 20
24.4631
 11
8.06534
 21
24.8226
  0
LINE
  8
0
 10
8.06534
 20
24.8226
 11
7.0188
 21
25.1385
  0
LINE
  8
0
 10
7.0188
 20
25.1385
 11
5.95995
 21
25.4104
  0
LINE
  8
0
 10
5.95995
 20
25.4104
 11
4.89064
 21
25.6377
  0
LINE
  8
0
 10
4.89064
 20
25.6377
 11
3.81276
 21
25.82
  0
LINE
  8
0
 10
3.81276
 20
25.82
 11
2.72818
 21
25.957
  0
LINE
  8
0
 10
2.72818
 20
25.957
 11
1.63882
 21
26.0485
  0
LINE
  8
0
 10
1.63882
 20
26.0485
 11
0.546585
 21
26.0943
  0
LINE
  8
0
 10
0.546585
 20
26.0943
 11
-0.546585
 21
26.0943
  0
LINE
  8
0
 10
-0.546585
 20
26.0943
 11
-1.63882
 21
26.0485
  0
LINE
  8
0
 10
-1.63882
 20
26.0485
 11
-2.72818
 21
25.957
  0
LINE
  8
0
 10
-2.72818
 20
25.957
 11
-3.81276
 21
25.82
  0
LINE
  8
0
 10
-3.81276
 20
25.82
 11
-4.89064
 21
25.6377
  0
LINE
  8
0
 10
-4.89064
 20
25.6377
 11
-5.95995
 21
25.4104
  0
LINE
  8
0
 10
-5.95995
 20
25.4104
 11
-7.0188
 21
25.1385
  0
LINE
  8
0
 10
-7.0188
 20
25.1385
 11
-8.06534
 21
24.8226
  0
LINE
  8
0
 10
-8.06534
 20
24.8226
 11
-9.09772
 21
24.4631
  0
LINE
  8
0
 10
-9.09772
 20
24.4631
 11
-10.1142
 21
24.0606
  0
LINE
  8
0
 10
-10.1142
 20
24.0606
 11
-11.1128
 21
23.616
  0
LINE
  8
0
 10
-11.1128
 20
23.616
 11
-12.092
 21
23.1299
  0
LINE
  8
0
 10
-12.092
 20
23.1299
 11
-13.05
 21
22.6033
  0
LINE
  8
0
 10
-13.05
 20
22.6033
 11
-13.9851
 21
22.037
  0
LINE
  8
0
 10
-13.9851
 20
22.037
 11
-14.8956
 21
21.432
  0
LINE
  8
0
 10
-14.8956
 20
21.432
 11
-15.78
 21
20.7894
  0
LINE
  8
0
 10
-15.78
 20
20.7894
 11
-16.6368
 21
20.1104
  0
LINE
  8
0
 10
-16.6368
 20
20.1104
 11
-17.4643
 21
19.3961
  0
LINE
  8
0
 10
-17.4643
 20
19.3961
 11
-18.2612
 21
18.6477
  0
LINE
  8
0
 10
-18.2612
 20
18.6477
 11
-19.0261
 21
17.8667
  0
LINE
  8
0
 10
-19.0261
 20
17.8667
 11
-19.7576
 21
17.0543
  0
LINE
  8
0
 10
-19.7576
 20
17.0543
 11
-20.4544
 21
16.2119
  0
LINE
  8
0
 10
-20.4544
 20
16.2119
 11
-21.1153
 21
15.3412
  0
LINE
  8
0
 10
-21.1153
 20
15.3412
 11
-21.7392
 21
14.4435
  0
LINE
  8
0
 10
-21.7392
 20
14.4435
 11
-22.325
 21
13.5205
  0
LINE
  8
0
 10
-22.325
 20
13.5205
 11
-22.8716
 21
12.5738
  0
LINE
  8
0
 10
-22.8716
 20
12.5738
 11
-23.3781
 21
11.605
  0
LINE
  8
0
 10
-23.3781
 20
11.605
 11
-23.8435
 21
10.6158
  0
LINE
  8
0
 10
-23.8435
 20
10.6158
 11
-24.2672
 21
9.60805
  0
LINE
  8
0
 10
-24.2672
 20
9.60805
 11
-24.6482
 21
8.5834
  0
LINE
  8
0
 10
-24.6482
 20
8.5834
 11
-24.986
 21
7.54372
  0
LINE
  8
0
 10
-24.986
 20
7.54372
 11
-25.28
 21
6.4908
  0
LINE
  8
0
 10
-25.28
 20
6.4908
 11
-25.5296
 21
5.42648
  0
LINE
  8
0
 10
-25.5296
 20
5.42648
 11
-25.7345
 21
4.35266
  0
LINE
  8
0
 10
-25.7345
 20
4.35266
 11
-25.8942
 21
3.27119
  0
LINE
  8
0
 10
-25.8942
 20
3.27119
 11
-26.0085
 21
2.18399
  0
LINE
  8
0
 10
-26.0085
 20
2.18399
 11
-26.0771
 21
1.09294
  0
LINE
  8
0
 10
-26.0771
 20
1.09294
 11
-26.1
 21
0
  0
LINE
  8
0
 10
-26.1
 20
0
 11
-26.0771
 21
-1.09294
  0
LINE
  8
0
 10
-26.0771
 20
-1.09294
 11
-26.0085
 21
-2.18399
  0
LINE
  8
0
 10
-26.0085
 20
-2.18399
 11
-25.8942
 21
-3.27119
  0
LINE
  8
0
 10
-25.8942
 20
-3.27119
 11
-25.7345
 21
-4.35266
  0
LINE
  8
0
 10
-25.7345
 20
-4.35266
 11
-25.5296
 21
-5.42648
  0
LINE
  8
0
 10
-25.5296
 20
-5.42648
 11
-25.28
 21
-6.4908
  0
LINE
  8
0
 10
-25.28
 20
-6.4908
 11
-24.986
 21
-7.54372
  0
LINE
  8
0
 10
-24.986
 20
-7.54372
 11
-24.6482
 21
-8.5834
  0
LINE
  8
0
 10
-24.6482
 20
-8.5834
 11
-24.2672
 21
-9.60805
  0
LINE
  8
0
 10
-24.2672
 20
-9.60805
 11
-23.8435
 21
-10.6158
  0
LINE
  8
0
 10
-23.8435
 20
-10.6158
 11
-23.3781
 21
-11.605
  0
LINE
  8
0
 10
-23.3781
 20
-11.605
 11
-22.8716
 21
-12.5738
  0
LINE
  8
0
 10
-22.8716
 20
-12.5738
 11
-22.85
 21
-12.6112
  0
LINE
  8
0
 10
-22.85
 20
-12.6112
 11
-22.85
 21
-34.5009
  0
LINE
  8
0
 10
-22.85
 20
-34.5009
 11
-17.1683
 21
-34.5009
  0
LINE
  8
0
 10
-17.1683
 20
-34.5009
 11
-17.0051
 21
-34.5077
  0
LINE
  8
0
 10
-17.0051
 20
-34.5077
 11
-16.8423
 21
-34.5214
  0
LINE
  8
0
 10
-16.8423
 20
-34.5214
 11
-16.6803
 21
-34.5418
  0
LINE
  8
0
 10
-16.6803
 20
-34.5418
 11
-16.5192
 21
-34.5691
  0
LINE
  8
0
 10
-16.5192
 20
-34.5691
 11
-16.3594
 21
-34.603
  0
LINE
  8
0
 10
-16.3594
 20
-34.603
 11
-16.2012
 21
-34.6437
  0
LINE
  8
0
 10
-16.2012
 20
-34.6437
 11
-16.0448
 21
-34.6909
  0
LINE
  8
0
 10
-16.0448
 20
-34.6909
 11
-15.8906
 21
-34.7446
  0
LINE
  8
0
 10
-15.8906
 20
-34.7446
 11
-15.7387
 21
-34.8047
  0
LINE
  8
0
 10
-15.7387
 20
-34.8047
 11
-15.5894
 21
-34.8712
  0
LINE
  8
0
 10
-15.5894
 20
-34.8712
 11
-15.4431
 21
-34.9438
  0
LINE
  8
0
 10
-15.4431
 20
-34.9438
 11
-15.3
 21
-35.0225
  0
LINE
  8
0
 10
-15.3
 20
-35.0225
 11
-15.1603
 21
-35.1071
  0
LINE
  8
0
 10
-15.1603
 20
-35.1071
 11
-15.0242
 21
-35.1975
  0
LINE
  8
0
 10
-15.0242
 20
-35.1975
 11
-14.8921
 21
-35.2935
  0
LINE
  8
0
 10
-14.8921
 20
-35.2935
 11
-14.764
 21
-35.395
  0
LINE
  8
0
 10
-14.764
 20
-35.395
 11
-14.6404
 21
-35.5017
  0
LINE
  8
0
 10
-14.6404
 20
-35.5017
 11
-14.5213
 21
-35.6136
  0
LINE
  8
0
 10
-14.5213
 20
-35.6136
 11
-14.407
 21
-35.7303
  0
LINE
  8
0
 10
-14.407
 20
-35.7303
 11
-14.2977
 21
-35.8517
  0
LINE
  8
0
 10
-14.2977
 20
-35.8517
 11
-14.1936
 21
-35.9775
  0
LINE
  8
0
 10
-14.1936
 20
-35.9775
 11
-14.0948
 21
-36.1076
  0
LINE
  8
0
 10
-14.0948
 20
-36.1076
 11
-14.0016
 21
-36.2418
  0
LINE
  8
0
 10
-14.0016
 20
-36.2418
 11
-13.9141
 21
-36.3797
  0
LINE
  8
0
 10
-13.9141
 20
-36.3797
 11
-13.8324
 21
-36.5211
  0
LINE
  8
0
 10
-13.8324
 20
-36.5211
 11
-13.7567
 21
-36.6659
  0
LINE
  8
0
 10
-13.7567
 20
-36.6659
 11
-13.6872
 21
-36.8137
  0
LINE
  8
0
 10
-13.6872
 20
-36.8137
 11
-13.6239
 21
-36.9643
  0
LINE
  8
0
 10
-13.6239
 20
-36.9643
 11
-13.5669
 21
-37.1174
  0
LINE
  8
0
 10
-13.5669
 20
-37.1174
 11
-13.5164
 21
-37.2728
  0
LINE
  8
0
 10
-13.5164
 20
-37.2728
 11
-13.4725
 21
-37.4301
  0
LINE
  8
0
 10
-13.4725
 20
-37.4301
 11
-13.4352
 21
-37.5891
  0
LINE
  8
0
 10
-13.4352
 20
-37.5891
 11
-13.4046
 21
-37.7496
  0
LINE
  8
0
 10
-13.4046
 20
-37.7496
 11
-13.3808
 21
-37.9112
  0
LINE
  8
0
 10
-13.3808
 20
-37.9112
 11
-13.3637
 21
-38.0737
  0
LINE
  8
0
 10
-13.3637
 20
-38.0737
 11
-13.3534
 21
-38.2367
  0
LINE
  8
0
 10
-13.3534
 20
-38.2367
 11
-13.35
 21
-38.4
  0
LINE
  8
0
 10
-13.35
 20
-38.4
 11
-13.3534
 21
-38.5633
  0
LINE
  8
0
 10
-13.3534
 20
-38.5633
 11
-13.3637
 21
-38.7263
  0
LINE
  8
0
 10
-13.3637
 20
-38.7263
 11
-13.3808
 21
-38.8888
  0
LINE
  8
0
 10
-13.3808
 20
-38.8888
 11
-13.4046
 21
-39.0504
  0
LINE
  8
0
 10
-13.4046
 20
-39.0504
 11
-13.4352
 21
-39.2108
  0
LINE
  8
0
 10
-13.4352
 20
-39.2108
 11
-13.4725
 21
-39.3699
  0
LINE
  8
0
 10
-13.4725
 20
-39.3699
 11
-13.5164
 21
-39.5272
  0
LINE
  8
0
 10
-13.5164
 20
-39.5272
 11
-13.5669
 21
-39.6826
  0
LINE
  8
0
 10
-13.5669
 20
-39.6826
 11
-13.6239
 21
-39.8357
  0
LINE
  8
0
 10
-13.6239
 20
-39.8357
 11
-13.6872
 21
-39.9863
  0
LINE
  8
0
 10
-13.6872
 20
-39.9863
 11
-13.7567
 21
-40.1341
  0
LINE
  8
0
 10
-13.7567
 20
-40.1341
 11
-13.8324
 21
-40.2788
  0
LINE
  8
0
 10
-13.8324
 20
-40.2788
 11
-13.9141
 21
-40.4203
  0
LINE
  8
0
 10
-13.9141
 20
-40.4203
 11
-14.0016
 21
-40.5582
  0
LINE
  8
0
 10
-14.0016
 20
-40.5582
 11
-14.0948
 21
-40.6924
  0
LINE
  8
0
 10
-14.0948
 20
-40.6924
 11
-14.1936
 21
-40.8225
  0
LINE
  8
0
 10
-14.1936
 20
-40.8225
 11
-14.2977
 21
-40.9483
  0
LINE
  8
0
 10
-14.2977
 20
-40.9483
 11
-14.407
 21
-41.0697
  0
LINE
  8
0
 10
-14.407
 20
-41.0697
 11
-14.5213
 21
-41.1864
  0
LINE
  8
0
 10
-14.5213
 20
-41.1864
 11
-14.6404
 21
-41.2983
  0
LINE
  8
0
 10
-14.6404
 20
-41.2983
 11
-14.764
 21
-41.405
  0
LINE
  8
0
 10
-14.764
 20
-41.405
 11
-14.8921
 21
-41.5065
  0
LINE
  8
0
 10
-14.8921
 20
-41.5065
 11
-15.0242
 21
-41.6025
  0
LINE
  8
0
 10
-15.0242
 20
-41.6025
 11
-15.1603
 21
-41.6929
  0
LINE
  8
0
 10
-15.1603
 20
-41.6929
 11
-15.3
 21
-41.7775
  0
LINE
  8
0
 10
-15.3
 20
-41.7775
 11
-15.4431
 21
-41.8562
  0
LINE
  8
0
 10
-15.4431
 20
-41.8562
 11
-15.5894
 21
-41.9288
  0
LINE
  8
0
 10
-15.5894
 20
-41.9288
 11
-15.7387
 21
-41.9953
  0
LINE
  8
0
 10
-15.7387
 20
-41.9953
 11
-15.8906
 21
-42.0554
  0
LINE
  8
0
 10
-15.8906
 20
-42.0554
 11
-16.0448
 21
-42.1091
  0
LINE
  8
0
 10
-16.0448
 20
-42.1091
 11
-16.2012
 21
-42.1563
  0
LINE
  8
0
 10
-16.2012
 20
-42.1563
 11
-16.3594
 21
-42.1969
  0
LINE
  8
0
 10
-16.3594
 20
-42.1969
 11
-16.5192
 21
-42.2309
  0
LINE
  8
0
 10
-16.5192
 20
-42.2309
 11
-16.6803
 21
-42.2581
  0
LINE
  8
0
 10
-16.6803
 20
-42.2581
 11
-16.8423
 21
-42.2786
  0
LINE
  8
0
 10
-16.8423
 20
-42.2786
 11
-17.0051
 21
-42.2923
  0
LINE
  8
0
 10
-17.0051
 20
-42.2923
 11
-17.1683
 21
-42.2991
  0
LINE
  8
0
 10
-17.1683
 20
-42.2991
 11
-22.85
 21
-42.2991
  0
LINE
  8
0
 10
-22.85
 20
-42.2991
 11
-22.85
 21
-44.4
  0
LINE
  8
0
 10
-22.85
 20
-44.4
 11
-14.85
 21
-44.4
  0
LINE
  8
0
 10
-14.85
 20
-44.4
 11
-14.85
 21
-86.9
  0
LINE
  8
0
 10
-14.85
 20
-86.9
 11
14.85
 21
-86.9
  0
LINE
  8
0
 10
14.85
 20
-86.9
 11
14.85
 21
-44.4
  0
LINE
  8
0
 10
-4.33333
 20
19.5
 11
0
 21
23.8333
  0
LINE
  8
0
 10
0
 20
23.8333
 11
4.33333
 21
19.5
  0
LINE
  8
0
 10
4.33333
 20
19.5
 11
0
 21
15.1667
  0
LINE
  8
0
 10
0
 20
15.1667
 11
-4.33333
 21
19.5
  0
LINE
  8
0
 10
-0.270157
 20
-12.8972
 11
-0.809998
 21
-12.8745
  0
LINE
  8
0
 10
-0.809998
 20
-12.8745
 11
-1.3484
 21
-12.8293
  0
LINE
  8
0
 10
-1.3484
 20
-12.8293
 11
-1.88446
 21
-12.7616
  0
LINE
  8
0
 10
-1.88446
 20
-12.7616
 11
-2.41721
 21
-12.6715
  0
LINE
  8
0
 10
-2.41721
 20
-12.6715
 11
-2.94572
 21
-12.5592
  0
LINE
  8
0
 10
-2.94572
 20
-12.5592
 11
-3.46906
 21
-12.4248
  0
LINE
  8
0
 10
-3.46906
 20
-12.4248
 11
-3.98631
 21
-12.2686
  0
LINE
  8
0
 10
-3.98631
 20
-12.2686
 11
-4.49657
 21
-12.0909
  0
LINE
  8
0
 10
-4.49657
 20
-12.0909
 11
-4.99895
 21
-11.892
  0
LINE
  8
0
 10
-4.99895
 20
-11.892
 11
-5.49254
 21
-11.6723
  0
LINE
  8
0
 10
-5.49254
 20
-11.6723
 11
-5.97652
 21
-11.432
  0
LINE
  8
0
 10
-5.97652
 20
-11.432
 11
-6.45
 21
-11.1717
  0
LINE
  8
0
 10
-6.45
 20
-11.1717
 11
-6.91216
 21
-10.8918
  0
LINE
  8
0
 10
-6.91216
 20
-10.8918
 11
-7.3622
 21
-10.5928
  0
LINE
  8
0
 10
-7.3622
 20
-10.5928
 11
-7.79932
 21
-10.2752
  0
LINE
  8
0
 10
-7.79932
 20
-10.2752
 11
-8.22276
 21
-9.93961
  0
LINE
  8
0
 10
-8.22276
 20
-9.93961
 11
-8.63177
 21
-9.58656
  0
LINE
  8
0
 10
-8.63177
 20
-9.58656
 11
-9.02565
 21
-9.21669
  0
LINE
  8
0
 10
-9.02565
 20
-9.21669
 11
-9.40369
 21
-8.83064
  0
LINE
  8
0
 10
-9.40369
 20
-8.83064
 11
-9.76523
 21
-8.42912
  0
LINE
  8
0
 10
-9.76523
 20
-8.42912
 11
-10.1096
 21
-8.0128
  0
LINE
  8
0
 10
-10.1096
 20
-8.0128
 11
-10.4363
 21
-7.58243
  0
LINE
  8
0
 10
-10.4363
 20
-7.58243
 11
-10.7447
 21
-7.13875
  0
LINE
  8
0
 10
-10.7447
 20
-7.13875
 11
-11.0342
 21
-6.68254
  0
LINE
  8
0
 10
-11.0342
 20
-6.68254
 11
-11.3044
 21
-6.21461
  0
LINE
  8
0
 10
-11.3044
 20
-6.21461
 11
-11.5547
 21
-5.73578
  0
LINE
  8
0
 10
-11.5547
 20
-5.73578
 11
-11.7847
 21
-5.2469
  0
LINE
  8
0
 10
-11.7847
 20
-5.2469
 11
-11.9941
 21
-4.74879
  0
LINE
  8
0
 10
-11.9941
 20
-4.74879
 11
-12.1824
 21
-4.24237
  0
LINE
  8
0
 10
-12.1824
 20
-4.24237
 11
-12.3494
 21
-3.7285
  0
LINE
  8
0
 10
-12.3494
 20
-3.7285
 11
-12.4947
 21
-3.2081
  0
LINE
  8
0
 10
-12.4947
 20
-3.2081
 11
-12.6181
 21
-2.68205
  0
LINE
  8
0
 10
-12.6181
 20
-2.68205
 11
-12.7193
 21
-2.15131
  0
LINE
  8
0
 10
-12.7193
 20
-2.15131
 11
-12.7983
 21
-1.61679
  0
LINE
  8
0
 10
-12.7983
 20
-1.61679
 11
-12.8548
 21
-1.07944
  0
LINE
  8
0
 10
-12.8548
 20
-1.07944
 11
-12.8887
 21
-0.540192
  0
LINE
  8
0
 10
-12.8887
 20
-0.540192
 11
-12.9
 21
0
  0
LINE
  8
0
 10
-12.9
 20
0
 11
-12.8887
 21
0.540192
  0
LINE
  8
0
 10
-12.8887
 20
0.540192
 11
-12.8548
 21
1.07944
  0
LINE
  8
0
 10
-12.8548
 20
1.07944
 11
-12.7983
 21
1.61679
  0
LINE
  8
0
 10
-12.7983
 20
1.61679
 11
-12.7193
 21
2.15131
  0
LINE
  8
0
 10
-12.7193
 20
2.15131
 11
-12.6181
 21
2.68205
  0
LINE
  8
0
 10
-12.6181
 20
2.68205
 11
-12.4947
 21
3.2081
  0
LINE
  8
0
 10
-12.4947
 20
3.2081
 11
-12.3494
 21
3.7285
  0
LINE
  8
0
 10
-12.3494
 20
3.7285
 11
-12.1824
 21
4.24237
  0
LINE
  8
0
 10
-12.1824
 20
4.24237
 11
-11.9941
 21
4.74879
  0
LINE
  8
0
 10
-11.9941
 20
4.74879
 11
-11.7847
 21
5.2469
  0
LINE
  8
0
 10
-11.7847
 20
5.2469
 11
-11.5547
 21
5.73578
  0
LINE
  8
0
 10
-11.5547
 20
5.73578
 11
-11.3044
 21
6.21461
  0
LINE
  8
0
 10
-11.3044
 20
6.21461
 11
-11.0342
 21
6.68254
  0
LINE
  8
0
 10
-11.0342
 20
6.68254
 11
-10.7447
 21
7.13875
  0
LINE
  8
0
 10
-10.7447
 20
7.13875
 11
-10.4363
 21
7.58243
  0
LINE
  8
0
 10
-10.4363
 20
7.58243
 11
-10.1096
 21
8.0128
  0
LINE
  8
0
 10
-10.1096
 20
8.0128
 11
-9.76523
 21
8.42912
  0
LINE
  8
0
 10
-9.76523
 20
8.42912
 11
-9.40369
 21
8.83064
  0
LINE
  8
0
 10
-9.40369
 20
8.83064
 11
-9.02565
 21
9.21669
  0
LINE
  8
0
 10
-9.02565
 20
9.21669
 11
-8.63177
 21
9.58656
  0
LINE
  8
0
 10
-8.63177
 20
9.58656
 11
-8.22276
 21
9.93961
  0
LINE
  8
0
 10
-8.22276
 20
9.93961
 11
-7.79932
 21
10.2752
  0
LINE
  8
0
 10
-7.79932
 20
10.2752
 11
-7.3622
 21
10.5928
  0
LINE
  8
0
 10
-7.3622
 20
10.5928
 11
-6.91216
 21
10.8918
  0
LINE
  8
0
 10
-6.91216
 20
10.8918
 11
-6.45
 21
11.1717
  0
LINE
  8
0
 10
-6.45
 20
11.1717
 11
-5.97652
 21
11.432
  0
LINE
  8
0
 10
-5.97652
 20
11.432
 11
-5.49254
 21
11.6723
  0
LINE
  8
0
 10
-5.49254
 20
11.6723
 11
-4.99895
 21
11.892
  0
LINE
  8
0
 10
-4.99895
 20
11.892
 11
-4.49657
 21
12.0909
  0
LINE
  8
0
 10
-4.49657
 20
12.0909
 11
-3.98631
 21
12.2686
  0
LINE
  8
0
 10
-3.98631
 20
12.2686
 11
-3.46906
 21
12.4248
  0
LINE
  8
0
 10
-3.46906
 20
12.4248
 11
-2.94572
 21
12.5592
  0
LINE
  8
0
 10
-2.94572
 20
12.5592
 11
-2.41721
 21
12.6715
  0
LINE
  8
0
 10
-2.41721
 20
12.6715
 11
-1.88446
 21
12.7616
  0
LINE
  8
0
 10
-1.88446
 20
12.7616
 11
-1.3484
 21
12.8293
  0
LINE
  8
0
 10
-1.3484
 20
12.8293
 11
-0.809998
 21
12.8745
  0
LINE
  8
0
 10
-0.809998
 20
12.8745
 11
-0.270157
 21
12.8972
  0
LINE
  8
0
 10
-0.270157
 20
12.8972
 11
0.270157
 21
12.8972
  0
LINE
  8
0
 10
0.270157
 20
12.8972
 11
0.809998
 21
12.8745
  0
LINE
  8
0
 10
0.809998
 20
12.8745
 11
1.3484
 21
12.8293
  0
LINE
  8
0
 10
1.3484
 20
12.8293
 11
1.88446
 21
12.7616
  0
LINE
  8
0
 10
1.88446
 20
12.7616
 11
2.41721
 21
12.6715
  0
LINE
  8
0
 10
2.41721
 20
12.6715
 11
2.94572
 21
12.5592
  0
LINE
  8
0
 10
2.94572
 20
12.5592
 11
3.46906
 21
12.4248
  0
LINE
  8
0
 10
3.46906
 20
12.4248
 11
3.98631
 21
12.2686
  0
LINE
  8
0
 10
3.98631
 20
12.2686
 11
4.49657
 21
12.0909
  0
LINE
  8
0
 10
4.49657
 20
12.0909
 11
4.99895
 21
11.892
  0
LINE
  8
0
 10
4.99895
 20
11.892
 11
5.49254
 21
11.6723
  0
LINE
  8
0
 10
5.49254
 20
11.6723
 11
5.97652
 21
11.432
  0
LINE
  8
0
 10
5.97652
 20
11.432
 11
6.45
 21
11.1717
  0
LINE
  8
0
 10
6.45
 20
11.1717
 11
6.91216
 21
10.8918
  0
LINE
  8
0
 10
6.91216
 20
10.8918
 11
7.3622
 21
10.5928
  0
LINE
  8
0
 10
7.3622
 20
10.5928
 11
7.79932
 21
10.2752
  0
LINE
  8
0
 10
7.79932
 20
10.2752
 11
8.22276
 21
9.93961
  0
LINE
  8
0
 10
8.22276
 20
9.93961
 11
8.63177
 21
9.58656
  0
LINE
  8
0
 10
8.63177
 20
9.58656
 11
9.02565
 21
9.21669
  0
LINE
  8
0
 10
9.02565
 20
9.21669
 11
9.40369
 21
8.83064
  0
LINE
  8
0
 10
9.40369
 20
8.83064
 11
9.76523
 21
8.42912
  0
LINE
  8
0
 10
9.76523
 20
8.42912
 11
10.1096
 21
8.0128
  0
LINE
  8
0
 10
10.1096
 20
8.0128
 11
10.4363
 21
7.58243
  0
LINE
  8
0
 10
10.4363
 20
7.58243
 11
10.7447
 21
7.13875
  0
LINE
  8
0
 10
10.7447
 20
7.13875
 11
11.0342
 21
6.68254
  0
LINE
  8
0
 10
11.0342
 20
6.68254
 11
11.3044
 21
6.21461
  0
LINE
  8
0
 10
11.3044
 20
6.21461
 11
11.5547
 21
5.73578
  0
LINE
  8
0
 10
11.5547
 20
5.73578
 11
11.7847
 21
5.2469
  0
LINE
  8
0
 10
11.7847
 20
5.2469
 11
11.9941
 21
4.74879
  0
LINE
  8
0
 10
11.9941
 20
4.74879
 11
12.1824
 21
4.24237
  0
LINE
  8
0
 10
12.1824
 20
4.24237
 11
12.3494
 21
3.7285
  0
LINE
  8
0
 10
12.3494
 20
3.7285
 11
12.4947
 21
3.2081
  0
LINE
  8
0
 10
12.4947
 20
3.2081
 11
12.6181
 21
2.68205
  0
LINE
  8
0
 10
12.6181
 20
2.68205
 11
12.7193
 21
2.15131
  0
LINE
  8
0
 10
12.7193
 20
2.15131
 11
12.7983
 21
1.61679
  0
LINE
  8
0
 10
12.7983
 20
1.61679
 11
12.8548
 21
1.07944
  0
LINE
  8
0
 10
12.8548
 20
1.07944
 11
12.8887
 21
0.540192
  0
LINE
  8
0
 10
12.8887
 20
0.540192
 11
12.9
 21
0
  0
LINE
  8
0
 10
12.9
 20
0
 11
12.8887
 21
-0.540192
  0
LINE
  8
0
 10
12.8887
 20
-0.540192
 11
12.8548
 21
-1.07944
  0
LINE
  8
0
 10
12.8548
 20
-1.07944
 11
12.7983
 21
-1.61679
  0
LINE
  8
0
 10
12.7983
 20
-1.61679
 11
12.7193
 21
-2.15131
  0
LINE
  8
0
 10
12.7193
 20
-2.15131
 11
12.6181
 21
-2.68205
  0
LINE
  8
0
 10
12.6181
 20
-2.68205
 11
12.4947
 21
-3.2081
  0
LINE
  8
0
 10
12.4947
 20
-3.2081
 11
12.3494
 21
-3.7285
  0
LINE
  8
0
 10
12.3494
 20
-3.7285
 11
12.1824
 21
-4.24237
  0
LINE
  8
0
 10
12.1824
 20
-4.24237
 11
11.9941
 21
-4.74879
  0
LINE
  8
0
 10
11.9941
 20
-4.74879
 11
11.7847
 21
-5.2469
  0
LINE
  8
0
 10
11.7847
 20
-5.2469
 11
11.5547
 21
-5.73578
  0
LINE
  8
0
 10
11.5547
 20
-5.73578
 11
11.3044
 21
-6.21461
  0
LINE
  8
0
 10
11.3044
 20
-6.21461
 11
11.0342
 21
-6.68254
  0
LINE
  8
0
 10
11.0342
 20
-6.68254
 11
10.7447
 21
-7.13875
  0
LINE
  8
0
 10
10.7447
 20
-7.13875
 11
10.4363
 21
-7.58243
  0
LINE
  8
0
 10
10.4363
 20
-7.58243
 11
10.1096
 21
-8.0128
  0
LINE
  8
0
 10
10.1096
 20
-8.0128
 11
9.76523
 21
-8.42912
  0
LINE
  8
0
 10
9.76523
 20
-8.42912
 11
9.40369
 21
-8.83064
  0
LINE
  8
0
 10
9.40369
 20
-8.83064
 11
9.02565
 21
-9.21669
  0
LINE
  8
0
 10
9.02565
 20
-9.21669
 11
8.63177
 21
-9.58656
  0
LINE
  8
0
 10
8.63177
 20
-9.58656
 11
8.22276
 21
-9.93961
  0
LINE
  8
0
 10
8.22276
 20
-9.93961
 11
7.79932
 21
-10.2752
  0
LINE
  8
0
 10
7.79932
 20
-10.2752
 11
7.3622
 21
-10.5928
  0
LINE
  8
0
 10
7.3622
 20
-10.5928
 11
6.91216
 21
-10.8918
  0
LINE
  8
0
 10
6.91216
 20
-10.8918
 11
6.45
 21
-11.1717
  0
LINE
  8
0
 10
6.45
 20
-11.1717
 11
5.97652
 21
-11.432
  0
LINE
  8
0
 10
5.97652
 20
-11.432
 11
5.49254
 21
-11.6723
  0
LINE
  8
0
 10
5.49254
 20
-11.6723
 11
4.99895
 21
-11.892
  0
LINE
  8
0
 10
4.99895
 20
-11.892
 11
4.49657
 21
-12.0909
  0
LINE
  8
0
 10
4.49657
 20
-12.0909
 11
3.98631
 21
-12.2686
  0
LINE
  8
0
 10
3.98631
 20
-12.2686
 11
3.46906
 21
-12.4248
  0
LINE
  8
0
 10
3.46906
 20
-12.4248
 11
2.94572
 21
-12.5592
  0
LINE
  8
0
 10
2.94572
 20
-12.5592
 11
2.41721
 21
-12.6715
  0
LINE
  8
0
 10
2.41721
 20
-12.6715
 11
1.88446
 21
-12.7616
  0
LINE
  8
0
 10
1.88446
 20
-12.7616
 11
1.3484
 21
-12.8293
  0
LINE
  8
0
 10
1.3484
 20
-12.8293
 11
0.809998
 21
-12.8745
  0
LINE
  8
0
 10
0.809998
 20
-12.8745
 11
0.270157
 21
-12.8972
  0
LINE
  8
0
 10
0.270157
 20
-12.8972
 11
-0.270157
 21
-12.8972
  0
LINE
  8
0
 10
87.85
 20
-42.2991
 11
82.1683
 21
-42.2991
  0
LINE
  8
0
 10
82.1683
 20
-42.2991
 11
82.0051
 21
-42.2923
  0
LINE
  8
0
 10
82.0051
 20
-42.2923
 11
81.8423
 21
-42.2786
  0
LINE
  8
0
 10
81.8423
 20
-42.2786
 11
81.6803
 21
-42.2581
  0
LINE
  8
0
 10
81.6803
 20
-42.2581
 11
81.5192
 21
-42.2309
  0
LINE
  8
0
 10
81.5192
 20
-42.2309
 11
81.3594
 21
-42.1969
  0
LINE
  8
0
 10
81.3594
 20
-42.1969
 11
81.2012
 21
-42.1563
  0
LINE
  8
0
 10
81.2012
 20
-42.1563
 11
81.0448
 21
-42.1091
  0
LINE
  8
0
 10
81.0448
 20
-42.1091
 11
80.8906
 21
-42.0554
  0
LINE
  8
0
 10
80.8906
 20
-42.0554
 11
80.7387
 21
-41.9953
  0
LINE
  8
0
 10
80.7387
 20
-41.9953
 11
80.5894
 21
-41.9288
  0
LINE
  8
0
 10
80.5894
 20
-41.9288
 11
80.4431
 21
-41.8562
  0
LINE
  8
0
 10
80.4431
 20
-41.8562
 11
80.3
 21
-41.7775
  0
LINE
  8
0
 10
80.3
 20
-41.7775
 11
80.1603
 21
-41.6929
  0
LINE
  8
0
 10
80.1603
 20
-41.6929
 11
80.0242
 21
-41.6025
  0
LINE
  8
0
 10
80.0242
 20
-41.6025
 11
79.8921
 21
-41.5065
  0
LINE
  8
0
 10
79.8921
 20
-41.5065
 11
79.764
 21
-41.405
  0
LINE
  8
0
 10
79.764
 20
-41.405
 11
79.6404
 21
-41.2983
  0
LINE
  8
0
 10
79.6404
 20
-41.2983
 11
79.5213
 21
-41.1864
  0
LINE
  8
0
 10
79.5213
 20
-41.1864
 11
79.407
 21
-41.0697
  0
LINE
  8
0
 10
79.407
 20
-41.0697
 11
79.2977
 21
-40.9483
  0
LINE
  8
0
 10
79.2977
 20
-40.9483
 11
79.1936
 21
-40.8225
  0
LINE
  8
0
 10
79.1936
 20
-40.8225
 11
79.0948
 21
-40.6924
  0
LINE
  8
0
 10
79.0948
 20
-40.6924
 11
79.0016
 21
-40.5582
  0
LINE
  8
0
 10
79.0016
 20
-40.5582
 11
78.9141
 21
-40.4203
  0
LINE
  8
0
 10
78.9141
 20
-40.4203
 11
78.8324
 21
-40.2788
  0
LINE
  8
0
 10
78.8324
 20
-40.2788
 11
78.7567
 21
-40.1341
  0
LINE
  8
0
 10
78.7567
 20
-40.1341
 11
78.6872
 21
-39.9863
  0
LINE
  8
0
 10
78.6872
 20
-39.9863
 11
78.6239
 21
-39.8357
  0
LINE
  8
0
 10
78.6239
 20
-39.8357
 11
78.5669
 21
-39.6826
  0
LINE
  8
0
 10
78.5669
 20
-39.6826
 11
78.5164
 21
-39.5272
  0
LINE
  8
0
 10
78.5164
 20
-39.5272
 11
78.4725
 21
-39.3699
  0
LINE
  8
0
 10
78.4725
 20
-39.3699
 11
78.4352
 21
-39.2108
  0
LINE
  8
0
 10
78.4352
 20
-39.2108
 11
78.4046
 21
-39.0504
  0
LINE
  8
0
 10
78.4046
 20
-39.0504
 11
78.3808
 21
-38.8888
  0
LINE
  8
0
 10
78.3808
 20
-38.8888
 11
78.3637
 21
-38.7263
  0
LINE
  8
0
 10
78.3637
 20
-38.7263
 11
78.3534
 21
-38.5633
  0
LINE
  8
0
 10
78.3534
 20
-38.5633
 11
78.35
 21
-38.4
  0
LINE
  8
0
 10
78.35
 20
-38.4
 11
78.3534
 21
-38.2367
  0
LINE
  8
0
 10
78.3534
 20
-38.2367
 11
78.3637
 21
-38.0737
  0
LINE
  8
0
 10
78.3637
 20
-38.0737
 11
78.3808
 21
-37.9112
  0
LINE
  8
0
 10
78.3808
 20
-37.9112
 11
78.4046
 21
-37.7496
  0
LINE
  8
0
 10
78.4046
 20
-37.7496
 11
78.4352
 21
-37.5891
  0
LINE
  8
0
 10
78.4352
 20
-37.5891
 11
78.4725
 21
-37.4301
  0
LINE
  8
0
 10
78.4725
 20
-37.4301
 11
78.5164
 21
-37.2728
  0
LINE
  8
0
 10
78.5164
 20
-37.2728
 11
78.5669
 21
-37.1174
  0
LINE
  8
0
 10
78.5669
 20
-37.1174
 11
78.6239
 21
-36.9643
  0
LINE
  8
0
 10
78.6239
 20
-36.9643
 11
78.6872
 21
-36.8137
  0
LINE
  8
0
 10
78.6872
 20
-36.8137
 11
78.7567
 21
-36.6659
  0
LINE
  8
0
 10
78.7567
 20
-36.6659
 11
78.8324
 21
-36.5211
  0
LINE
  8
0
 10
78.8324
 20
-36.5211
 11
78.9141
 21
-36.3797
  0
LINE
  8
0
 10
78.9141
 20
-36.3797
 11
79.0016
 21
-36.2418
  0
LINE
  8
0
 10
79.0016
 20
-36.2418
 11
79.0948
 21
-36.1076
  0
LINE
  8
0
 10
79.0948
 20
-36.1076
 11
79.1936
 21
-35.9775
  0
LINE
  8
0
 10
79.1936
 20
-35.9775
 11
79.2977
 21
-35.8517
  0
LINE
  8
0
 10
79.2977
 20
-35.8517
 11
79.407
 21
-35.7303
  0
LINE
  8
0
 10
79.407
 20
-35.7303
 11
79.5213
 21
-35.6136
  0
LINE
  8
0
 10
79.5213
 20
-35.6136
 11
79.6404
 21
-35.5017
  0
LINE
  8
0
 10
79.6404
 20
-35.5017
 11
79.764
 21
-35.395
  0
LINE
  8
0
 10
79.764
 20
-35.395
 11
79.8921
 21
-35.2935
  0
LINE
  8
0
 10
79.8921
 20
-35.2935
 11
80.0242
 21
-35.1975
  0
LINE
  8
0
 10
80.0242
 20
-35.1975
 11
80.1603
 21
-35.1071
  0
LINE
  8
0
 10
80.1603
 20
-35.1071
 11
80.3
 21
-35.0225
  0
LINE
  8
0
 10
80.3
 20
-35.0225
 11
80.4431
 21
-34.9438
  0
LINE
  8
0
 10
80.4431
 20
-34.9438
 11
80.5894
 21
-34.8712
  0
LINE
  8
0
 10
80.5894
 20
-34.8712
 11
80.7387
 21
-34.8047
  0
LINE
  8
0
 10
80.7387
 20
-34.8047
 11
80.8906
 21
-34.7446
  0
LINE
  8
0
 10
80.8906
 20
-34.7446
 11
81.0448
 21
-34.6909
  0
LINE
  8
0
 10
81.0448
 20
-34.6909
 11
81.2012
 21
-34.6437
  0
LINE
  8
0
 10
81.2012
 20
-34.6437
 11
81.3594
 21
-34.603
  0
LINE
  8
0
 10
81.3594
 20
-34.603
 11
81.5192
 21
-34.5691
  0
LINE
  8
0
 10
81.5192
 20
-34.5691
 11
81.6803
 21
-34.5418
  0
LINE
  8
0
 10
81.6803
 20
-34.5418
 11
81.8423
 21
-34.5214
  0
LINE
  8
0
 10
81.8423
 20
-34.5214
 11
82.0051
 21
-34.5077
  0
LINE
  8
0
 10
82.0051
 20
-34.5077
 11
82.1683
 21
-34.5009
  0
LINE
  8
0
 10
82.1683
 20
-34.5009
 11
87.85
 21
-34.5009
  0
LINE
  8
0
 10
87.85
 20
-34.5009
 11
87.85
 21
-12.6112
  0
LINE
  8
0
 10
87.85
 20
-12.6112
 11
87.8716
 21
-12.5738
  0
LINE
  8
0
 10
87.8716
 20
-12.5738
 11
88.3781
 21
-11.605
  0
LINE
  8
0
 10
88.3781
 20
-11.605
 11
88.8435
 21
-10.6158
  0
LINE
  8
0
 10
88.8435
 20
-10.6158
 11
89.2672
 21
-9.60805
  0
LINE
  8
0
 10
89.2672
 20
-9.60805
 11
89.6482
 21
-8.5834
  0
LINE
  8
0
 10
89.6482
 20
-8.5834
 11
89.986
 21
-7.54372
  0
LINE
  8
0
 10
89.986
 20
-7.54372
 11
90.28
 21
-6.4908
  0
LINE
  8
0
 10
90.28
 20
-6.4908
 11
90.5296
 21
-5.42648
  0
LINE
  8
0
 10
90.5296
 20
-5.42648
 11
90.7345
 21
-4.35266
  0
LINE
  8
0
 10
90.7345
 20
-4.35266
 11
90.8942
 21
-3.27119
  0
LINE
  8
0
 10
90.8942
 20
-3.27119
 11
91.0085
 21
-2.18399
  0
LINE
  8
0
 10
91.0085
 20
-2.18399
 11
91.0771
 21
-1.09294
  0
LINE
  8
0
 10
91.0771
 20
-1.09294
 11
91.1
 21
0
  0
LINE
  8
0
 10
91.1
 20
0
 11
91.0771
 21
1.09294
  0
LINE
  8
0
 10
91.0771
 20
1.09294
 11
91.0085
 21
2.18399
  0
LINE
  8
0
 10
91.0085
 20
2.18399
 11
90.8942
 21
3.27119
  0
LINE
  8
0
 10
90.8942
 20
3.27119
 11
90.7345
 21
4.35266
  0
LINE
  8
0
 10
90.7345
 20
4.35266
 11
90.5296
 21
5.42648
  0
LINE
  8
0
 10
90.5296
 20
5.42648
 11
90.28
 21
6.4908
  0
LINE
  8
0
 10
90.28
 20
6.4908
 11
89.986
 21
7.54372
  0
LINE
  8
0
 10
89.986
 20
7.54372
 11
89.6482
 21
8.5834
  0
LINE
  8
0
 10
89.6482
 20
8.5834
 11
89.2672
 21
9.60805
  0
LINE
  8
0
 10
89.2672
 20
9.60805
 11
88.8435
 21
10.6158
  0
LINE
  8
0
 10
88.8435
 20
10.6158
 11
88.3781
 21
11.605
  0
LINE
  8
0
 10
88.3781
 20
11.605
 11
87.8716
 21
12.5738
  0
LINE
  8
0
 10
87.8716
 20
12.5738
 11
87.325
 21
13.5205
  0
LINE
  8
0
 10
87.325
 20
13.5205
 11
86.7392
 21
14.4435
  0
LINE
  8
0
 10
86.7392
 20
14.4435
 11
86.1153
 21
15.3412
  0
LINE
  8
0
 10
86.1153
 20
15.3412
 11
85.4544
 21
16.2119
  0
LINE
  8
0
 10
85.4544
 20
16.2119
 11
84.7576
 21
17.0543
  0
LINE
  8
0
 10
84.7576
 20
17.0543
 11
84.0261
 21
17.8667
  0
LINE
  8
0
 10
84.0261
 20
17.8667
 11
83.2612
 21
18.6477
  0
LINE
  8
0
 10
83.2612
 20
18.6477
 11
82.4643
 21
19.3961
  0
LINE
  8
0
 10
82.4643
 20
19.3961
 11
81.6368
 21
20.1104
  0
LINE
  8
0
 10
81.6368
 20
20.1104
 11
80.78
 21
20.7894
  0
LINE
  8
0
 10
80.78
 20
20.7894
 11
79.8956
 21
21.432
  0
LINE
  8
0
 10
79.8956
 20
21.432
 11
78.9851
 21
22.037
  0
LINE
  8
0
 10
78.9851
 20
22.037
 11
78.05
 21
22.6033
  0
LINE
  8
0
 10
78.05
 20
22.6033
 11
77.092
 21
23.1299
  0
LINE
  8
0
 10
77.092
 20
23.1299
 11
76.1128
 21
23.616
  0
LINE
  8
0
 10
76.1128
 20
23.616
 11
75.1142
 21
24.0606
  0
LINE
  8
0
 10
75.1142
 20
24.0606
 11
74.0977
 21
24.4631
  0
LINE
  8
0
 10
74.0977
 20
24.4631
 11
73.0653
 21
24.8226
  0
LINE
  8
0
 10
73.0653
 20
24.8226
 11
72.0188
 21
25.1385
  0
LINE
  8
0
 10
72.0188
 20
25.1385
 11
70.9599
 21
25.4104
  0
LINE
  8
0
 10
70.9599
 20
25.4104
 11
69.8906
 21
25.6377
  0
LINE
  8
0
 10
69.8906
 20
25.6377
 11
68.8128
 21
25.82
  0
LINE
  8
0
 10
68.8128
 20
25.82
 11
67.7282
 21
25.957
  0
LINE
  8
0
 10
67.7282
 20
25.957
 11
66.6388
 21
26.0485
  0
LINE
  8
0
 10
66.6388
 20
26.0485
 11
65.5466
 21
26.0943
  0
LINE
  8
0
 10
65.5466
 20
26.0943
 11
64.4534
 21
26.0943
  0
LINE
  8
0
 10
64.4534
 20
26.0943
 11
63.3612
 21
26.0485
  0
LINE
  8
0
 10
63.3612
 20
26.0485
 11
62.2718
 21
25.957
  0
LINE
  8
0
 10
62.2718
 20
25.957
 11
61.1872
 21
25.82
  0
LINE
  8
0
 10
61.1872
 20
25.82
 11
60.1094
 21
25.6377
  0
LINE
  8
0
 10
60.1094
 20
25.6377
 11
59.0401
 21
25.4104
  0
LINE
  8
0
 10
59.0401
 20
25.4104
 11
57.9812
 21
25.1385
  0
LINE
  8
0
 10
57.9812
 20
25.1385
 11
56.9347
 21
24.8226
  0
LINE
  8
0
 10
56.9347
 20
24.8226
 11
55.9023
 21
24.4631
  0
LINE
  8
0
 10
55.9023
 20
24.4631
 11
54.8858
 21
24.0606
  0
LINE
  8
0
 10
54.8858
 20
24.0606
 11
53.8872
 21
23.616
  0
LINE
  8
0
 10
53.8872
 20
23.616
 11
52.908
 21
23.1299
  0
LINE
  8
0
 10
52.908
 20
23.1299
 11
51.95
 21
22.6033
  0
LINE
  8
0
 10
51.95
 20
22.6033
 11
51.0149
 21
22.037
  0
LINE
  8
0
 10
51.0149
 20
22.037
 11
50.1044
 21
21.432
  0
LINE
  8
0
 10
50.1044
 20
21.432
 11
49.22
 21
20.7894
  0
LINE
  8
0
 10
49.22
 20
20.7894
 11
48.3632
 21
20.1104
  0
LINE
  8
0
 10
48.3632
 20
20.1104
 11
47.5357
 21
19.3961
  0
LINE
  8
0
 10
47.5357
 20
19.3961
 11
46.7388
 21
18.6477
  0
LINE
  8
0
 10
46.7388
 20
18.6477
 11
45.9739
 21
17.8667
  0
LINE
  8
0
 10
45.9739
 20
17.8667
 11
45.2424
 21
17.0543
  0
LINE
  8
0
 10
45.2424
 20
17.0543
 11
44.5456
 21
16.2119
  0
LINE
  8
0
 10
44.5456
 20
16.2119
 11
43.8847
 21
15.3412
  0
LINE
  8
0
 10
43.8847
 20
15.3412
 11
43.2608
 21
14.4435
  0
LINE
  8
0
 10
43.2608
 20
14.4435
 11
42.675
 21
13.5205
  0
LINE
  8
0
 10
42.675
 20
13.5205
 11
42.1284
 21
12.5738
  0
LINE
  8
0
 10
42.1284
 20
12.5738
 11
41.6219
 21
11.605
  0
LINE
  8
0
 10
41.6219
 20
11.605
 11
41.1565
 21
10.6158
  0
LINE
  8
0
 10
41.1565
 20
10.6158
 11
40.7328
 21
9.60805
  0
LINE
  8
0
 10
40.7328
 20
9.60805
 11
40.3518
 21
8.5834
  0
LINE
  8
0
 10
40.3518
 20
8.5834
 11
40.014
 21
7.54372
  0
LINE
  8
0
 10
40.014
 20
7.54372
 11
39.72
 21
6.4908
  0
LINE
  8
0
 10
39.72
 20
6.4908
 11
39.4704
 21
5.42648
  0
LINE
  8
0
 10
39.4704
 20
5.42648
 11
39.2655
 21
4.35266
  0
LINE
  8
0
 10
39.2655
 20
4.35266
 11
39.1058
 21
3.27119
  0
LINE
  8
0
 10
39.1058
 20
3.27119
 11
38.9915
 21
2.18399
  0
LINE
  8
0
 10
38.9915
 20
2.18399
 11
38.9229
 21
1.09294
  0
LINE
  8
0
 10
38.9229
 20
1.09294
 11
38.9
 21
0
  0
LINE
  8
0
 10
38.9
 20
0
 11
38.9229
 21
-1.09294
  0
LINE
  8
0
 10
38.9229
 20
-1.09294
 11
38.9915
 21
-2.18399
  0
LINE
  8
0
 10
38.9915
 20
-2.18399
 11
39.1058
 21
-3.27119
  0
LINE
  8
0
 10
39.1058
 20
-3.27119
 11
39.2655
 21
-4.35266
  0
LINE
  8
0
 10
39.2655
 20
-4.35266
 11
39.4704
 21
-5.42648
  0
LINE
  8
0
 10
39.4704
 20
-5.42648
 11
39.72
 21
-6.4908
  0
LINE
  8
0
 10
39.72
 20
-6.4908
 11
40.014
 21
-7.54372
  0
LINE
  8
0
 10
40.014
 20
-7.54372
 11
40.3518
 21
-8.5834
  0
LINE
  8
0
 10
40.3518
 20
-8.5834
 11
40.7328
 21
-9.60805
  0
LINE
  8
0
 10
40.7328
 20
-9.60805
 11
41.1565
 21
-10.6158
  0
LINE
  8
0
 10
41.1565
 20
-10.6158
 11
41.6219
 21
-11.605
  0
LINE
  8
0
 10
41.6219
 20
-11.605
 11
42.1284
 21
-12.5738
  0
LINE
  8
0
 10
42.1284
 20
-12.5738
 11
42.15
 21
-12.6112
  0
LINE
  8
0
 10
42.15
 20
-12.6112
 11
42.15
 21
-34.5009
  0
LINE
  8
0
 10
42.15
 20
-34.5009
 11
47.8317
 21
-34.5009
  0
LINE
  8
0
 10
47.8317
 20
-34.5009
 11
47.9949
 21
-34.5077
  0
LINE
  8
0
 10
47.9949
 20
-34.5077
 11
48.1577
 21
-34.5214
  0
LINE
  8
0
 10
48.1577
 20
-34.5214
 11
48.3197
 21
-34.5418
  0
LINE
  8
0
 10
48.3197
 20
-34.5418
 11
48.4808
 21
-34.5691
  0
LINE
  8
0
 10
48.4808
 20
-34.5691
 11
48.6406
 21
-34.603
  0
LINE
  8
0
 10
48.6406
 20
-34.603
 11
48.7988
 21
-34.6437
  0
LINE
  8
0
 10
48.7988
 20
-34.6437
 11
48.9552
 21
-34.6909
  0
LINE
  8
0
 10
48.9552
 20
-34.6909
 11
49.1094
 21
-34.7446
  0
LINE
  8
0
 10
49.1094
 20
-34.7446
 11
49.2613
 21
-34.8047
  0
LINE
  8
0
 10
49.2613
 20
-34.8047
 11
49.4106
 21
-34.8712
  0
LINE
  8
0
 10
49.4106
 20
-34.8712
 11
49.5569
 21
-34.9438
  0
LINE
  8
0
 10
49.5569
 20
-34.9438
 11
49.7
 21
-35.0225
  0
LINE
  8
0
 10
49.7
 20
-35.0225
 11
49.8397
 21
-35.1071
  0
LINE
  8
0
 10
49.8397
 20
-35.1071
 11
49.9758
 21
-35.1975
  0
LINE
  8
0
 10
49.9758
 20
-35.1975
 11
50.1079
 21
-35.2935
  0
LINE
  8
0
 10
50.1079
 20
-35.2935
 11
50.236
 21
-35.395
  0
LINE
  8
0
 10
50.236
 20
-35.395
 11
50.3596
 21
-35.5017
  0
LINE
  8
0
 10
50.3596
 20
-35.5017
 11
50.4787
 21
-35.6136
  0
LINE
  8
0
 10
50.4787
 20
-35.6136
 11
50.593
 21
-35.7303
  0
LINE
  8
0
 10
50.593
 20
-35.7303
 11
50.7023
 21
-35.8517
  0
LINE
  8
0
 10
50.7023
 20
-35.8517
 11
50.8064
 21
-35.9775
  0
LINE
  8
0
 10
50.8064
 20
-35.9775
 11
50.9052
 21
-36.1076
  0
LINE
  8
0
 10
50.9052
 20
-36.1076
 11
50.9984
 21
-36.2418
  0
LINE
  8
0
 10
50.9984
 20
-36.2418
 11
51.0859
 21
-36.3797
  0
LINE
  8
0
 10
51.0859
 20
-36.3797
 11
51.1676
 21
-36.5211
  0
LINE
  8
0
 10
51.1676
 20
-36.5211
 11
51.2433
 21
-36.6659
  0
LINE
  8
0
 10
51.2433
 20
-36.6659
 11
51.3128
 21
-36.8137
  0
LINE
  8
0
 10
51.3128
 20
-36.8137
 11
51.3761
 21
-36.9643
  0
LINE
  8
0
 10
51.3761
 20
-36.9643
 11
51.4331
 21
-37.1174
  0
LINE
  8
0
 10
51.4331
 20
-37.1174
 11
51.4836
 21
-37.2728
  0
LINE
  8
0
 10
51.4836
 20
-37.2728
 11
51.5275
 21
-37.4301
  0
LINE
  8
0
 10
51.5275
 20
-37.4301
 11
51.5648
 21
-37.5891
  0
LINE
  8
0
 10
51.5648
 20
-37.5891
 11
51.5954
 21
-37.7496
  0
LINE
  8
0
 10
51.5954
 20
-37.7496
 11
51.6192
 21
-37.9112
  0
LINE
  8
0
 10
51.6192
 20
-37.9112
 11
51.6363
 21
-38.0737
  0
LINE
  8
0
 10
51.6363
 20
-38.0737
 11
51.6466
 21
-38.2367
  0
LINE
  8
0
 10
51.6466
 20
-38.2367
 11
51.65
 21
-38.4
  0
LINE
  8
0
 10
51.65
 20
-38.4
 11
51.6466
 21
-38.5633
  0
LINE
  8
0
 10
51.6466
 20
-38.5633
 11
51.6363
 21
-38.7263
  0
LINE
  8
0
 10
51.6363
 20
-38.7263
 11
51.6192
 21
-38.8888
  0
LINE
  8
0
 10
51.6192
 20
-38.8888
 11
51.5954
 21
-39.0504
  0
LINE
  8
0
 10
51.5954
 20
-39.0504
 11
51.5648
 21
-39.2108
  0
LINE
  8
0
 10
51.5648
 20
-39.2108
 11
51.5275
 21
-39.3699
  0
LINE
  8
0
 10
51.5275
 20
-39.3699
 11
51.4836
 21
-39.5272
  0
LINE
  8
0
 10
51.4836
 20
-39.5272
 11
51.4331
 21
-39.6826
  0
LINE
  8
0
 10
51.4331
 20
-39.6826
 11
51.3761
 21
-39.8357
  0
LINE
  8
0
 10
51.3761
 20
-39.8357
 11
51.3128
 21
-39.9863
  0
LINE
  8
0
 10
51.3128
 20
-39.9863
 11
51.2433
 21
-40.1341
  0
LINE
  8
0
 10
51.2433
 20
-40.1341
 11
51.1676
 21
-40.2788
  0
LINE
  8
0
 10
51.1676
 20
-40.2788
 11
51.0859
 21
-40.4203
  0
LINE
  8
0
 10
51.0859
 20
-40.4203
 11
50.9984
 21
-40.5582
  0
LINE
  8
0
 10
50.9984
 20
-40.5582
 11
50.9052
 21
-40.6924
  0
LINE
  8
0
 10
50.9052
 20
-40.6924
 11
50.8064
 21
-40.8225
  0
LINE
  8
0
 10
50.8064
 20
-40.8225
 11
50.7023
 21
-40.9483
  0
LINE
  8
0
 10
50.7023
 20
-40.9483
 11
50.593
 21
-41.0697
  0
LINE
  8
0
 10
50.593
 20
-41.0697
 11
50.4787
 21
-41.1864
  0
LINE
  8
0
 10
50.4787
 20
-41.1864
 11
50.3596
 21
-41.2983
  0
LINE
  8
0
 10
50.3596
 20
-41.2983
 11
50.236
 21
-41.405
  0
LINE
  8
0
 10
50.236
 20
-41.405
 11
50.1079
 21
-41.5065
  0
LINE
  8
0
 10
50.1079
 20
-41.5065
 11
49.9758
 21
-41.6025
  0
LINE
  8
0
 10
49.9758
 20
-41.6025
 11
49.8397
 21
-41.6929
  0
LINE
  8
0
 10
49.8397
 20
-41.6929
 11
49.7
 21
-41.7775
  0
LINE
  8
0
 10
49.7
 20
-41.7775
 11
49.5569
 21
-41.8562
  0
LINE
  8
0
 10
49.5569
 20
-41.8562
 11
49.4106
 21
-41.9288
  0
LINE
  8
0
 10
49.4106
 20
-41.9288
 11
49.2613
 21
-41.9953
  0
LINE
  8
0
 10
49.2613
 20
-41.9953
 11
49.1094
 21
-42.0554
  0
LINE
  8
0
 10
49.1094
 20
-42.0554
 11
48.9552
 21
-42.1091
  0
LINE
  8
0
 10
48.9552
 20
-42.1091
 11
48.7988
 21
-42.1563
  0
LINE
  8
0
 10
48.7988
 20
-42.1563
 11
48.6406
 21
-42.1969
  0
LINE
  8
0
 10
48.6406
 20
-42.1969
 11
48.4808
 21
-42.2309
  0
LINE
  8
0
 10
48.4808
 20
-42.2309
 11
48.3197
 21
-42.2581
  0
LINE
  8
0
 10
48.3197
 20
-42.2581
 11
48.1577
 21
-42.2786
  0
LINE
  8
0
 10
48.1577
 20
-42.2786
 11
47.9949
 21
-42.2923
  0
LINE
  8
0
 10
47.9949
 20
-42.2923
 11
47.8317
 21
-42.2991
  0
LINE
  8
0
 10
47.8317
 20
-42.2991
 11
42.15
 21
-42.2991
  0
LINE
  8
0
 10
42.15
 20
-42.2991
 11
42.15
 21
-44.4
  0
LINE
  8
0
 10
42.15
 20
-44.4
 11
87.85
 21
-44.4
  0
LINE
  8
0
 10
87.85
 20
-44.4
 11
87.85
 21
-42.2991
  0
ENDSEC
  0
SECTION
  2
OBJECTS
  0
DICTIONARY
  0
ENDSEC
  0
EOF
