  0
SECTION
  2
BLOCKS
  0
ENDSEC
  0
SECTION
  2
ENTITIES
  0
LINE
  8
0
 10
22.8139
 20
-27.4901
 11
23.1267
 21
-27.4606
  0
LINE
  8
0
 10
23.1267
 20
-27.4606
 11
23.4369
 21
-27.4114
  0
LINE
  8
0
 10
23.4369
 20
-27.4114
 11
23.7435
 21
-27.3429
  0
LINE
  8
0
 10
23.7435
 20
-27.3429
 11
24.0451
 21
-27.2553
  0
LINE
  8
0
 10
24.0451
 20
-27.2553
 11
24.3406
 21
-27.1489
  0
LINE
  8
0
 10
24.3406
 20
-27.1489
 11
24.6289
 21
-27.0241
  0
LINE
  8
0
 10
24.6289
 20
-27.0241
 11
24.9088
 21
-26.8815
  0
LINE
  8
0
 10
24.9088
 20
-26.8815
 11
25.1791
 21
-26.7216
  0
LINE
  8
0
 10
25.1791
 20
-26.7216
 11
25.4389
 21
-26.5451
  0
LINE
  8
0
 10
25.4389
 20
-26.5451
 11
25.6871
 21
-26.3526
  0
LINE
  8
0
 10
25.6871
 20
-26.3526
 11
25.9227
 21
-26.1448
  0
LINE
  8
0
 10
25.9227
 20
-26.1448
 11
26.1448
 21
-25.9227
  0
LINE
  8
0
 10
26.1448
 20
-25.9227
 11
26.3526
 21
-25.6871
  0
LINE
  8
0
 10
26.3526
 20
-25.6871
 11
26.5451
 21
-25.4389
  0
LINE
  8
0
 10
26.5451
 20
-25.4389
 11
26.7216
 21
-25.1791
  0
LINE
  8
0
 10
26.7216
 20
-25.1791
 11
26.8815
 21
-24.9088
  0
LINE
  8
0
 10
26.8815
 20
-24.9088
 11
27.0241
 21
-24.6289
  0
LINE
  8
0
 10
27.0241
 20
-24.6289
 11
27.1489
 21
-24.3406
  0
LINE
  8
0
 10
27.1489
 20
-24.3406
 11
27.2553
 21
-24.0451
  0
LINE
  8
0
 10
27.2553
 20
-24.0451
 11
27.3429
 21
-23.7435
  0
LINE
  8
0
 10
27.3429
 20
-23.7435
 11
27.4114
 21
-23.4369
  0
LINE
  8
0
 10
27.4114
 20
-23.4369
 11
27.4606
 21
-23.1267
  0
LINE
  8
0
 10
27.4606
 20
-23.1267
 11
27.4901
 21
-22.8139
  0
LINE
  8
0
 10
27.4901
 20
-22.8139
 11
27.5
 21
-22.5
  0
LINE
  8
0
 10
27.5
 20
-22.5
 11
27.5
 21
22.5
  0
LINE
  8
0
 10
27.5
 20
22.5
 11
27.4901
 21
22.8139
  0
LINE
  8
0
 10
27.4901
 20
22.8139
 11
27.4606
 21
23.1267
  0
LINE
  8
0
 10
27.4606
 20
23.1267
 11
27.4114
 21
23.4369
  0
LINE
  8
0
 10
27.4114
 20
23.4369
 11
27.3429
 21
23.7435
  0
LINE
  8
0
 10
27.3429
 20
23.7435
 11
27.2553
 21
24.0451
  0
LINE
  8
0
 10
27.2553
 20
24.0451
 11
27.1489
 21
24.3406
  0
LINE
  8
0
 10
27.1489
 20
24.3406
 11
27.0241
 21
24.6289
  0
LINE
  8
0
 10
27.0241
 20
24.6289
 11
26.8815
 21
24.9088
  0
LINE
  8
0
 10
26.8815
 20
24.9088
 11
26.7216
 21
25.1791
  0
LINE
  8
0
 10
26.7216
 20
25.1791
 11
26.5451
 21
25.4389
  0
LINE
  8
0
 10
26.5451
 20
25.4389
 11
26.3526
 21
25.6871
  0
LINE
  8
0
 10
26.3526
 20
25.6871
 11
26.1448
 21
25.9227
  0
LINE
  8
0
 10
26.1448
 20
25.9227
 11
25.9227
 21
26.1448
  0
LINE
  8
0
 10
25.9227
 20
26.1448
 11
25.6871
 21
26.3526
  0
LINE
  8
0
 10
25.6871
 20
26.3526
 11
25.4389
 21
26.5451
  0
LINE
  8
0
 10
25.4389
 20
26.5451
 11
25.1791
 21
26.7216
  0
LINE
  8
0
 10
25.1791
 20
26.7216
 11
24.9088
 21
26.8815
  0
LINE
  8
0
 10
24.9088
 20
26.8815
 11
24.6289
 21
27.0241
  0
LINE
  8
0
 10
24.6289
 20
27.0241
 11
24.3406
 21
27.1489
  0
LINE
  8
0
 10
24.3406
 20
27.1489
 11
24.0451
 21
27.2553
  0
LINE
  8
0
 10
24.0451
 20
27.2553
 11
23.7435
 21
27.3429
  0
LINE
  8
0
 10
23.7435
 20
27.3429
 11
23.4369
 21
27.4114
  0
LINE
  8
0
 10
23.4369
 20
27.4114
 11
23.1267
 21
27.4606
  0
LINE
  8
0
 10
23.1267
 20
27.4606
 11
22.8139
 21
27.4901
  0
LINE
  8
0
 10
22.8139
 20
27.4901
 11
22.5
 21
27.5
  0
LINE
  8
0
 10
22.5
 20
27.5
 11
-22.5
 21
27.5
  0
LINE
  8
0
 10
-22.5
 20
27.5
 11
-22.8139
 21
27.4901
  0
LINE
  8
0
 10
-22.8139
 20
27.4901
 11
-23.1267
 21
27.4606
  0
LINE
  8
0
 10
-23.1267
 20
27.4606
 11
-23.4369
 21
27.4114
  0
LINE
  8
0
 10
-23.4369
 20
27.4114
 11
-23.7435
 21
27.3429
  0
LINE
  8
0
 10
-23.7435
 20
27.3429
 11
-24.0451
 21
27.2553
  0
LINE
  8
0
 10
-24.0451
 20
27.2553
 11
-24.3406
 21
27.1489
  0
LINE
  8
0
 10
-24.3406
 20
27.1489
 11
-24.6289
 21
27.0241
  0
LINE
  8
0
 10
-24.6289
 20
27.0241
 11
-24.9088
 21
26.8815
  0
LINE
  8
0
 10
-24.9088
 20
26.8815
 11
-25.1791
 21
26.7216
  0
LINE
  8
0
 10
-25.1791
 20
26.7216
 11
-25.4389
 21
26.5451
  0
LINE
  8
0
 10
-25.4389
 20
26.5451
 11
-25.6871
 21
26.3526
  0
LINE
  8
0
 10
-25.6871
 20
26.3526
 11
-25.9227
 21
26.1448
  0
LINE
  8
0
 10
-25.9227
 20
26.1448
 11
-26.1448
 21
25.9227
  0
LINE
  8
0
 10
-26.1448
 20
25.9227
 11
-26.3526
 21
25.6871
  0
LINE
  8
0
 10
-26.3526
 20
25.6871
 11
-26.5451
 21
25.4389
  0
LINE
  8
0
 10
-26.5451
 20
25.4389
 11
-26.7216
 21
25.1791
  0
LINE
  8
0
 10
-26.7216
 20
25.1791
 11
-26.8815
 21
24.9088
  0
LINE
  8
0
 10
-26.8815
 20
24.9088
 11
-27.0241
 21
24.6289
  0
LINE
  8
0
 10
-27.0241
 20
24.6289
 11
-27.1489
 21
24.3406
  0
LINE
  8
0
 10
-27.1489
 20
24.3406
 11
-27.2553
 21
24.0451
  0
LINE
  8
0
 10
-27.2553
 20
24.0451
 11
-27.3429
 21
23.7435
  0
LINE
  8
0
 10
-27.3429
 20
23.7435
 11
-27.4114
 21
23.4369
  0
LINE
  8
0
 10
-27.4114
 20
23.4369
 11
-27.4606
 21
23.1267
  0
LINE
  8
0
 10
-27.4606
 20
23.1267
 11
-27.4901
 21
22.8139
  0
LINE
  8
0
 10
-27.4901
 20
22.8139
 11
-27.5
 21
22.5
  0
LINE
  8
0
 10
-27.5
 20
22.5
 11
-27.5
 21
-22.5
  0
LINE
  8
0
 10
-27.5
 20
-22.5
 11
-27.4901
 21
-22.8139
  0
LINE
  8
0
 10
-27.4901
 20
-22.8139
 11
-27.4606
 21
-23.1267
  0
LINE
  8
0
 10
-27.4606
 20
-23.1267
 11
-27.4114
 21
-23.4369
  0
LINE
  8
0
 10
-27.4114
 20
-23.4369
 11
-27.3429
 21
-23.7435
  0
LINE
  8
0
 10
-27.3429
 20
-23.7435
 11
-27.2553
 21
-24.0451
  0
LINE
  8
0
 10
-27.2553
 20
-24.0451
 11
-27.1489
 21
-24.3406
  0
LINE
  8
0
 10
-27.1489
 20
-24.3406
 11
-27.0241
 21
-24.6289
  0
LINE
  8
0
 10
-27.0241
 20
-24.6289
 11
-26.8815
 21
-24.9088
  0
LINE
  8
0
 10
-26.8815
 20
-24.9088
 11
-26.7216
 21
-25.1791
  0
LINE
  8
0
 10
-26.7216
 20
-25.1791
 11
-26.5451
 21
-25.4389
  0
LINE
  8
0
 10
-26.5451
 20
-25.4389
 11
-26.3526
 21
-25.6871
  0
LINE
  8
0
 10
-26.3526
 20
-25.6871
 11
-26.1448
 21
-25.9227
  0
LINE
  8
0
 10
-26.1448
 20
-25.9227
 11
-25.9227
 21
-26.1448
  0
LINE
  8
0
 10
-25.9227
 20
-26.1448
 11
-25.6871
 21
-26.3526
  0
LINE
  8
0
 10
-25.6871
 20
-26.3526
 11
-25.4389
 21
-26.5451
  0
LINE
  8
0
 10
-25.4389
 20
-26.5451
 11
-25.1791
 21
-26.7216
  0
LINE
  8
0
 10
-25.1791
 20
-26.7216
 11
-24.9088
 21
-26.8815
  0
LINE
  8
0
 10
-24.9088
 20
-26.8815
 11
-24.6289
 21
-27.0241
  0
LINE
  8
0
 10
-24.6289
 20
-27.0241
 11
-24.3406
 21
-27.1489
  0
LINE
  8
0
 10
-24.3406
 20
-27.1489
 11
-24.0451
 21
-27.2553
  0
LINE
  8
0
 10
-24.0451
 20
-27.2553
 11
-23.7435
 21
-27.3429
  0
LINE
  8
0
 10
-23.7435
 20
-27.3429
 11
-23.4369
 21
-27.4114
  0
LINE
  8
0
 10
-23.4369
 20
-27.4114
 11
-23.1267
 21
-27.4606
  0
LINE
  8
0
 10
-23.1267
 20
-27.4606
 11
-22.8139
 21
-27.4901
  0
LINE
  8
0
 10
-22.8139
 20
-27.4901
 11
-22.5
 21
-27.5
  0
LINE
  8
0
 10
-22.5
 20
-27.5
 11
22.5
 21
-27.5
  0
LINE
  8
0
 10
22.5
 20
-27.5
 11
22.8139
 21
-27.4901
  0
LINE
  8
0
 10
-0.809998
 20
-5.87454
 11
-1.61679
 21
-5.79828
  0
LINE
  8
0
 10
-1.61679
 20
-5.79828
 11
-2.41721
 21
-5.67149
  0
LINE
  8
0
 10
-2.41721
 20
-5.67149
 11
-3.2081
 21
-5.49472
  0
LINE
  8
0
 10
-3.2081
 20
-5.49472
 11
-3.98631
 21
-5.26862
  0
LINE
  8
0
 10
-3.98631
 20
-5.26862
 11
-4.74879
 21
-4.99411
  0
LINE
  8
0
 10
-4.74879
 20
-4.99411
 11
-5.49254
 21
-4.67226
  0
LINE
  8
0
 10
-5.49254
 20
-4.67226
 11
-6.21461
 21
-4.30435
  0
LINE
  8
0
 10
-6.21461
 20
-4.30435
 11
-6.91216
 21
-3.89182
  0
LINE
  8
0
 10
-6.91216
 20
-3.89182
 11
-7.58243
 21
-3.43631
  0
LINE
  8
0
 10
-7.58243
 20
-3.43631
 11
-8.22276
 21
-2.93961
  0
LINE
  8
0
 10
-8.22276
 20
-2.93961
 11
-8.83064
 21
-2.40369
  0
LINE
  8
0
 10
-8.83064
 20
-2.40369
 11
-9.40369
 21
-1.83064
  0
LINE
  8
0
 10
-9.40369
 20
-1.83064
 11
-9.93961
 21
-1.22276
  0
LINE
  8
0
 10
-9.93961
 20
-1.22276
 11
-10.4363
 21
-0.582428
  0
LINE
  8
0
 10
-10.4363
 20
-0.582428
 11
-10.8918
 21
0.0878296
  0
LINE
  8
0
 10
-10.8918
 20
0.0878296
 11
-11.3044
 21
0.78537
  0
LINE
  8
0
 10
-11.3044
 20
0.78537
 11
-11.6723
 21
1.50745
  0
LINE
  8
0
 10
-11.6723
 20
1.50745
 11
-11.9941
 21
2.25119
  0
LINE
  8
0
 10
-11.9941
 20
2.25119
 11
-12.2686
 21
3.01367
  0
LINE
  8
0
 10
-12.2686
 20
3.01367
 11
-12.4947
 21
3.79189
  0
LINE
  8
0
 10
-12.4947
 20
3.79189
 11
-12.6715
 21
4.58278
  0
LINE
  8
0
 10
-12.6715
 20
4.58278
 11
-12.7983
 21
5.38319
  0
LINE
  8
0
 10
-12.7983
 20
5.38319
 11
-12.8745
 21
6.18999
  0
LINE
  8
0
 10
-12.8745
 20
6.18999
 11
-12.9
 21
7
  0
LINE
  8
0
 10
-12.9
 20
7
 11
-12.8745
 21
7.81
  0
LINE
  8
0
 10
-12.8745
 20
7.81
 11
-12.7983
 21
8.61679
  0
LINE
  8
0
 10
-12.7983
 20
8.61679
 11
-12.6715
 21
9.41721
  0
LINE
  8
0
 10
-12.6715
 20
9.41721
 11
-12.4947
 21
10.2081
  0
LINE
  8
0
 10
-12.4947
 20
10.2081
 11
-12.2686
 21
10.9863
  0
LINE
  8
0
 10
-12.2686
 20
10.9863
 11
-11.9941
 21
11.7488
  0
LINE
  8
0
 10
-11.9941
 20
11.7488
 11
-11.6723
 21
12.4925
  0
LINE
  8
0
 10
-11.6723
 20
12.4925
 11
-11.3044
 21
13.2146
  0
LINE
  8
0
 10
-11.3044
 20
13.2146
 11
-10.8918
 21
13.9122
  0
LINE
  8
0
 10
-10.8918
 20
13.9122
 11
-10.4363
 21
14.5824
  0
LINE
  8
0
 10
-10.4363
 20
14.5824
 11
-9.93961
 21
15.2228
  0
LINE
  8
0
 10
-9.93961
 20
15.2228
 11
-9.40369
 21
15.8306
  0
LINE
  8
0
 10
-9.40369
 20
15.8306
 11
-8.83064
 21
16.4037
  0
LINE
  8
0
 10
-8.83064
 20
16.4037
 11
-8.22276
 21
16.9396
  0
LINE
  8
0
 10
-8.22276
 20
16.9396
 11
-7.58243
 21
17.4363
  0
LINE
  8
0
 10
-7.58243
 20
17.4363
 11
-6.91216
 21
17.8918
  0
LINE
  8
0
 10
-6.91216
 20
17.8918
 11
-6.21461
 21
18.3044
  0
LINE
  8
0
 10
-6.21461
 20
18.3044
 11
-5.49254
 21
18.6723
  0
LINE
  8
0
 10
-5.49254
 20
18.6723
 11
-4.74879
 21
18.9941
  0
LINE
  8
0
 10
-4.74879
 20
18.9941
 11
-3.98631
 21
19.2686
  0
LINE
  8
0
 10
-3.98631
 20
19.2686
 11
-3.2081
 21
19.4947
  0
LINE
  8
0
 10
-3.2081
 20
19.4947
 11
-2.41721
 21
19.6715
  0
LINE
  8
0
 10
-2.41721
 20
19.6715
 11
-1.61679
 21
19.7983
  0
LINE
  8
0
 10
-1.61679
 20
19.7983
 11
-0.809998
 21
19.8745
  0
LINE
  8
0
 10
-0.809998
 20
19.8745
 11
0
 21
19.9
  0
LINE
  8
0
 10
0
 20
19.9
 11
0.809998
 21
19.8745
  0
LINE
  8
0
 10
0.809998
 20
19.8745
 11
1.61679
 21
19.7983
  0
LINE
  8
0
 10
1.61679
 20
19.7983
 11
2.41721
 21
19.6715
  0
LINE
  8
0
 10
2.41721
 20
19.6715
 11
3.2081
 21
19.4947
  0
LINE
  8
0
 10
3.2081
 20
19.4947
 11
3.98631
 21
19.2686
  0
LINE
  8
0
 10
3.98631
 20
19.2686
 11
4.74879
 21
18.9941
  0
LINE
  8
0
 10
4.74879
 20
18.9941
 11
5.49254
 21
18.6723
  0
LINE
  8
0
 10
5.49254
 20
18.6723
 11
6.21461
 21
18.3044
  0
LINE
  8
0
 10
6.21461
 20
18.3044
 11
6.91216
 21
17.8918
  0
LINE
  8
0
 10
6.91216
 20
17.8918
 11
7.58243
 21
17.4363
  0
LINE
  8
0
 10
7.58243
 20
17.4363
 11
8.22276
 21
16.9396
  0
LINE
  8
0
 10
8.22276
 20
16.9396
 11
8.83064
 21
16.4037
  0
LINE
  8
0
 10
8.83064
 20
16.4037
 11
9.40369
 21
15.8306
  0
LINE
  8
0
 10
9.40369
 20
15.8306
 11
9.93961
 21
15.2228
  0
LINE
  8
0
 10
9.93961
 20
15.2228
 11
10.4363
 21
14.5824
  0
LINE
  8
0
 10
10.4363
 20
14.5824
 11
10.8918
 21
13.9122
  0
LINE
  8
0
 10
10.8918
 20
13.9122
 11
11.3044
 21
13.2146
  0
LINE
  8
0
 10
11.3044
 20
13.2146
 11
11.6723
 21
12.4925
  0
LINE
  8
0
 10
11.6723
 20
12.4925
 11
11.9941
 21
11.7488
  0
LINE
  8
0
 10
11.9941
 20
11.7488
 11
12.2686
 21
10.9863
  0
LINE
  8
0
 10
12.2686
 20
10.9863
 11
12.4947
 21
10.2081
  0
LINE
  8
0
 10
12.4947
 20
10.2081
 11
12.6715
 21
9.41721
  0
LINE
  8
0
 10
12.6715
 20
9.41721
 11
12.7983
 21
8.61679
  0
LINE
  8
0
 10
12.7983
 20
8.61679
 11
12.8745
 21
7.81
  0
LINE
  8
0
 10
12.8745
 20
7.81
 11
12.9
 21
7
  0
LINE
  8
0
 10
12.9
 20
7
 11
12.8745
 21
6.18999
  0
LINE
  8
0
 10
12.8745
 20
6.18999
 11
12.7983
 21
5.38319
  0
LINE
  8
0
 10
12.7983
 20
5.38319
 11
12.6715
 21
4.58278
  0
LINE
  8
0
 10
12.6715
 20
4.58278
 11
12.4947
 21
3.79189
  0
LINE
  8
0
 10
12.4947
 20
3.79189
 11
12.2686
 21
3.01367
  0
LINE
  8
0
 10
12.2686
 20
3.01367
 11
11.9941
 21
2.25119
  0
LINE
  8
0
 10
11.9941
 20
2.25119
 11
11.6723
 21
1.50745
  0
LINE
  8
0
 10
11.6723
 20
1.50745
 11
11.3044
 21
0.78537
  0
LINE
  8
0
 10
11.3044
 20
0.78537
 11
10.8918
 21
0.0878296
  0
LINE
  8
0
 10
10.8918
 20
0.0878296
 11
10.4363
 21
-0.582428
  0
LINE
  8
0
 10
10.4363
 20
-0.582428
 11
9.93961
 21
-1.22276
  0
LINE
  8
0
 10
9.93961
 20
-1.22276
 11
9.40369
 21
-1.83064
  0
LINE
  8
0
 10
9.40369
 20
-1.83064
 11
8.83064
 21
-2.40369
  0
LINE
  8
0
 10
8.83064
 20
-2.40369
 11
8.22276
 21
-2.93961
  0
LINE
  8
0
 10
8.22276
 20
-2.93961
 11
7.58243
 21
-3.43631
  0
LINE
  8
0
 10
7.58243
 20
-3.43631
 11
6.91216
 21
-3.89182
  0
LINE
  8
0
 10
6.91216
 20
-3.89182
 11
6.21461
 21
-4.30435
  0
LINE
  8
0
 10
6.21461
 20
-4.30435
 11
5.49254
 21
-4.67226
  0
LINE
  8
0
 10
5.49254
 20
-4.67226
 11
4.74879
 21
-4.99411
  0
LINE
  8
0
 10
4.74879
 20
-4.99411
 11
3.98631
 21
-5.26862
  0
LINE
  8
0
 10
3.98631
 20
-5.26862
 11
3.2081
 21
-5.49472
  0
LINE
  8
0
 10
3.2081
 20
-5.49472
 11
2.41721
 21
-5.67149
  0
LINE
  8
0
 10
2.41721
 20
-5.67149
 11
1.61679
 21
-5.79828
  0
LINE
  8
0
 10
1.61679
 20
-5.79828
 11
0.809998
 21
-5.87454
  0
LINE
  8
0
 10
0.809998
 20
-5.87454
 11
0
 21
-5.89999
  0
LINE
  8
0
 10
0
 20
-5.89999
 11
-0.809998
 21
-5.87454
  0
LINE
  8
0
 10
-11.5
 20
-20
 11
-11.5
 21
-14
  0
LINE
  8
0
 10
-11.5
 20
-14
 11
11.5
 21
-14
  0
LINE
  8
0
 10
11.5
 20
-14
 11
11.5
 21
-20
  0
LINE
  8
0
 10
11.5
 20
-20
 11
-11.5
 21
-20
  0
LINE
  8
0
 10
87.8139
 20
-27.4901
 11
88.1267
 21
-27.4606
  0
LINE
  8
0
 10
88.1267
 20
-27.4606
 11
88.4369
 21
-27.4114
  0
LINE
  8
0
 10
88.4369
 20
-27.4114
 11
88.7435
 21
-27.3429
  0
LINE
  8
0
 10
88.7435
 20
-27.3429
 11
89.0451
 21
-27.2553
  0
LINE
  8
0
 10
89.0451
 20
-27.2553
 11
89.3406
 21
-27.1489
  0
LINE
  8
0
 10
89.3406
 20
-27.1489
 11
89.6289
 21
-27.0241
  0
LINE
  8
0
 10
89.6289
 20
-27.0241
 11
89.9088
 21
-26.8815
  0
LINE
  8
0
 10
89.9088
 20
-26.8815
 11
90.1791
 21
-26.7216
  0
LINE
  8
0
 10
90.1791
 20
-26.7216
 11
90.4389
 21
-26.5451
  0
LINE
  8
0
 10
90.4389
 20
-26.5451
 11
90.6871
 21
-26.3526
  0
LINE
  8
0
 10
90.6871
 20
-26.3526
 11
90.9227
 21
-26.1448
  0
LINE
  8
0
 10
90.9227
 20
-26.1448
 11
91.1448
 21
-25.9227
  0
LINE
  8
0
 10
91.1448
 20
-25.9227
 11
91.3526
 21
-25.6871
  0
LINE
  8
0
 10
91.3526
 20
-25.6871
 11
91.5451
 21
-25.4389
  0
LINE
  8
0
 10
91.5451
 20
-25.4389
 11
91.7216
 21
-25.1791
  0
LINE
  8
0
 10
91.7216
 20
-25.1791
 11
91.8815
 21
-24.9088
  0
LINE
  8
0
 10
91.8815
 20
-24.9088
 11
92.0241
 21
-24.6289
  0
LINE
  8
0
 10
92.0241
 20
-24.6289
 11
92.1489
 21
-24.3406
  0
LINE
  8
0
 10
92.1489
 20
-24.3406
 11
92.2553
 21
-24.0451
  0
LINE
  8
0
 10
92.2553
 20
-24.0451
 11
92.3429
 21
-23.7435
  0
LINE
  8
0
 10
92.3429
 20
-23.7435
 11
92.4114
 21
-23.4369
  0
LINE
  8
0
 10
92.4114
 20
-23.4369
 11
92.4606
 21
-23.1267
  0
LINE
  8
0
 10
92.4606
 20
-23.1267
 11
92.4901
 21
-22.8139
  0
LINE
  8
0
 10
92.4901
 20
-22.8139
 11
92.5
 21
-22.5
  0
LINE
  8
0
 10
92.5
 20
-22.5
 11
92.5
 21
22.5
  0
LINE
  8
0
 10
92.5
 20
22.5
 11
92.4901
 21
22.8139
  0
LINE
  8
0
 10
92.4901
 20
22.8139
 11
92.4606
 21
23.1267
  0
LINE
  8
0
 10
92.4606
 20
23.1267
 11
92.4114
 21
23.4369
  0
LINE
  8
0
 10
92.4114
 20
23.4369
 11
92.3429
 21
23.7435
  0
LINE
  8
0
 10
92.3429
 20
23.7435
 11
92.2553
 21
24.0451
  0
LINE
  8
0
 10
92.2553
 20
24.0451
 11
92.1489
 21
24.3406
  0
LINE
  8
0
 10
92.1489
 20
24.3406
 11
92.0241
 21
24.6289
  0
LINE
  8
0
 10
92.0241
 20
24.6289
 11
91.8815
 21
24.9088
  0
LINE
  8
0
 10
91.8815
 20
24.9088
 11
91.7216
 21
25.1791
  0
LINE
  8
0
 10
91.7216
 20
25.1791
 11
91.5451
 21
25.4389
  0
LINE
  8
0
 10
91.5451
 20
25.4389
 11
91.3526
 21
25.6871
  0
LINE
  8
0
 10
91.3526
 20
25.6871
 11
91.1448
 21
25.9227
  0
LINE
  8
0
 10
91.1448
 20
25.9227
 11
90.9227
 21
26.1448
  0
LINE
  8
0
 10
90.9227
 20
26.1448
 11
90.6871
 21
26.3526
  0
LINE
  8
0
 10
90.6871
 20
26.3526
 11
90.4389
 21
26.5451
  0
LINE
  8
0
 10
90.4389
 20
26.5451
 11
90.1791
 21
26.7216
  0
LINE
  8
0
 10
90.1791
 20
26.7216
 11
89.9088
 21
26.8815
  0
LINE
  8
0
 10
89.9088
 20
26.8815
 11
89.6289
 21
27.0241
  0
LINE
  8
0
 10
89.6289
 20
27.0241
 11
89.3406
 21
27.1489
  0
LINE
  8
0
 10
89.3406
 20
27.1489
 11
89.0451
 21
27.2553
  0
LINE
  8
0
 10
89.0451
 20
27.2553
 11
88.7435
 21
27.3429
  0
LINE
  8
0
 10
88.7435
 20
27.3429
 11
88.4369
 21
27.4114
  0
LINE
  8
0
 10
88.4369
 20
27.4114
 11
88.1267
 21
27.4606
  0
LINE
  8
0
 10
88.1267
 20
27.4606
 11
87.8139
 21
27.4901
  0
LINE
  8
0
 10
87.8139
 20
27.4901
 11
87.5
 21
27.5
  0
LINE
  8
0
 10
87.5
 20
27.5
 11
42.5
 21
27.5
  0
LINE
  8
0
 10
42.5
 20
27.5
 11
42.1861
 21
27.4901
  0
LINE
  8
0
 10
42.1861
 20
27.4901
 11
41.8733
 21
27.4606
  0
LINE
  8
0
 10
41.8733
 20
27.4606
 11
41.5631
 21
27.4114
  0
LINE
  8
0
 10
41.5631
 20
27.4114
 11
41.2565
 21
27.3429
  0
LINE
  8
0
 10
41.2565
 20
27.3429
 11
40.9549
 21
27.2553
  0
LINE
  8
0
 10
40.9549
 20
27.2553
 11
40.6594
 21
27.1489
  0
LINE
  8
0
 10
40.6594
 20
27.1489
 11
40.3711
 21
27.0241
  0
LINE
  8
0
 10
40.3711
 20
27.0241
 11
40.0912
 21
26.8815
  0
LINE
  8
0
 10
40.0912
 20
26.8815
 11
39.8209
 21
26.7216
  0
LINE
  8
0
 10
39.8209
 20
26.7216
 11
39.5611
 21
26.5451
  0
LINE
  8
0
 10
39.5611
 20
26.5451
 11
39.3129
 21
26.3526
  0
LINE
  8
0
 10
39.3129
 20
26.3526
 11
39.0773
 21
26.1448
  0
LINE
  8
0
 10
39.0773
 20
26.1448
 11
38.8552
 21
25.9227
  0
LINE
  8
0
 10
38.8552
 20
25.9227
 11
38.6474
 21
25.6871
  0
LINE
  8
0
 10
38.6474
 20
25.6871
 11
38.4549
 21
25.4389
  0
LINE
  8
0
 10
38.4549
 20
25.4389
 11
38.2784
 21
25.1791
  0
LINE
  8
0
 10
38.2784
 20
25.1791
 11
38.1185
 21
24.9088
  0
LINE
  8
0
 10
38.1185
 20
24.9088
 11
37.9759
 21
24.6289
  0
LINE
  8
0
 10
37.9759
 20
24.6289
 11
37.8511
 21
24.3406
  0
LINE
  8
0
 10
37.8511
 20
24.3406
 11
37.7447
 21
24.0451
  0
LINE
  8
0
 10
37.7447
 20
24.0451
 11
37.6571
 21
23.7435
  0
LINE
  8
0
 10
37.6571
 20
23.7435
 11
37.5886
 21
23.4369
  0
LINE
  8
0
 10
37.5886
 20
23.4369
 11
37.5394
 21
23.1267
  0
LINE
  8
0
 10
37.5394
 20
23.1267
 11
37.5099
 21
22.8139
  0
LINE
  8
0
 10
37.5099
 20
22.8139
 11
37.5
 21
22.5
  0
LINE
  8
0
 10
37.5
 20
22.5
 11
37.5
 21
-22.5
  0
LINE
  8
0
 10
37.5
 20
-22.5
 11
37.5099
 21
-22.8139
  0
LINE
  8
0
 10
37.5099
 20
-22.8139
 11
37.5394
 21
-23.1267
  0
LINE
  8
0
 10
37.5394
 20
-23.1267
 11
37.5886
 21
-23.4369
  0
LINE
  8
0
 10
37.5886
 20
-23.4369
 11
37.6571
 21
-23.7435
  0
LINE
  8
0
 10
37.6571
 20
-23.7435
 11
37.7447
 21
-24.0451
  0
LINE
  8
0
 10
37.7447
 20
-24.0451
 11
37.8511
 21
-24.3406
  0
LINE
  8
0
 10
37.8511
 20
-24.3406
 11
37.9759
 21
-24.6289
  0
LINE
  8
0
 10
37.9759
 20
-24.6289
 11
38.1185
 21
-24.9088
  0
LINE
  8
0
 10
38.1185
 20
-24.9088
 11
38.2784
 21
-25.1791
  0
LINE
  8
0
 10
38.2784
 20
-25.1791
 11
38.4549
 21
-25.4389
  0
LINE
  8
0
 10
38.4549
 20
-25.4389
 11
38.6474
 21
-25.6871
  0
LINE
  8
0
 10
38.6474
 20
-25.6871
 11
38.8552
 21
-25.9227
  0
LINE
  8
0
 10
38.8552
 20
-25.9227
 11
39.0773
 21
-26.1448
  0
LINE
  8
0
 10
39.0773
 20
-26.1448
 11
39.3129
 21
-26.3526
  0
LINE
  8
0
 10
39.3129
 20
-26.3526
 11
39.5611
 21
-26.5451
  0
LINE
  8
0
 10
39.5611
 20
-26.5451
 11
39.8209
 21
-26.7216
  0
LINE
  8
0
 10
39.8209
 20
-26.7216
 11
40.0912
 21
-26.8815
  0
LINE
  8
0
 10
40.0912
 20
-26.8815
 11
40.3711
 21
-27.0241
  0
LINE
  8
0
 10
40.3711
 20
-27.0241
 11
40.6594
 21
-27.1489
  0
LINE
  8
0
 10
40.6594
 20
-27.1489
 11
40.9549
 21
-27.2553
  0
LINE
  8
0
 10
40.9549
 20
-27.2553
 11
41.2565
 21
-27.3429
  0
LINE
  8
0
 10
41.2565
 20
-27.3429
 11
41.5631
 21
-27.4114
  0
LINE
  8
0
 10
41.5631
 20
-27.4114
 11
41.8733
 21
-27.4606
  0
LINE
  8
0
 10
41.8733
 20
-27.4606
 11
42.1861
 21
-27.4901
  0
LINE
  8
0
 10
42.1861
 20
-27.4901
 11
42.5
 21
-27.5
  0
LINE
  8
0
 10
42.5
 20
-27.5
 11
87.5
 21
-27.5
  0
LINE
  8
0
 10
87.5
 20
-27.5
 11
87.8139
 21
-27.4901
  0
LINE
  8
0
 10
64.1209
 20
-6.97237
 11
63.2453
 21
-6.8896
  0
LINE
  8
0
 10
63.2453
 20
-6.8896
 11
62.3767
 21
-6.75201
  0
LINE
  8
0
 10
62.3767
 20
-6.75201
 11
61.5184
 21
-6.56015
  0
LINE
  8
0
 10
61.5184
 20
-6.56015
 11
60.6738
 21
-6.31479
  0
LINE
  8
0
 10
60.6738
 20
-6.31479
 11
59.8463
 21
-6.01686
  0
LINE
  8
0
 10
59.8463
 20
-6.01686
 11
59.0391
 21
-5.66757
  0
LINE
  8
0
 10
59.0391
 20
-5.66757
 11
58.2555
 21
-5.26828
  0
LINE
  8
0
 10
58.2555
 20
-5.26828
 11
57.4984
 21
-4.82059
  0
LINE
  8
0
 10
57.4984
 20
-4.82059
 11
56.771
 21
-4.32623
  0
LINE
  8
0
 10
56.771
 20
-4.32623
 11
56.0761
 21
-3.78717
  0
LINE
  8
0
 10
56.0761
 20
-3.78717
 11
55.4164
 21
-3.20555
  0
LINE
  8
0
 10
55.4164
 20
-3.20555
 11
54.7944
 21
-2.58365
  0
LINE
  8
0
 10
54.7944
 20
-2.58365
 11
54.2128
 21
-1.92393
  0
LINE
  8
0
 10
54.2128
 20
-1.92393
 11
53.6738
 21
-1.22899
  0
LINE
  8
0
 10
53.6738
 20
-1.22899
 11
53.1794
 21
-0.501572
  0
LINE
  8
0
 10
53.1794
 20
-0.501572
 11
52.7317
 21
0.255447
  0
LINE
  8
0
 10
52.7317
 20
0.255447
 11
52.3324
 21
1.03908
  0
LINE
  8
0
 10
52.3324
 20
1.03908
 11
51.9831
 21
1.84625
  0
LINE
  8
0
 10
51.9831
 20
1.84625
 11
51.6852
 21
2.67375
  0
LINE
  8
0
 10
51.6852
 20
2.67375
 11
51.4398
 21
3.51834
  0
LINE
  8
0
 10
51.4398
 20
3.51834
 11
51.248
 21
4.37665
  0
LINE
  8
0
 10
51.248
 20
4.37665
 11
51.1104
 21
5.24533
  0
LINE
  8
0
 10
51.1104
 20
5.24533
 11
51.0276
 21
6.12093
  0
LINE
  8
0
 10
51.0276
 20
6.12093
 11
51
 21
7
  0
LINE
  8
0
 10
51
 20
7
 11
51.0276
 21
7.87906
  0
LINE
  8
0
 10
51.0276
 20
7.87906
 11
51.1104
 21
8.75465
  0
LINE
  8
0
 10
51.1104
 20
8.75465
 11
51.248
 21
9.62334
  0
LINE
  8
0
 10
51.248
 20
9.62334
 11
51.4398
 21
10.4816
  0
LINE
  8
0
 10
51.4398
 20
10.4816
 11
51.6852
 21
11.3262
  0
LINE
  8
0
 10
51.6852
 20
11.3262
 11
51.9831
 21
12.1537
  0
LINE
  8
0
 10
51.9831
 20
12.1537
 11
52.3324
 21
12.9609
  0
LINE
  8
0
 10
52.3324
 20
12.9609
 11
52.7317
 21
13.7445
  0
LINE
  8
0
 10
52.7317
 20
13.7445
 11
53.1794
 21
14.5016
  0
LINE
  8
0
 10
53.1794
 20
14.5016
 11
53.6738
 21
15.229
  0
LINE
  8
0
 10
53.6738
 20
15.229
 11
54.2128
 21
15.9239
  0
LINE
  8
0
 10
54.2128
 20
15.9239
 11
54.7944
 21
16.5836
  0
LINE
  8
0
 10
54.7944
 20
16.5836
 11
55.4164
 21
17.2056
  0
LINE
  8
0
 10
55.4164
 20
17.2056
 11
56.0761
 21
17.7872
  0
LINE
  8
0
 10
56.0761
 20
17.7872
 11
56.771
 21
18.3262
  0
LINE
  8
0
 10
56.771
 20
18.3262
 11
57.4984
 21
18.8206
  0
LINE
  8
0
 10
57.4984
 20
18.8206
 11
58.2555
 21
19.2683
  0
LINE
  8
0
 10
58.2555
 20
19.2683
 11
59.0391
 21
19.6676
  0
LINE
  8
0
 10
59.0391
 20
19.6676
 11
59.8463
 21
20.0169
  0
LINE
  8
0
 10
59.8463
 20
20.0169
 11
60.6738
 21
20.3148
  0
LINE
  8
0
 10
60.6738
 20
20.3148
 11
61.5184
 21
20.5602
  0
LINE
  8
0
 10
61.5184
 20
20.5602
 11
62.3767
 21
20.752
  0
LINE
  8
0
 10
62.3767
 20
20.752
 11
63.2453
 21
20.8896
  0
LINE
  8
0
 10
63.2453
 20
20.8896
 11
64.1209
 21
20.9724
  0
LINE
  8
0
 10
64.1209
 20
20.9724
 11
65
 21
21
  0
LINE
  8
0
 10
65
 20
21
 11
65.8791
 21
20.9724
  0
LINE
  8
0
 10
65.8791
 20
20.9724
 11
66.7547
 21
20.8896
  0
LINE
  8
0
 10
66.7547
 20
20.8896
 11
67.6233
 21
20.752
  0
LINE
  8
0
 10
67.6233
 20
20.752
 11
68.4816
 21
20.5602
  0
LINE
  8
0
 10
68.4816
 20
20.5602
 11
69.3262
 21
20.3148
  0
LINE
  8
0
 10
69.3262
 20
20.3148
 11
70.1537
 21
20.0169
  0
LINE
  8
0
 10
70.1537
 20
20.0169
 11
70.9609
 21
19.6676
  0
LINE
  8
0
 10
70.9609
 20
19.6676
 11
71.7445
 21
19.2683
  0
LINE
  8
0
 10
71.7445
 20
19.2683
 11
72.5016
 21
18.8206
  0
LINE
  8
0
 10
72.5016
 20
18.8206
 11
73.229
 21
18.3262
  0
LINE
  8
0
 10
73.229
 20
18.3262
 11
73.9239
 21
17.7872
  0
LINE
  8
0
 10
73.9239
 20
17.7872
 11
74.5836
 21
17.2056
  0
LINE
  8
0
 10
74.5836
 20
17.2056
 11
75.2056
 21
16.5836
  0
LINE
  8
0
 10
75.2056
 20
16.5836
 11
75.7872
 21
15.9239
  0
LINE
  8
0
 10
75.7872
 20
15.9239
 11
76.3262
 21
15.229
  0
LINE
  8
0
 10
76.3262
 20
15.229
 11
76.8206
 21
14.5016
  0
LINE
  8
0
 10
76.8206
 20
14.5016
 11
77.2683
 21
13.7445
  0
LINE
  8
0
 10
77.2683
 20
13.7445
 11
77.6676
 21
12.9609
  0
LINE
  8
0
 10
77.6676
 20
12.9609
 11
78.0169
 21
12.1537
  0
LINE
  8
0
 10
78.0169
 20
12.1537
 11
78.3148
 21
11.3262
  0
LINE
  8
0
 10
78.3148
 20
11.3262
 11
78.5602
 21
10.4816
  0
LINE
  8
0
 10
78.5602
 20
10.4816
 11
78.752
 21
9.62334
  0
LINE
  8
0
 10
78.752
 20
9.62334
 11
78.8896
 21
8.75465
  0
LINE
  8
0
 10
78.8896
 20
8.75465
 11
78.9724
 21
7.87906
  0
LINE
  8
0
 10
78.9724
 20
7.87906
 11
79
 21
7
  0
LINE
  8
0
 10
79
 20
7
 11
78.9724
 21
6.12093
  0
LINE
  8
0
 10
78.9724
 20
6.12093
 11
78.8896
 21
5.24533
  0
LINE
  8
0
 10
78.8896
 20
5.24533
 11
78.752
 21
4.37665
  0
LINE
  8
0
 10
78.752
 20
4.37665
 11
78.5602
 21
3.51834
  0
LINE
  8
0
 10
78.5602
 20
3.51834
 11
78.3148
 21
2.67375
  0
LINE
  8
0
 10
78.3148
 20
2.67375
 11
78.0169
 21
1.84625
  0
LINE
  8
0
 10
78.0169
 20
1.84625
 11
77.6676
 21
1.03908
  0
LINE
  8
0
 10
77.6676
 20
1.03908
 11
77.2683
 21
0.255447
  0
LINE
  8
0
 10
77.2683
 20
0.255447
 11
76.8206
 21
-0.501572
  0
LINE
  8
0
 10
76.8206
 20
-0.501572
 11
76.3262
 21
-1.22899
  0
LINE
  8
0
 10
76.3262
 20
-1.22899
 11
75.7872
 21
-1.92393
  0
LINE
  8
0
 10
75.7872
 20
-1.92393
 11
75.2056
 21
-2.58365
  0
LINE
  8
0
 10
75.2056
 20
-2.58365
 11
74.5836
 21
-3.20555
  0
LINE
  8
0
 10
74.5836
 20
-3.20555
 11
73.9239
 21
-3.78717
  0
LINE
  8
0
 10
73.9239
 20
-3.78717
 11
73.229
 21
-4.32623
  0
LINE
  8
0
 10
73.229
 20
-4.32623
 11
72.5016
 21
-4.82059
  0
LINE
  8
0
 10
72.5016
 20
-4.82059
 11
71.7445
 21
-5.26828
  0
LINE
  8
0
 10
71.7445
 20
-5.26828
 11
70.9609
 21
-5.66757
  0
LINE
  8
0
 10
70.9609
 20
-5.66757
 11
70.1537
 21
-6.01686
  0
LINE
  8
0
 10
70.1537
 20
-6.01686
 11
69.3262
 21
-6.31479
  0
LINE
  8
0
 10
69.3262
 20
-6.31479
 11
68.4816
 21
-6.56015
  0
LINE
  8
0
 10
68.4816
 20
-6.56015
 11
67.6233
 21
-6.75201
  0
LINE
  8
0
 10
67.6233
 20
-6.75201
 11
66.7547
 21
-6.8896
  0
LINE
  8
0
 10
66.7547
 20
-6.8896
 11
65.8791
 21
-6.97237
  0
LINE
  8
0
 10
65.8791
 20
-6.97237
 11
65
 21
-7
  0
LINE
  8
0
 10
65
 20
-7
 11
64.1209
 21
-6.97237
  0
LINE
  8
0
 10
46.8
 20
-23
 11
46.8
 21
-11
  0
LINE
  8
0
 10
46.8
 20
-11
 11
85
 21
-11
  0
LINE
  8
0
 10
85
 20
-11
 11
85
 21
-23
  0
LINE
  8
0
 10
85
 20
-23
 11
46.8
 21
-23
  0
ENDSEC
  0
SECTION
  2
OBJECTS
  0
DICTIONARY
  0
ENDSEC
  0
EOF
