  0
SECTION
  2
BLOCKS
  0
ENDSEC
  0
SECTION
  2
ENTITIES
  0
LINE
  8
0
 10
22.75
 20
-42.3991
 11
17.1662
 21
-42.3991
  0
LINE
  8
0
 10
17.1662
 20
-42.3991
 11
16.9988
 21
-42.3921
  0
LINE
  8
0
 10
16.9988
 20
-42.3921
 11
16.8319
 21
-42.3781
  0
LINE
  8
0
 10
16.8319
 20
-42.3781
 11
16.6657
 21
-42.3571
  0
LINE
  8
0
 10
16.6657
 20
-42.3571
 11
16.5005
 21
-42.3291
  0
LINE
  8
0
 10
16.5005
 20
-42.3291
 11
16.3366
 21
-42.2943
  0
LINE
  8
0
 10
16.3366
 20
-42.2943
 11
16.1743
 21
-42.2526
  0
LINE
  8
0
 10
16.1743
 20
-42.2526
 11
16.0139
 21
-42.2042
  0
LINE
  8
0
 10
16.0139
 20
-42.2042
 11
15.8557
 21
-42.1491
  0
LINE
  8
0
 10
15.8557
 20
-42.1491
 11
15.6999
 21
-42.0874
  0
LINE
  8
0
 10
15.6999
 20
-42.0874
 11
15.5469
 21
-42.0193
  0
LINE
  8
0
 10
15.5469
 20
-42.0193
 11
15.3968
 21
-41.9448
  0
LINE
  8
0
 10
15.3968
 20
-41.9448
 11
15.25
 21
-41.8641
  0
LINE
  8
0
 10
15.25
 20
-41.8641
 11
15.1067
 21
-41.7773
  0
LINE
  8
0
 10
15.1067
 20
-41.7773
 11
14.9671
 21
-41.6846
  0
LINE
  8
0
 10
14.9671
 20
-41.6846
 11
14.8316
 21
-41.5861
  0
LINE
  8
0
 10
14.8316
 20
-41.5861
 11
14.7003
 21
-41.482
  0
LINE
  8
0
 10
14.7003
 20
-41.482
 11
14.5735
 21
-41.3726
  0
LINE
  8
0
 10
14.5735
 20
-41.3726
 11
14.4513
 21
-41.2579
  0
LINE
  8
0
 10
14.4513
 20
-41.2579
 11
14.3341
 21
-41.1382
  0
LINE
  8
0
 10
14.3341
 20
-41.1382
 11
14.222
 21
-41.0137
  0
LINE
  8
0
 10
14.222
 20
-41.0137
 11
14.1152
 21
-40.8846
  0
LINE
  8
0
 10
14.1152
 20
-40.8846
 11
14.0139
 21
-40.7511
  0
LINE
  8
0
 10
14.0139
 20
-40.7511
 11
13.9183
 21
-40.6136
  0
LINE
  8
0
 10
13.9183
 20
-40.6136
 11
13.8285
 21
-40.4721
  0
LINE
  8
0
 10
13.8285
 20
-40.4721
 11
13.7448
 21
-40.327
  0
LINE
  8
0
 10
13.7448
 20
-40.327
 11
13.6671
 21
-40.1785
  0
LINE
  8
0
 10
13.6671
 20
-40.1785
 11
13.5958
 21
-40.0269
  0
LINE
  8
0
 10
13.5958
 20
-40.0269
 11
13.5309
 21
-39.8725
  0
LINE
  8
0
 10
13.5309
 20
-39.8725
 11
13.4725
 21
-39.7155
  0
LINE
  8
0
 10
13.4725
 20
-39.7155
 11
13.4207
 21
-39.5561
  0
LINE
  8
0
 10
13.4207
 20
-39.5561
 11
13.3757
 21
-39.3947
  0
LINE
  8
0
 10
13.3757
 20
-39.3947
 11
13.3374
 21
-39.2316
  0
LINE
  8
0
 10
13.3374
 20
-39.2316
 11
13.306
 21
-39.0671
  0
LINE
  8
0
 10
13.306
 20
-39.0671
 11
13.2815
 21
-38.9013
  0
LINE
  8
0
 10
13.2815
 20
-38.9013
 11
13.264
 21
-38.7347
  0
LINE
  8
0
 10
13.264
 20
-38.7347
 11
13.2535
 21
-38.5675
  0
LINE
  8
0
 10
13.2535
 20
-38.5675
 11
13.25
 21
-38.4
  0
LINE
  8
0
 10
13.25
 20
-38.4
 11
13.2535
 21
-38.2325
  0
LINE
  8
0
 10
13.2535
 20
-38.2325
 11
13.264
 21
-38.0653
  0
LINE
  8
0
 10
13.264
 20
-38.0653
 11
13.2815
 21
-37.8987
  0
LINE
  8
0
 10
13.2815
 20
-37.8987
 11
13.306
 21
-37.7329
  0
LINE
  8
0
 10
13.306
 20
-37.7329
 11
13.3374
 21
-37.5683
  0
LINE
  8
0
 10
13.3374
 20
-37.5683
 11
13.3757
 21
-37.4052
  0
LINE
  8
0
 10
13.3757
 20
-37.4052
 11
13.4207
 21
-37.2439
  0
LINE
  8
0
 10
13.4207
 20
-37.2439
 11
13.4725
 21
-37.0845
  0
LINE
  8
0
 10
13.4725
 20
-37.0845
 11
13.5309
 21
-36.9275
  0
LINE
  8
0
 10
13.5309
 20
-36.9275
 11
13.5958
 21
-36.773
  0
LINE
  8
0
 10
13.5958
 20
-36.773
 11
13.6671
 21
-36.6214
  0
LINE
  8
0
 10
13.6671
 20
-36.6214
 11
13.7448
 21
-36.473
  0
LINE
  8
0
 10
13.7448
 20
-36.473
 11
13.8285
 21
-36.3279
  0
LINE
  8
0
 10
13.8285
 20
-36.3279
 11
13.9183
 21
-36.1864
  0
LINE
  8
0
 10
13.9183
 20
-36.1864
 11
14.0139
 21
-36.0489
  0
LINE
  8
0
 10
14.0139
 20
-36.0489
 11
14.1152
 21
-35.9154
  0
LINE
  8
0
 10
14.1152
 20
-35.9154
 11
14.222
 21
-35.7863
  0
LINE
  8
0
 10
14.222
 20
-35.7863
 11
14.3341
 21
-35.6618
  0
LINE
  8
0
 10
14.3341
 20
-35.6618
 11
14.4513
 21
-35.5421
  0
LINE
  8
0
 10
14.4513
 20
-35.5421
 11
14.5735
 21
-35.4274
  0
LINE
  8
0
 10
14.5735
 20
-35.4274
 11
14.7003
 21
-35.3179
  0
LINE
  8
0
 10
14.7003
 20
-35.3179
 11
14.8316
 21
-35.2139
  0
LINE
  8
0
 10
14.8316
 20
-35.2139
 11
14.9671
 21
-35.1154
  0
LINE
  8
0
 10
14.9671
 20
-35.1154
 11
15.1067
 21
-35.0227
  0
LINE
  8
0
 10
15.1067
 20
-35.0227
 11
15.25
 21
-34.9359
  0
LINE
  8
0
 10
15.25
 20
-34.9359
 11
15.3968
 21
-34.8552
  0
LINE
  8
0
 10
15.3968
 20
-34.8552
 11
15.5469
 21
-34.7807
  0
LINE
  8
0
 10
15.5469
 20
-34.7807
 11
15.6999
 21
-34.7125
  0
LINE
  8
0
 10
15.6999
 20
-34.7125
 11
15.8557
 21
-34.6509
  0
LINE
  8
0
 10
15.8557
 20
-34.6509
 11
16.0139
 21
-34.5958
  0
LINE
  8
0
 10
16.0139
 20
-34.5958
 11
16.1743
 21
-34.5473
  0
LINE
  8
0
 10
16.1743
 20
-34.5473
 11
16.3366
 21
-34.5057
  0
LINE
  8
0
 10
16.3366
 20
-34.5057
 11
16.5005
 21
-34.4708
  0
LINE
  8
0
 10
16.5005
 20
-34.4708
 11
16.6657
 21
-34.4429
  0
LINE
  8
0
 10
16.6657
 20
-34.4429
 11
16.8319
 21
-34.4219
  0
LINE
  8
0
 10
16.8319
 20
-34.4219
 11
16.9988
 21
-34.4079
  0
LINE
  8
0
 10
16.9988
 20
-34.4079
 11
17.1662
 21
-34.4009
  0
LINE
  8
0
 10
17.1662
 20
-34.4009
 11
22.75
 21
-34.4009
  0
LINE
  8
0
 10
22.75
 20
-34.4009
 11
22.75
 21
-15.4417
  0
LINE
  8
0
 10
22.75
 20
-15.4417
 11
22.9053
 21
-15.2183
  0
LINE
  8
0
 10
22.9053
 20
-15.2183
 11
23.5225
 21
-14.2457
  0
LINE
  8
0
 10
23.5225
 20
-14.2457
 11
24.0984
 21
-13.2482
  0
LINE
  8
0
 10
24.0984
 20
-13.2482
 11
24.6321
 21
-12.2275
  0
LINE
  8
0
 10
24.6321
 20
-12.2275
 11
25.1225
 21
-11.1853
  0
LINE
  8
0
 10
25.1225
 20
-11.1853
 11
25.5688
 21
-10.1234
  0
LINE
  8
0
 10
25.5688
 20
-10.1234
 11
25.9703
 21
-9.04382
  0
LINE
  8
0
 10
25.9703
 20
-9.04382
 11
26.3263
 21
-7.94836
  0
LINE
  8
0
 10
26.3263
 20
-7.94836
 11
26.636
 21
-6.83896
  0
LINE
  8
0
 10
26.636
 20
-6.83896
 11
26.899
 21
-5.71756
  0
LINE
  8
0
 10
26.899
 20
-5.71756
 11
27.1149
 21
-4.58614
  0
LINE
  8
0
 10
27.1149
 20
-4.58614
 11
27.2831
 21
-3.44666
  0
LINE
  8
0
 10
27.2831
 20
-3.44666
 11
27.4035
 21
-2.30113
  0
LINE
  8
0
 10
27.4035
 20
-2.30113
 11
27.4759
 21
-1.15157
  0
LINE
  8
0
 10
27.4759
 20
-1.15157
 11
27.5
 21
0
  0
LINE
  8
0
 10
27.5
 20
0
 11
27.4759
 21
1.15157
  0
LINE
  8
0
 10
27.4759
 20
1.15157
 11
27.4035
 21
2.30113
  0
LINE
  8
0
 10
27.4035
 20
2.30113
 11
27.2831
 21
3.44666
  0
LINE
  8
0
 10
27.2831
 20
3.44666
 11
27.1149
 21
4.58614
  0
LINE
  8
0
 10
27.1149
 20
4.58614
 11
26.899
 21
5.71756
  0
LINE
  8
0
 10
26.899
 20
5.71756
 11
26.636
 21
6.83896
  0
LINE
  8
0
 10
26.636
 20
6.83896
 11
26.3263
 21
7.94836
  0
LINE
  8
0
 10
26.3263
 20
7.94836
 11
25.9703
 21
9.04382
  0
LINE
  8
0
 10
25.9703
 20
9.04382
 11
25.5688
 21
10.1234
  0
LINE
  8
0
 10
25.5688
 20
10.1234
 11
25.1225
 21
11.1853
  0
LINE
  8
0
 10
25.1225
 20
11.1853
 11
24.6321
 21
12.2275
  0
LINE
  8
0
 10
24.6321
 20
12.2275
 11
24.0984
 21
13.2482
  0
LINE
  8
0
 10
24.0984
 20
13.2482
 11
23.5225
 21
14.2457
  0
LINE
  8
0
 10
23.5225
 20
14.2457
 11
22.9053
 21
15.2183
  0
LINE
  8
0
 10
22.9053
 20
15.2183
 11
22.248
 21
16.1641
  0
LINE
  8
0
 10
22.248
 20
16.1641
 11
21.5516
 21
17.0816
  0
LINE
  8
0
 10
21.5516
 20
17.0816
 11
20.8174
 21
17.9691
  0
LINE
  8
0
 10
20.8174
 20
17.9691
 11
20.0466
 21
18.825
  0
LINE
  8
0
 10
20.0466
 20
18.825
 11
19.2407
 21
19.648
  0
LINE
  8
0
 10
19.2407
 20
19.648
 11
18.4011
 21
20.4365
  0
LINE
  8
0
 10
18.4011
 20
20.4365
 11
17.5292
 21
21.1891
  0
LINE
  8
0
 10
17.5292
 20
21.1891
 11
16.6265
 21
21.9046
  0
LINE
  8
0
 10
16.6265
 20
21.9046
 11
15.6946
 21
22.5816
  0
LINE
  8
0
 10
15.6946
 20
22.5816
 11
14.7352
 21
23.219
  0
LINE
  8
0
 10
14.7352
 20
23.219
 11
13.75
 21
23.8157
  0
LINE
  8
0
 10
13.75
 20
23.8157
 11
12.7406
 21
24.3706
  0
LINE
  8
0
 10
12.7406
 20
24.3706
 11
11.7089
 21
24.8827
  0
LINE
  8
0
 10
11.7089
 20
24.8827
 11
10.6567
 21
25.3512
  0
LINE
  8
0
 10
10.6567
 20
25.3512
 11
9.58572
 21
25.7753
  0
LINE
  8
0
 10
9.58572
 20
25.7753
 11
8.49796
 21
26.1541
  0
LINE
  8
0
 10
8.49796
 20
26.1541
 11
7.39529
 21
26.487
  0
LINE
  8
0
 10
7.39529
 20
26.487
 11
6.27965
 21
26.7734
  0
LINE
  8
0
 10
6.27965
 20
26.7734
 11
5.15298
 21
27.0129
  0
LINE
  8
0
 10
5.15298
 20
27.0129
 11
4.01727
 21
27.205
  0
LINE
  8
0
 10
4.01727
 20
27.205
 11
2.87453
 21
27.3493
  0
LINE
  8
0
 10
2.87453
 20
27.3493
 11
1.72673
 21
27.4457
  0
LINE
  8
0
 10
1.72673
 20
27.4457
 11
0.575912
 21
27.494
  0
LINE
  8
0
 10
0.575912
 20
27.494
 11
-0.575912
 21
27.494
  0
LINE
  8
0
 10
-0.575912
 20
27.494
 11
-1.72673
 21
27.4457
  0
LINE
  8
0
 10
-1.72673
 20
27.4457
 11
-2.87453
 21
27.3493
  0
LINE
  8
0
 10
-2.87453
 20
27.3493
 11
-4.01727
 21
27.205
  0
LINE
  8
0
 10
-4.01727
 20
27.205
 11
-5.15298
 21
27.0129
  0
LINE
  8
0
 10
-5.15298
 20
27.0129
 11
-6.27965
 21
26.7734
  0
LINE
  8
0
 10
-6.27965
 20
26.7734
 11
-7.39529
 21
26.487
  0
LINE
  8
0
 10
-7.39529
 20
26.487
 11
-8.49796
 21
26.1541
  0
LINE
  8
0
 10
-8.49796
 20
26.1541
 11
-9.58572
 21
25.7753
  0
LINE
  8
0
 10
-9.58572
 20
25.7753
 11
-10.6567
 21
25.3512
  0
LINE
  8
0
 10
-10.6567
 20
25.3512
 11
-11.7089
 21
24.8827
  0
LINE
  8
0
 10
-11.7089
 20
24.8827
 11
-12.7406
 21
24.3706
  0
LINE
  8
0
 10
-12.7406
 20
24.3706
 11
-13.75
 21
23.8157
  0
LINE
  8
0
 10
-13.75
 20
23.8157
 11
-14.7352
 21
23.219
  0
LINE
  8
0
 10
-14.7352
 20
23.219
 11
-15.6946
 21
22.5816
  0
LINE
  8
0
 10
-15.6946
 20
22.5816
 11
-16.6265
 21
21.9046
  0
LINE
  8
0
 10
-16.6265
 20
21.9046
 11
-17.5292
 21
21.1891
  0
LINE
  8
0
 10
-17.5292
 20
21.1891
 11
-18.4011
 21
20.4365
  0
LINE
  8
0
 10
-18.4011
 20
20.4365
 11
-19.2407
 21
19.648
  0
LINE
  8
0
 10
-19.2407
 20
19.648
 11
-20.0466
 21
18.825
  0
LINE
  8
0
 10
-20.0466
 20
18.825
 11
-20.8174
 21
17.9691
  0
LINE
  8
0
 10
-20.8174
 20
17.9691
 11
-21.5516
 21
17.0816
  0
LINE
  8
0
 10
-21.5516
 20
17.0816
 11
-22.248
 21
16.1641
  0
LINE
  8
0
 10
-22.248
 20
16.1641
 11
-22.9053
 21
15.2183
  0
LINE
  8
0
 10
-22.9053
 20
15.2183
 11
-23.5225
 21
14.2457
  0
LINE
  8
0
 10
-23.5225
 20
14.2457
 11
-24.0984
 21
13.2482
  0
LINE
  8
0
 10
-24.0984
 20
13.2482
 11
-24.6321
 21
12.2275
  0
LINE
  8
0
 10
-24.6321
 20
12.2275
 11
-25.1225
 21
11.1853
  0
LINE
  8
0
 10
-25.1225
 20
11.1853
 11
-25.5688
 21
10.1234
  0
LINE
  8
0
 10
-25.5688
 20
10.1234
 11
-25.9703
 21
9.04382
  0
LINE
  8
0
 10
-25.9703
 20
9.04382
 11
-26.3263
 21
7.94836
  0
LINE
  8
0
 10
-26.3263
 20
7.94836
 11
-26.636
 21
6.83896
  0
LINE
  8
0
 10
-26.636
 20
6.83896
 11
-26.899
 21
5.71756
  0
LINE
  8
0
 10
-26.899
 20
5.71756
 11
-27.1149
 21
4.58614
  0
LINE
  8
0
 10
-27.1149
 20
4.58614
 11
-27.2831
 21
3.44666
  0
LINE
  8
0
 10
-27.2831
 20
3.44666
 11
-27.4035
 21
2.30113
  0
LINE
  8
0
 10
-27.4035
 20
2.30113
 11
-27.4759
 21
1.15157
  0
LINE
  8
0
 10
-27.4759
 20
1.15157
 11
-27.5
 21
0
  0
LINE
  8
0
 10
-27.5
 20
0
 11
-27.4759
 21
-1.15157
  0
LINE
  8
0
 10
-27.4759
 20
-1.15157
 11
-27.4035
 21
-2.30113
  0
LINE
  8
0
 10
-27.4035
 20
-2.30113
 11
-27.2831
 21
-3.44666
  0
LINE
  8
0
 10
-27.2831
 20
-3.44666
 11
-27.1149
 21
-4.58614
  0
LINE
  8
0
 10
-27.1149
 20
-4.58614
 11
-26.899
 21
-5.71756
  0
LINE
  8
0
 10
-26.899
 20
-5.71756
 11
-26.636
 21
-6.83896
  0
LINE
  8
0
 10
-26.636
 20
-6.83896
 11
-26.3263
 21
-7.94836
  0
LINE
  8
0
 10
-26.3263
 20
-7.94836
 11
-25.9703
 21
-9.04382
  0
LINE
  8
0
 10
-25.9703
 20
-9.04382
 11
-25.5688
 21
-10.1234
  0
LINE
  8
0
 10
-25.5688
 20
-10.1234
 11
-25.1225
 21
-11.1853
  0
LINE
  8
0
 10
-25.1225
 20
-11.1853
 11
-24.6321
 21
-12.2275
  0
LINE
  8
0
 10
-24.6321
 20
-12.2275
 11
-24.0984
 21
-13.2482
  0
LINE
  8
0
 10
-24.0984
 20
-13.2482
 11
-23.5225
 21
-14.2457
  0
LINE
  8
0
 10
-23.5225
 20
-14.2457
 11
-22.9053
 21
-15.2183
  0
LINE
  8
0
 10
-22.9053
 20
-15.2183
 11
-22.75
 21
-15.4417
  0
LINE
  8
0
 10
-22.75
 20
-15.4417
 11
-22.75
 21
-34.4009
  0
LINE
  8
0
 10
-22.75
 20
-34.4009
 11
-17.1662
 21
-34.4009
  0
LINE
  8
0
 10
-17.1662
 20
-34.4009
 11
-16.9988
 21
-34.4079
  0
LINE
  8
0
 10
-16.9988
 20
-34.4079
 11
-16.8319
 21
-34.4219
  0
LINE
  8
0
 10
-16.8319
 20
-34.4219
 11
-16.6657
 21
-34.4429
  0
LINE
  8
0
 10
-16.6657
 20
-34.4429
 11
-16.5005
 21
-34.4708
  0
LINE
  8
0
 10
-16.5005
 20
-34.4708
 11
-16.3366
 21
-34.5057
  0
LINE
  8
0
 10
-16.3366
 20
-34.5057
 11
-16.1743
 21
-34.5473
  0
LINE
  8
0
 10
-16.1743
 20
-34.5473
 11
-16.0139
 21
-34.5958
  0
LINE
  8
0
 10
-16.0139
 20
-34.5958
 11
-15.8557
 21
-34.6509
  0
LINE
  8
0
 10
-15.8557
 20
-34.6509
 11
-15.6999
 21
-34.7125
  0
LINE
  8
0
 10
-15.6999
 20
-34.7125
 11
-15.5469
 21
-34.7807
  0
LINE
  8
0
 10
-15.5469
 20
-34.7807
 11
-15.3968
 21
-34.8552
  0
LINE
  8
0
 10
-15.3968
 20
-34.8552
 11
-15.25
 21
-34.9359
  0
LINE
  8
0
 10
-15.25
 20
-34.9359
 11
-15.1067
 21
-35.0227
  0
LINE
  8
0
 10
-15.1067
 20
-35.0227
 11
-14.9671
 21
-35.1154
  0
LINE
  8
0
 10
-14.9671
 20
-35.1154
 11
-14.8316
 21
-35.2139
  0
LINE
  8
0
 10
-14.8316
 20
-35.2139
 11
-14.7003
 21
-35.3179
  0
LINE
  8
0
 10
-14.7003
 20
-35.3179
 11
-14.5735
 21
-35.4274
  0
LINE
  8
0
 10
-14.5735
 20
-35.4274
 11
-14.4513
 21
-35.5421
  0
LINE
  8
0
 10
-14.4513
 20
-35.5421
 11
-14.3341
 21
-35.6618
  0
LINE
  8
0
 10
-14.3341
 20
-35.6618
 11
-14.222
 21
-35.7863
  0
LINE
  8
0
 10
-14.222
 20
-35.7863
 11
-14.1152
 21
-35.9154
  0
LINE
  8
0
 10
-14.1152
 20
-35.9154
 11
-14.0139
 21
-36.0489
  0
LINE
  8
0
 10
-14.0139
 20
-36.0489
 11
-13.9183
 21
-36.1864
  0
LINE
  8
0
 10
-13.9183
 20
-36.1864
 11
-13.8285
 21
-36.3279
  0
LINE
  8
0
 10
-13.8285
 20
-36.3279
 11
-13.7448
 21
-36.473
  0
LINE
  8
0
 10
-13.7448
 20
-36.473
 11
-13.6671
 21
-36.6214
  0
LINE
  8
0
 10
-13.6671
 20
-36.6214
 11
-13.5958
 21
-36.773
  0
LINE
  8
0
 10
-13.5958
 20
-36.773
 11
-13.5309
 21
-36.9275
  0
LINE
  8
0
 10
-13.5309
 20
-36.9275
 11
-13.4725
 21
-37.0845
  0
LINE
  8
0
 10
-13.4725
 20
-37.0845
 11
-13.4207
 21
-37.2439
  0
LINE
  8
0
 10
-13.4207
 20
-37.2439
 11
-13.3757
 21
-37.4052
  0
LINE
  8
0
 10
-13.3757
 20
-37.4052
 11
-13.3374
 21
-37.5683
  0
LINE
  8
0
 10
-13.3374
 20
-37.5683
 11
-13.306
 21
-37.7329
  0
LINE
  8
0
 10
-13.306
 20
-37.7329
 11
-13.2815
 21
-37.8987
  0
LINE
  8
0
 10
-13.2815
 20
-37.8987
 11
-13.264
 21
-38.0653
  0
LINE
  8
0
 10
-13.264
 20
-38.0653
 11
-13.2535
 21
-38.2325
  0
LINE
  8
0
 10
-13.2535
 20
-38.2325
 11
-13.25
 21
-38.4
  0
LINE
  8
0
 10
-13.25
 20
-38.4
 11
-13.2535
 21
-38.5675
  0
LINE
  8
0
 10
-13.2535
 20
-38.5675
 11
-13.264
 21
-38.7347
  0
LINE
  8
0
 10
-13.264
 20
-38.7347
 11
-13.2815
 21
-38.9013
  0
LINE
  8
0
 10
-13.2815
 20
-38.9013
 11
-13.306
 21
-39.0671
  0
LINE
  8
0
 10
-13.306
 20
-39.0671
 11
-13.3374
 21
-39.2316
  0
LINE
  8
0
 10
-13.3374
 20
-39.2316
 11
-13.3757
 21
-39.3947
  0
LINE
  8
0
 10
-13.3757
 20
-39.3947
 11
-13.4207
 21
-39.5561
  0
LINE
  8
0
 10
-13.4207
 20
-39.5561
 11
-13.4725
 21
-39.7155
  0
LINE
  8
0
 10
-13.4725
 20
-39.7155
 11
-13.5309
 21
-39.8725
  0
LINE
  8
0
 10
-13.5309
 20
-39.8725
 11
-13.5958
 21
-40.0269
  0
LINE
  8
0
 10
-13.5958
 20
-40.0269
 11
-13.6671
 21
-40.1785
  0
LINE
  8
0
 10
-13.6671
 20
-40.1785
 11
-13.7448
 21
-40.327
  0
LINE
  8
0
 10
-13.7448
 20
-40.327
 11
-13.8285
 21
-40.4721
  0
LINE
  8
0
 10
-13.8285
 20
-40.4721
 11
-13.9183
 21
-40.6136
  0
LINE
  8
0
 10
-13.9183
 20
-40.6136
 11
-14.0139
 21
-40.7511
  0
LINE
  8
0
 10
-14.0139
 20
-40.7511
 11
-14.1152
 21
-40.8846
  0
LINE
  8
0
 10
-14.1152
 20
-40.8846
 11
-14.222
 21
-41.0137
  0
LINE
  8
0
 10
-14.222
 20
-41.0137
 11
-14.3341
 21
-41.1382
  0
LINE
  8
0
 10
-14.3341
 20
-41.1382
 11
-14.4513
 21
-41.2579
  0
LINE
  8
0
 10
-14.4513
 20
-41.2579
 11
-14.5735
 21
-41.3726
  0
LINE
  8
0
 10
-14.5735
 20
-41.3726
 11
-14.7003
 21
-41.482
  0
LINE
  8
0
 10
-14.7003
 20
-41.482
 11
-14.8316
 21
-41.5861
  0
LINE
  8
0
 10
-14.8316
 20
-41.5861
 11
-14.9671
 21
-41.6846
  0
LINE
  8
0
 10
-14.9671
 20
-41.6846
 11
-15.1067
 21
-41.7773
  0
LINE
  8
0
 10
-15.1067
 20
-41.7773
 11
-15.25
 21
-41.8641
  0
LINE
  8
0
 10
-15.25
 20
-41.8641
 11
-15.3968
 21
-41.9448
  0
LINE
  8
0
 10
-15.3968
 20
-41.9448
 11
-15.5469
 21
-42.0193
  0
LINE
  8
0
 10
-15.5469
 20
-42.0193
 11
-15.6999
 21
-42.0874
  0
LINE
  8
0
 10
-15.6999
 20
-42.0874
 11
-15.8557
 21
-42.1491
  0
LINE
  8
0
 10
-15.8557
 20
-42.1491
 11
-16.0139
 21
-42.2042
  0
LINE
  8
0
 10
-16.0139
 20
-42.2042
 11
-16.1743
 21
-42.2526
  0
LINE
  8
0
 10
-16.1743
 20
-42.2526
 11
-16.3366
 21
-42.2943
  0
LINE
  8
0
 10
-16.3366
 20
-42.2943
 11
-16.5005
 21
-42.3291
  0
LINE
  8
0
 10
-16.5005
 20
-42.3291
 11
-16.6657
 21
-42.3571
  0
LINE
  8
0
 10
-16.6657
 20
-42.3571
 11
-16.8319
 21
-42.3781
  0
LINE
  8
0
 10
-16.8319
 20
-42.3781
 11
-16.9988
 21
-42.3921
  0
LINE
  8
0
 10
-16.9988
 20
-42.3921
 11
-17.1662
 21
-42.3991
  0
LINE
  8
0
 10
-17.1662
 20
-42.3991
 11
-22.75
 21
-42.3991
  0
LINE
  8
0
 10
-22.75
 20
-42.3991
 11
-22.75
 21
-44.4
  0
LINE
  8
0
 10
-22.75
 20
-44.4
 11
22.75
 21
-44.4
  0
LINE
  8
0
 10
22.75
 20
-44.4
 11
22.75
 21
-42.3991
  0
LINE
  8
0
 10
-0.270157
 20
-12.8972
 11
-0.809998
 21
-12.8745
  0
LINE
  8
0
 10
-0.809998
 20
-12.8745
 11
-1.3484
 21
-12.8293
  0
LINE
  8
0
 10
-1.3484
 20
-12.8293
 11
-1.88446
 21
-12.7616
  0
LINE
  8
0
 10
-1.88446
 20
-12.7616
 11
-2.41721
 21
-12.6715
  0
LINE
  8
0
 10
-2.41721
 20
-12.6715
 11
-2.94572
 21
-12.5592
  0
LINE
  8
0
 10
-2.94572
 20
-12.5592
 11
-3.46906
 21
-12.4248
  0
LINE
  8
0
 10
-3.46906
 20
-12.4248
 11
-3.98631
 21
-12.2686
  0
LINE
  8
0
 10
-3.98631
 20
-12.2686
 11
-4.49657
 21
-12.0909
  0
LINE
  8
0
 10
-4.49657
 20
-12.0909
 11
-4.99895
 21
-11.892
  0
LINE
  8
0
 10
-4.99895
 20
-11.892
 11
-5.49254
 21
-11.6723
  0
LINE
  8
0
 10
-5.49254
 20
-11.6723
 11
-5.97652
 21
-11.432
  0
LINE
  8
0
 10
-5.97652
 20
-11.432
 11
-6.45
 21
-11.1717
  0
LINE
  8
0
 10
-6.45
 20
-11.1717
 11
-6.91216
 21
-10.8918
  0
LINE
  8
0
 10
-6.91216
 20
-10.8918
 11
-7.3622
 21
-10.5928
  0
LINE
  8
0
 10
-7.3622
 20
-10.5928
 11
-7.79932
 21
-10.2752
  0
LINE
  8
0
 10
-7.79932
 20
-10.2752
 11
-8.22276
 21
-9.93961
  0
LINE
  8
0
 10
-8.22276
 20
-9.93961
 11
-8.63177
 21
-9.58656
  0
LINE
  8
0
 10
-8.63177
 20
-9.58656
 11
-9.02565
 21
-9.21669
  0
LINE
  8
0
 10
-9.02565
 20
-9.21669
 11
-9.40369
 21
-8.83064
  0
LINE
  8
0
 10
-9.40369
 20
-8.83064
 11
-9.76523
 21
-8.42912
  0
LINE
  8
0
 10
-9.76523
 20
-8.42912
 11
-10.1096
 21
-8.0128
  0
LINE
  8
0
 10
-10.1096
 20
-8.0128
 11
-10.4363
 21
-7.58243
  0
LINE
  8
0
 10
-10.4363
 20
-7.58243
 11
-10.7447
 21
-7.13875
  0
LINE
  8
0
 10
-10.7447
 20
-7.13875
 11
-11.0342
 21
-6.68254
  0
LINE
  8
0
 10
-11.0342
 20
-6.68254
 11
-11.3044
 21
-6.21461
  0
LINE
  8
0
 10
-11.3044
 20
-6.21461
 11
-11.5547
 21
-5.73578
  0
LINE
  8
0
 10
-11.5547
 20
-5.73578
 11
-11.7847
 21
-5.2469
  0
LINE
  8
0
 10
-11.7847
 20
-5.2469
 11
-11.9941
 21
-4.74879
  0
LINE
  8
0
 10
-11.9941
 20
-4.74879
 11
-12.1824
 21
-4.24237
  0
LINE
  8
0
 10
-12.1824
 20
-4.24237
 11
-12.3494
 21
-3.7285
  0
LINE
  8
0
 10
-12.3494
 20
-3.7285
 11
-12.4947
 21
-3.2081
  0
LINE
  8
0
 10
-12.4947
 20
-3.2081
 11
-12.6181
 21
-2.68205
  0
LINE
  8
0
 10
-12.6181
 20
-2.68205
 11
-12.7193
 21
-2.15131
  0
LINE
  8
0
 10
-12.7193
 20
-2.15131
 11
-12.7983
 21
-1.61679
  0
LINE
  8
0
 10
-12.7983
 20
-1.61679
 11
-12.8548
 21
-1.07944
  0
LINE
  8
0
 10
-12.8548
 20
-1.07944
 11
-12.8887
 21
-0.540192
  0
LINE
  8
0
 10
-12.8887
 20
-0.540192
 11
-12.9
 21
0
  0
LINE
  8
0
 10
-12.9
 20
0
 11
-12.8887
 21
0.540192
  0
LINE
  8
0
 10
-12.8887
 20
0.540192
 11
-12.8548
 21
1.07944
  0
LINE
  8
0
 10
-12.8548
 20
1.07944
 11
-12.7983
 21
1.61679
  0
LINE
  8
0
 10
-12.7983
 20
1.61679
 11
-12.7193
 21
2.15131
  0
LINE
  8
0
 10
-12.7193
 20
2.15131
 11
-12.6181
 21
2.68205
  0
LINE
  8
0
 10
-12.6181
 20
2.68205
 11
-12.4947
 21
3.2081
  0
LINE
  8
0
 10
-12.4947
 20
3.2081
 11
-12.3494
 21
3.7285
  0
LINE
  8
0
 10
-12.3494
 20
3.7285
 11
-12.1824
 21
4.24237
  0
LINE
  8
0
 10
-12.1824
 20
4.24237
 11
-11.9941
 21
4.74879
  0
LINE
  8
0
 10
-11.9941
 20
4.74879
 11
-11.7847
 21
5.2469
  0
LINE
  8
0
 10
-11.7847
 20
5.2469
 11
-11.5547
 21
5.73578
  0
LINE
  8
0
 10
-11.5547
 20
5.73578
 11
-11.3044
 21
6.21461
  0
LINE
  8
0
 10
-11.3044
 20
6.21461
 11
-11.0342
 21
6.68254
  0
LINE
  8
0
 10
-11.0342
 20
6.68254
 11
-10.7447
 21
7.13875
  0
LINE
  8
0
 10
-10.7447
 20
7.13875
 11
-10.4363
 21
7.58243
  0
LINE
  8
0
 10
-10.4363
 20
7.58243
 11
-10.1096
 21
8.0128
  0
LINE
  8
0
 10
-10.1096
 20
8.0128
 11
-9.76523
 21
8.42912
  0
LINE
  8
0
 10
-9.76523
 20
8.42912
 11
-9.40369
 21
8.83064
  0
LINE
  8
0
 10
-9.40369
 20
8.83064
 11
-9.02565
 21
9.21669
  0
LINE
  8
0
 10
-9.02565
 20
9.21669
 11
-8.63177
 21
9.58656
  0
LINE
  8
0
 10
-8.63177
 20
9.58656
 11
-8.22276
 21
9.93961
  0
LINE
  8
0
 10
-8.22276
 20
9.93961
 11
-7.79932
 21
10.2752
  0
LINE
  8
0
 10
-7.79932
 20
10.2752
 11
-7.3622
 21
10.5928
  0
LINE
  8
0
 10
-7.3622
 20
10.5928
 11
-6.91216
 21
10.8918
  0
LINE
  8
0
 10
-6.91216
 20
10.8918
 11
-6.45
 21
11.1717
  0
LINE
  8
0
 10
-6.45
 20
11.1717
 11
-5.97652
 21
11.432
  0
LINE
  8
0
 10
-5.97652
 20
11.432
 11
-5.49254
 21
11.6723
  0
LINE
  8
0
 10
-5.49254
 20
11.6723
 11
-4.99895
 21
11.892
  0
LINE
  8
0
 10
-4.99895
 20
11.892
 11
-4.49657
 21
12.0909
  0
LINE
  8
0
 10
-4.49657
 20
12.0909
 11
-3.98631
 21
12.2686
  0
LINE
  8
0
 10
-3.98631
 20
12.2686
 11
-3.46906
 21
12.4248
  0
LINE
  8
0
 10
-3.46906
 20
12.4248
 11
-2.94572
 21
12.5592
  0
LINE
  8
0
 10
-2.94572
 20
12.5592
 11
-2.41721
 21
12.6715
  0
LINE
  8
0
 10
-2.41721
 20
12.6715
 11
-1.88446
 21
12.7616
  0
LINE
  8
0
 10
-1.88446
 20
12.7616
 11
-1.3484
 21
12.8293
  0
LINE
  8
0
 10
-1.3484
 20
12.8293
 11
-0.809998
 21
12.8745
  0
LINE
  8
0
 10
-0.809998
 20
12.8745
 11
-0.270157
 21
12.8972
  0
LINE
  8
0
 10
-0.270157
 20
12.8972
 11
0.270157
 21
12.8972
  0
LINE
  8
0
 10
0.270157
 20
12.8972
 11
0.809998
 21
12.8745
  0
LINE
  8
0
 10
0.809998
 20
12.8745
 11
1.3484
 21
12.8293
  0
LINE
  8
0
 10
1.3484
 20
12.8293
 11
1.88446
 21
12.7616
  0
LINE
  8
0
 10
1.88446
 20
12.7616
 11
2.41721
 21
12.6715
  0
LINE
  8
0
 10
2.41721
 20
12.6715
 11
2.94572
 21
12.5592
  0
LINE
  8
0
 10
2.94572
 20
12.5592
 11
3.46906
 21
12.4248
  0
LINE
  8
0
 10
3.46906
 20
12.4248
 11
3.98631
 21
12.2686
  0
LINE
  8
0
 10
3.98631
 20
12.2686
 11
4.49657
 21
12.0909
  0
LINE
  8
0
 10
4.49657
 20
12.0909
 11
4.99895
 21
11.892
  0
LINE
  8
0
 10
4.99895
 20
11.892
 11
5.49254
 21
11.6723
  0
LINE
  8
0
 10
5.49254
 20
11.6723
 11
5.97652
 21
11.432
  0
LINE
  8
0
 10
5.97652
 20
11.432
 11
6.45
 21
11.1717
  0
LINE
  8
0
 10
6.45
 20
11.1717
 11
6.91216
 21
10.8918
  0
LINE
  8
0
 10
6.91216
 20
10.8918
 11
7.3622
 21
10.5928
  0
LINE
  8
0
 10
7.3622
 20
10.5928
 11
7.79932
 21
10.2752
  0
LINE
  8
0
 10
7.79932
 20
10.2752
 11
8.22276
 21
9.93961
  0
LINE
  8
0
 10
8.22276
 20
9.93961
 11
8.63177
 21
9.58656
  0
LINE
  8
0
 10
8.63177
 20
9.58656
 11
9.02565
 21
9.21669
  0
LINE
  8
0
 10
9.02565
 20
9.21669
 11
9.40369
 21
8.83064
  0
LINE
  8
0
 10
9.40369
 20
8.83064
 11
9.76523
 21
8.42912
  0
LINE
  8
0
 10
9.76523
 20
8.42912
 11
10.1096
 21
8.0128
  0
LINE
  8
0
 10
10.1096
 20
8.0128
 11
10.4363
 21
7.58243
  0
LINE
  8
0
 10
10.4363
 20
7.58243
 11
10.7447
 21
7.13875
  0
LINE
  8
0
 10
10.7447
 20
7.13875
 11
11.0342
 21
6.68254
  0
LINE
  8
0
 10
11.0342
 20
6.68254
 11
11.3044
 21
6.21461
  0
LINE
  8
0
 10
11.3044
 20
6.21461
 11
11.5547
 21
5.73578
  0
LINE
  8
0
 10
11.5547
 20
5.73578
 11
11.7847
 21
5.2469
  0
LINE
  8
0
 10
11.7847
 20
5.2469
 11
11.9941
 21
4.74879
  0
LINE
  8
0
 10
11.9941
 20
4.74879
 11
12.1824
 21
4.24237
  0
LINE
  8
0
 10
12.1824
 20
4.24237
 11
12.3494
 21
3.7285
  0
LINE
  8
0
 10
12.3494
 20
3.7285
 11
12.4947
 21
3.2081
  0
LINE
  8
0
 10
12.4947
 20
3.2081
 11
12.6181
 21
2.68205
  0
LINE
  8
0
 10
12.6181
 20
2.68205
 11
12.7193
 21
2.15131
  0
LINE
  8
0
 10
12.7193
 20
2.15131
 11
12.7983
 21
1.61679
  0
LINE
  8
0
 10
12.7983
 20
1.61679
 11
12.8548
 21
1.07944
  0
LINE
  8
0
 10
12.8548
 20
1.07944
 11
12.8887
 21
0.540192
  0
LINE
  8
0
 10
12.8887
 20
0.540192
 11
12.9
 21
0
  0
LINE
  8
0
 10
12.9
 20
0
 11
12.8887
 21
-0.540192
  0
LINE
  8
0
 10
12.8887
 20
-0.540192
 11
12.8548
 21
-1.07944
  0
LINE
  8
0
 10
12.8548
 20
-1.07944
 11
12.7983
 21
-1.61679
  0
LINE
  8
0
 10
12.7983
 20
-1.61679
 11
12.7193
 21
-2.15131
  0
LINE
  8
0
 10
12.7193
 20
-2.15131
 11
12.6181
 21
-2.68205
  0
LINE
  8
0
 10
12.6181
 20
-2.68205
 11
12.4947
 21
-3.2081
  0
LINE
  8
0
 10
12.4947
 20
-3.2081
 11
12.3494
 21
-3.7285
  0
LINE
  8
0
 10
12.3494
 20
-3.7285
 11
12.1824
 21
-4.24237
  0
LINE
  8
0
 10
12.1824
 20
-4.24237
 11
11.9941
 21
-4.74879
  0
LINE
  8
0
 10
11.9941
 20
-4.74879
 11
11.7847
 21
-5.2469
  0
LINE
  8
0
 10
11.7847
 20
-5.2469
 11
11.5547
 21
-5.73578
  0
LINE
  8
0
 10
11.5547
 20
-5.73578
 11
11.3044
 21
-6.21461
  0
LINE
  8
0
 10
11.3044
 20
-6.21461
 11
11.0342
 21
-6.68254
  0
LINE
  8
0
 10
11.0342
 20
-6.68254
 11
10.7447
 21
-7.13875
  0
LINE
  8
0
 10
10.7447
 20
-7.13875
 11
10.4363
 21
-7.58243
  0
LINE
  8
0
 10
10.4363
 20
-7.58243
 11
10.1096
 21
-8.0128
  0
LINE
  8
0
 10
10.1096
 20
-8.0128
 11
9.76523
 21
-8.42912
  0
LINE
  8
0
 10
9.76523
 20
-8.42912
 11
9.40369
 21
-8.83064
  0
LINE
  8
0
 10
9.40369
 20
-8.83064
 11
9.02565
 21
-9.21669
  0
LINE
  8
0
 10
9.02565
 20
-9.21669
 11
8.63177
 21
-9.58656
  0
LINE
  8
0
 10
8.63177
 20
-9.58656
 11
8.22276
 21
-9.93961
  0
LINE
  8
0
 10
8.22276
 20
-9.93961
 11
7.79932
 21
-10.2752
  0
LINE
  8
0
 10
7.79932
 20
-10.2752
 11
7.3622
 21
-10.5928
  0
LINE
  8
0
 10
7.3622
 20
-10.5928
 11
6.91216
 21
-10.8918
  0
LINE
  8
0
 10
6.91216
 20
-10.8918
 11
6.45
 21
-11.1717
  0
LINE
  8
0
 10
6.45
 20
-11.1717
 11
5.97652
 21
-11.432
  0
LINE
  8
0
 10
5.97652
 20
-11.432
 11
5.49254
 21
-11.6723
  0
LINE
  8
0
 10
5.49254
 20
-11.6723
 11
4.99895
 21
-11.892
  0
LINE
  8
0
 10
4.99895
 20
-11.892
 11
4.49657
 21
-12.0909
  0
LINE
  8
0
 10
4.49657
 20
-12.0909
 11
3.98631
 21
-12.2686
  0
LINE
  8
0
 10
3.98631
 20
-12.2686
 11
3.46906
 21
-12.4248
  0
LINE
  8
0
 10
3.46906
 20
-12.4248
 11
2.94572
 21
-12.5592
  0
LINE
  8
0
 10
2.94572
 20
-12.5592
 11
2.41721
 21
-12.6715
  0
LINE
  8
0
 10
2.41721
 20
-12.6715
 11
1.88446
 21
-12.7616
  0
LINE
  8
0
 10
1.88446
 20
-12.7616
 11
1.3484
 21
-12.8293
  0
LINE
  8
0
 10
1.3484
 20
-12.8293
 11
0.809998
 21
-12.8745
  0
LINE
  8
0
 10
0.809998
 20
-12.8745
 11
0.270157
 21
-12.8972
  0
LINE
  8
0
 10
0.270157
 20
-12.8972
 11
-0.270157
 21
-12.8972
  0
LINE
  8
0
 10
87.75
 20
-42.3991
 11
82.1662
 21
-42.3991
  0
LINE
  8
0
 10
82.1662
 20
-42.3991
 11
81.9988
 21
-42.3921
  0
LINE
  8
0
 10
81.9988
 20
-42.3921
 11
81.8319
 21
-42.3781
  0
LINE
  8
0
 10
81.8319
 20
-42.3781
 11
81.6657
 21
-42.3571
  0
LINE
  8
0
 10
81.6657
 20
-42.3571
 11
81.5005
 21
-42.3291
  0
LINE
  8
0
 10
81.5005
 20
-42.3291
 11
81.3366
 21
-42.2943
  0
LINE
  8
0
 10
81.3366
 20
-42.2943
 11
81.1743
 21
-42.2526
  0
LINE
  8
0
 10
81.1743
 20
-42.2526
 11
81.0139
 21
-42.2042
  0
LINE
  8
0
 10
81.0139
 20
-42.2042
 11
80.8557
 21
-42.1491
  0
LINE
  8
0
 10
80.8557
 20
-42.1491
 11
80.6999
 21
-42.0874
  0
LINE
  8
0
 10
80.6999
 20
-42.0874
 11
80.5469
 21
-42.0193
  0
LINE
  8
0
 10
80.5469
 20
-42.0193
 11
80.3968
 21
-41.9448
  0
LINE
  8
0
 10
80.3968
 20
-41.9448
 11
80.25
 21
-41.8641
  0
LINE
  8
0
 10
80.25
 20
-41.8641
 11
80.1067
 21
-41.7773
  0
LINE
  8
0
 10
80.1067
 20
-41.7773
 11
79.9671
 21
-41.6846
  0
LINE
  8
0
 10
79.9671
 20
-41.6846
 11
79.8316
 21
-41.5861
  0
LINE
  8
0
 10
79.8316
 20
-41.5861
 11
79.7003
 21
-41.482
  0
LINE
  8
0
 10
79.7003
 20
-41.482
 11
79.5735
 21
-41.3726
  0
LINE
  8
0
 10
79.5735
 20
-41.3726
 11
79.4513
 21
-41.2579
  0
LINE
  8
0
 10
79.4513
 20
-41.2579
 11
79.3341
 21
-41.1382
  0
LINE
  8
0
 10
79.3341
 20
-41.1382
 11
79.222
 21
-41.0137
  0
LINE
  8
0
 10
79.222
 20
-41.0137
 11
79.1152
 21
-40.8846
  0
LINE
  8
0
 10
79.1152
 20
-40.8846
 11
79.0139
 21
-40.7511
  0
LINE
  8
0
 10
79.0139
 20
-40.7511
 11
78.9183
 21
-40.6136
  0
LINE
  8
0
 10
78.9183
 20
-40.6136
 11
78.8285
 21
-40.4721
  0
LINE
  8
0
 10
78.8285
 20
-40.4721
 11
78.7448
 21
-40.327
  0
LINE
  8
0
 10
78.7448
 20
-40.327
 11
78.6671
 21
-40.1785
  0
LINE
  8
0
 10
78.6671
 20
-40.1785
 11
78.5958
 21
-40.0269
  0
LINE
  8
0
 10
78.5958
 20
-40.0269
 11
78.5309
 21
-39.8725
  0
LINE
  8
0
 10
78.5309
 20
-39.8725
 11
78.4725
 21
-39.7155
  0
LINE
  8
0
 10
78.4725
 20
-39.7155
 11
78.4207
 21
-39.5561
  0
LINE
  8
0
 10
78.4207
 20
-39.5561
 11
78.3757
 21
-39.3947
  0
LINE
  8
0
 10
78.3757
 20
-39.3947
 11
78.3374
 21
-39.2316
  0
LINE
  8
0
 10
78.3374
 20
-39.2316
 11
78.306
 21
-39.0671
  0
LINE
  8
0
 10
78.306
 20
-39.0671
 11
78.2815
 21
-38.9013
  0
LINE
  8
0
 10
78.2815
 20
-38.9013
 11
78.264
 21
-38.7347
  0
LINE
  8
0
 10
78.264
 20
-38.7347
 11
78.2535
 21
-38.5675
  0
LINE
  8
0
 10
78.2535
 20
-38.5675
 11
78.25
 21
-38.4
  0
LINE
  8
0
 10
78.25
 20
-38.4
 11
78.2535
 21
-38.2325
  0
LINE
  8
0
 10
78.2535
 20
-38.2325
 11
78.264
 21
-38.0653
  0
LINE
  8
0
 10
78.264
 20
-38.0653
 11
78.2815
 21
-37.8987
  0
LINE
  8
0
 10
78.2815
 20
-37.8987
 11
78.306
 21
-37.7329
  0
LINE
  8
0
 10
78.306
 20
-37.7329
 11
78.3374
 21
-37.5683
  0
LINE
  8
0
 10
78.3374
 20
-37.5683
 11
78.3757
 21
-37.4052
  0
LINE
  8
0
 10
78.3757
 20
-37.4052
 11
78.4207
 21
-37.2439
  0
LINE
  8
0
 10
78.4207
 20
-37.2439
 11
78.4725
 21
-37.0845
  0
LINE
  8
0
 10
78.4725
 20
-37.0845
 11
78.5309
 21
-36.9275
  0
LINE
  8
0
 10
78.5309
 20
-36.9275
 11
78.5958
 21
-36.773
  0
LINE
  8
0
 10
78.5958
 20
-36.773
 11
78.6671
 21
-36.6214
  0
LINE
  8
0
 10
78.6671
 20
-36.6214
 11
78.7448
 21
-36.473
  0
LINE
  8
0
 10
78.7448
 20
-36.473
 11
78.8285
 21
-36.3279
  0
LINE
  8
0
 10
78.8285
 20
-36.3279
 11
78.9183
 21
-36.1864
  0
LINE
  8
0
 10
78.9183
 20
-36.1864
 11
79.0139
 21
-36.0489
  0
LINE
  8
0
 10
79.0139
 20
-36.0489
 11
79.1152
 21
-35.9154
  0
LINE
  8
0
 10
79.1152
 20
-35.9154
 11
79.222
 21
-35.7863
  0
LINE
  8
0
 10
79.222
 20
-35.7863
 11
79.3341
 21
-35.6618
  0
LINE
  8
0
 10
79.3341
 20
-35.6618
 11
79.4513
 21
-35.5421
  0
LINE
  8
0
 10
79.4513
 20
-35.5421
 11
79.5735
 21
-35.4274
  0
LINE
  8
0
 10
79.5735
 20
-35.4274
 11
79.7003
 21
-35.3179
  0
LINE
  8
0
 10
79.7003
 20
-35.3179
 11
79.8316
 21
-35.2139
  0
LINE
  8
0
 10
79.8316
 20
-35.2139
 11
79.9671
 21
-35.1154
  0
LINE
  8
0
 10
79.9671
 20
-35.1154
 11
80.1067
 21
-35.0227
  0
LINE
  8
0
 10
80.1067
 20
-35.0227
 11
80.25
 21
-34.9359
  0
LINE
  8
0
 10
80.25
 20
-34.9359
 11
80.3968
 21
-34.8552
  0
LINE
  8
0
 10
80.3968
 20
-34.8552
 11
80.5469
 21
-34.7807
  0
LINE
  8
0
 10
80.5469
 20
-34.7807
 11
80.6999
 21
-34.7125
  0
LINE
  8
0
 10
80.6999
 20
-34.7125
 11
80.8557
 21
-34.6509
  0
LINE
  8
0
 10
80.8557
 20
-34.6509
 11
81.0139
 21
-34.5958
  0
LINE
  8
0
 10
81.0139
 20
-34.5958
 11
81.1743
 21
-34.5473
  0
LINE
  8
0
 10
81.1743
 20
-34.5473
 11
81.3366
 21
-34.5057
  0
LINE
  8
0
 10
81.3366
 20
-34.5057
 11
81.5005
 21
-34.4708
  0
LINE
  8
0
 10
81.5005
 20
-34.4708
 11
81.6657
 21
-34.4429
  0
LINE
  8
0
 10
81.6657
 20
-34.4429
 11
81.8319
 21
-34.4219
  0
LINE
  8
0
 10
81.8319
 20
-34.4219
 11
81.9988
 21
-34.4079
  0
LINE
  8
0
 10
81.9988
 20
-34.4079
 11
82.1662
 21
-34.4009
  0
LINE
  8
0
 10
82.1662
 20
-34.4009
 11
87.75
 21
-34.4009
  0
LINE
  8
0
 10
87.75
 20
-34.4009
 11
87.75
 21
-15.4417
  0
LINE
  8
0
 10
87.75
 20
-15.4417
 11
87.9053
 21
-15.2183
  0
LINE
  8
0
 10
87.9053
 20
-15.2183
 11
88.5225
 21
-14.2457
  0
LINE
  8
0
 10
88.5225
 20
-14.2457
 11
89.0984
 21
-13.2482
  0
LINE
  8
0
 10
89.0984
 20
-13.2482
 11
89.6321
 21
-12.2275
  0
LINE
  8
0
 10
89.6321
 20
-12.2275
 11
90.1225
 21
-11.1853
  0
LINE
  8
0
 10
90.1225
 20
-11.1853
 11
90.5688
 21
-10.1234
  0
LINE
  8
0
 10
90.5688
 20
-10.1234
 11
90.9703
 21
-9.04382
  0
LINE
  8
0
 10
90.9703
 20
-9.04382
 11
91.3263
 21
-7.94836
  0
LINE
  8
0
 10
91.3263
 20
-7.94836
 11
91.636
 21
-6.83896
  0
LINE
  8
0
 10
91.636
 20
-6.83896
 11
91.899
 21
-5.71756
  0
LINE
  8
0
 10
91.899
 20
-5.71756
 11
92.1149
 21
-4.58614
  0
LINE
  8
0
 10
92.1149
 20
-4.58614
 11
92.2831
 21
-3.44666
  0
LINE
  8
0
 10
92.2831
 20
-3.44666
 11
92.4035
 21
-2.30113
  0
LINE
  8
0
 10
92.4035
 20
-2.30113
 11
92.4759
 21
-1.15157
  0
LINE
  8
0
 10
92.4759
 20
-1.15157
 11
92.5
 21
0
  0
LINE
  8
0
 10
92.5
 20
0
 11
92.4759
 21
1.15157
  0
LINE
  8
0
 10
92.4759
 20
1.15157
 11
92.4035
 21
2.30113
  0
LINE
  8
0
 10
92.4035
 20
2.30113
 11
92.2831
 21
3.44666
  0
LINE
  8
0
 10
92.2831
 20
3.44666
 11
92.1149
 21
4.58614
  0
LINE
  8
0
 10
92.1149
 20
4.58614
 11
91.899
 21
5.71756
  0
LINE
  8
0
 10
91.899
 20
5.71756
 11
91.636
 21
6.83896
  0
LINE
  8
0
 10
91.636
 20
6.83896
 11
91.3263
 21
7.94836
  0
LINE
  8
0
 10
91.3263
 20
7.94836
 11
90.9703
 21
9.04382
  0
LINE
  8
0
 10
90.9703
 20
9.04382
 11
90.5688
 21
10.1234
  0
LINE
  8
0
 10
90.5688
 20
10.1234
 11
90.1225
 21
11.1853
  0
LINE
  8
0
 10
90.1225
 20
11.1853
 11
89.6321
 21
12.2275
  0
LINE
  8
0
 10
89.6321
 20
12.2275
 11
89.0984
 21
13.2482
  0
LINE
  8
0
 10
89.0984
 20
13.2482
 11
88.5225
 21
14.2457
  0
LINE
  8
0
 10
88.5225
 20
14.2457
 11
87.9053
 21
15.2183
  0
LINE
  8
0
 10
87.9053
 20
15.2183
 11
87.248
 21
16.1641
  0
LINE
  8
0
 10
87.248
 20
16.1641
 11
86.5516
 21
17.0816
  0
LINE
  8
0
 10
86.5516
 20
17.0816
 11
85.8174
 21
17.9691
  0
LINE
  8
0
 10
85.8174
 20
17.9691
 11
85.0466
 21
18.825
  0
LINE
  8
0
 10
85.0466
 20
18.825
 11
84.2407
 21
19.648
  0
LINE
  8
0
 10
84.2407
 20
19.648
 11
83.4011
 21
20.4365
  0
LINE
  8
0
 10
83.4011
 20
20.4365
 11
82.5292
 21
21.1891
  0
LINE
  8
0
 10
82.5292
 20
21.1891
 11
81.6265
 21
21.9046
  0
LINE
  8
0
 10
81.6265
 20
21.9046
 11
80.6946
 21
22.5816
  0
LINE
  8
0
 10
80.6946
 20
22.5816
 11
79.7352
 21
23.219
  0
LINE
  8
0
 10
79.7352
 20
23.219
 11
78.75
 21
23.8157
  0
LINE
  8
0
 10
78.75
 20
23.8157
 11
77.7406
 21
24.3706
  0
LINE
  8
0
 10
77.7406
 20
24.3706
 11
76.7089
 21
24.8827
  0
LINE
  8
0
 10
76.7089
 20
24.8827
 11
75.6567
 21
25.3512
  0
LINE
  8
0
 10
75.6567
 20
25.3512
 11
74.5857
 21
25.7753
  0
LINE
  8
0
 10
74.5857
 20
25.7753
 11
73.498
 21
26.1541
  0
LINE
  8
0
 10
73.498
 20
26.1541
 11
72.3953
 21
26.487
  0
LINE
  8
0
 10
72.3953
 20
26.487
 11
71.2796
 21
26.7734
  0
LINE
  8
0
 10
71.2796
 20
26.7734
 11
70.153
 21
27.0129
  0
LINE
  8
0
 10
70.153
 20
27.0129
 11
69.0173
 21
27.205
  0
LINE
  8
0
 10
69.0173
 20
27.205
 11
67.8745
 21
27.3493
  0
LINE
  8
0
 10
67.8745
 20
27.3493
 11
66.7267
 21
27.4457
  0
LINE
  8
0
 10
66.7267
 20
27.4457
 11
65.5759
 21
27.494
  0
LINE
  8
0
 10
65.5759
 20
27.494
 11
64.4241
 21
27.494
  0
LINE
  8
0
 10
64.4241
 20
27.494
 11
63.2733
 21
27.4457
  0
LINE
  8
0
 10
63.2733
 20
27.4457
 11
62.1255
 21
27.3493
  0
LINE
  8
0
 10
62.1255
 20
27.3493
 11
60.9827
 21
27.205
  0
LINE
  8
0
 10
60.9827
 20
27.205
 11
59.847
 21
27.0129
  0
LINE
  8
0
 10
59.847
 20
27.0129
 11
58.7204
 21
26.7734
  0
LINE
  8
0
 10
58.7204
 20
26.7734
 11
57.6047
 21
26.487
  0
LINE
  8
0
 10
57.6047
 20
26.487
 11
56.502
 21
26.1541
  0
LINE
  8
0
 10
56.502
 20
26.1541
 11
55.4143
 21
25.7753
  0
LINE
  8
0
 10
55.4143
 20
25.7753
 11
54.3433
 21
25.3512
  0
LINE
  8
0
 10
54.3433
 20
25.3512
 11
53.2911
 21
24.8827
  0
LINE
  8
0
 10
53.2911
 20
24.8827
 11
52.2594
 21
24.3706
  0
LINE
  8
0
 10
52.2594
 20
24.3706
 11
51.25
 21
23.8157
  0
LINE
  8
0
 10
51.25
 20
23.8157
 11
50.2648
 21
23.219
  0
LINE
  8
0
 10
50.2648
 20
23.219
 11
49.3054
 21
22.5816
  0
LINE
  8
0
 10
49.3054
 20
22.5816
 11
48.3735
 21
21.9046
  0
LINE
  8
0
 10
48.3735
 20
21.9046
 11
47.4708
 21
21.1891
  0
LINE
  8
0
 10
47.4708
 20
21.1891
 11
46.5989
 21
20.4365
  0
LINE
  8
0
 10
46.5989
 20
20.4365
 11
45.7593
 21
19.648
  0
LINE
  8
0
 10
45.7593
 20
19.648
 11
44.9534
 21
18.825
  0
LINE
  8
0
 10
44.9534
 20
18.825
 11
44.1826
 21
17.9691
  0
LINE
  8
0
 10
44.1826
 20
17.9691
 11
43.4484
 21
17.0816
  0
LINE
  8
0
 10
43.4484
 20
17.0816
 11
42.752
 21
16.1641
  0
LINE
  8
0
 10
42.752
 20
16.1641
 11
42.0947
 21
15.2183
  0
LINE
  8
0
 10
42.0947
 20
15.2183
 11
41.4775
 21
14.2457
  0
LINE
  8
0
 10
41.4775
 20
14.2457
 11
40.9016
 21
13.2482
  0
LINE
  8
0
 10
40.9016
 20
13.2482
 11
40.3679
 21
12.2275
  0
LINE
  8
0
 10
40.3679
 20
12.2275
 11
39.8775
 21
11.1853
  0
LINE
  8
0
 10
39.8775
 20
11.1853
 11
39.4312
 21
10.1234
  0
LINE
  8
0
 10
39.4312
 20
10.1234
 11
39.0297
 21
9.04382
  0
LINE
  8
0
 10
39.0297
 20
9.04382
 11
38.6737
 21
7.94836
  0
LINE
  8
0
 10
38.6737
 20
7.94836
 11
38.364
 21
6.83896
  0
LINE
  8
0
 10
38.364
 20
6.83896
 11
38.101
 21
5.71756
  0
LINE
  8
0
 10
38.101
 20
5.71756
 11
37.8851
 21
4.58614
  0
LINE
  8
0
 10
37.8851
 20
4.58614
 11
37.7169
 21
3.44666
  0
LINE
  8
0
 10
37.7169
 20
3.44666
 11
37.5965
 21
2.30113
  0
LINE
  8
0
 10
37.5965
 20
2.30113
 11
37.5241
 21
1.15157
  0
LINE
  8
0
 10
37.5241
 20
1.15157
 11
37.5
 21
0
  0
LINE
  8
0
 10
37.5
 20
0
 11
37.5241
 21
-1.15157
  0
LINE
  8
0
 10
37.5241
 20
-1.15157
 11
37.5965
 21
-2.30113
  0
LINE
  8
0
 10
37.5965
 20
-2.30113
 11
37.7169
 21
-3.44666
  0
LINE
  8
0
 10
37.7169
 20
-3.44666
 11
37.8851
 21
-4.58614
  0
LINE
  8
0
 10
37.8851
 20
-4.58614
 11
38.101
 21
-5.71756
  0
LINE
  8
0
 10
38.101
 20
-5.71756
 11
38.364
 21
-6.83896
  0
LINE
  8
0
 10
38.364
 20
-6.83896
 11
38.6737
 21
-7.94836
  0
LINE
  8
0
 10
38.6737
 20
-7.94836
 11
39.0297
 21
-9.04382
  0
LINE
  8
0
 10
39.0297
 20
-9.04382
 11
39.4312
 21
-10.1234
  0
LINE
  8
0
 10
39.4312
 20
-10.1234
 11
39.8775
 21
-11.1853
  0
LINE
  8
0
 10
39.8775
 20
-11.1853
 11
40.3679
 21
-12.2275
  0
LINE
  8
0
 10
40.3679
 20
-12.2275
 11
40.9016
 21
-13.2482
  0
LINE
  8
0
 10
40.9016
 20
-13.2482
 11
41.4775
 21
-14.2457
  0
LINE
  8
0
 10
41.4775
 20
-14.2457
 11
42.0947
 21
-15.2183
  0
LINE
  8
0
 10
42.0947
 20
-15.2183
 11
42.25
 21
-15.4417
  0
LINE
  8
0
 10
42.25
 20
-15.4417
 11
42.25
 21
-34.4009
  0
LINE
  8
0
 10
42.25
 20
-34.4009
 11
47.8338
 21
-34.4009
  0
LINE
  8
0
 10
47.8338
 20
-34.4009
 11
48.0012
 21
-34.4079
  0
LINE
  8
0
 10
48.0012
 20
-34.4079
 11
48.1681
 21
-34.4219
  0
LINE
  8
0
 10
48.1681
 20
-34.4219
 11
48.3343
 21
-34.4429
  0
LINE
  8
0
 10
48.3343
 20
-34.4429
 11
48.4995
 21
-34.4708
  0
LINE
  8
0
 10
48.4995
 20
-34.4708
 11
48.6634
 21
-34.5057
  0
LINE
  8
0
 10
48.6634
 20
-34.5057
 11
48.8257
 21
-34.5473
  0
LINE
  8
0
 10
48.8257
 20
-34.5473
 11
48.9861
 21
-34.5958
  0
LINE
  8
0
 10
48.9861
 20
-34.5958
 11
49.1443
 21
-34.6509
  0
LINE
  8
0
 10
49.1443
 20
-34.6509
 11
49.3001
 21
-34.7125
  0
LINE
  8
0
 10
49.3001
 20
-34.7125
 11
49.4531
 21
-34.7807
  0
LINE
  8
0
 10
49.4531
 20
-34.7807
 11
49.6032
 21
-34.8552
  0
LINE
  8
0
 10
49.6032
 20
-34.8552
 11
49.75
 21
-34.9359
  0
LINE
  8
0
 10
49.75
 20
-34.9359
 11
49.8933
 21
-35.0227
  0
LINE
  8
0
 10
49.8933
 20
-35.0227
 11
50.0329
 21
-35.1154
  0
LINE
  8
0
 10
50.0329
 20
-35.1154
 11
50.1684
 21
-35.2139
  0
LINE
  8
0
 10
50.1684
 20
-35.2139
 11
50.2997
 21
-35.3179
  0
LINE
  8
0
 10
50.2997
 20
-35.3179
 11
50.4265
 21
-35.4274
  0
LINE
  8
0
 10
50.4265
 20
-35.4274
 11
50.5487
 21
-35.5421
  0
LINE
  8
0
 10
50.5487
 20
-35.5421
 11
50.6659
 21
-35.6618
  0
LINE
  8
0
 10
50.6659
 20
-35.6618
 11
50.778
 21
-35.7863
  0
LINE
  8
0
 10
50.778
 20
-35.7863
 11
50.8848
 21
-35.9154
  0
LINE
  8
0
 10
50.8848
 20
-35.9154
 11
50.9861
 21
-36.0489
  0
LINE
  8
0
 10
50.9861
 20
-36.0489
 11
51.0817
 21
-36.1864
  0
LINE
  8
0
 10
51.0817
 20
-36.1864
 11
51.1715
 21
-36.3279
  0
LINE
  8
0
 10
51.1715
 20
-36.3279
 11
51.2552
 21
-36.473
  0
LINE
  8
0
 10
51.2552
 20
-36.473
 11
51.3329
 21
-36.6214
  0
LINE
  8
0
 10
51.3329
 20
-36.6214
 11
51.4042
 21
-36.773
  0
LINE
  8
0
 10
51.4042
 20
-36.773
 11
51.4691
 21
-36.9275
  0
LINE
  8
0
 10
51.4691
 20
-36.9275
 11
51.5275
 21
-37.0845
  0
LINE
  8
0
 10
51.5275
 20
-37.0845
 11
51.5793
 21
-37.2439
  0
LINE
  8
0
 10
51.5793
 20
-37.2439
 11
51.6243
 21
-37.4052
  0
LINE
  8
0
 10
51.6243
 20
-37.4052
 11
51.6626
 21
-37.5683
  0
LINE
  8
0
 10
51.6626
 20
-37.5683
 11
51.694
 21
-37.7329
  0
LINE
  8
0
 10
51.694
 20
-37.7329
 11
51.7185
 21
-37.8987
  0
LINE
  8
0
 10
51.7185
 20
-37.8987
 11
51.736
 21
-38.0653
  0
LINE
  8
0
 10
51.736
 20
-38.0653
 11
51.7465
 21
-38.2325
  0
LINE
  8
0
 10
51.7465
 20
-38.2325
 11
51.75
 21
-38.4
  0
LINE
  8
0
 10
51.75
 20
-38.4
 11
51.7465
 21
-38.5675
  0
LINE
  8
0
 10
51.7465
 20
-38.5675
 11
51.736
 21
-38.7347
  0
LINE
  8
0
 10
51.736
 20
-38.7347
 11
51.7185
 21
-38.9013
  0
LINE
  8
0
 10
51.7185
 20
-38.9013
 11
51.694
 21
-39.0671
  0
LINE
  8
0
 10
51.694
 20
-39.0671
 11
51.6626
 21
-39.2316
  0
LINE
  8
0
 10
51.6626
 20
-39.2316
 11
51.6243
 21
-39.3947
  0
LINE
  8
0
 10
51.6243
 20
-39.3947
 11
51.5793
 21
-39.5561
  0
LINE
  8
0
 10
51.5793
 20
-39.5561
 11
51.5275
 21
-39.7155
  0
LINE
  8
0
 10
51.5275
 20
-39.7155
 11
51.4691
 21
-39.8725
  0
LINE
  8
0
 10
51.4691
 20
-39.8725
 11
51.4042
 21
-40.0269
  0
LINE
  8
0
 10
51.4042
 20
-40.0269
 11
51.3329
 21
-40.1785
  0
LINE
  8
0
 10
51.3329
 20
-40.1785
 11
51.2552
 21
-40.327
  0
LINE
  8
0
 10
51.2552
 20
-40.327
 11
51.1715
 21
-40.4721
  0
LINE
  8
0
 10
51.1715
 20
-40.4721
 11
51.0817
 21
-40.6136
  0
LINE
  8
0
 10
51.0817
 20
-40.6136
 11
50.9861
 21
-40.7511
  0
LINE
  8
0
 10
50.9861
 20
-40.7511
 11
50.8848
 21
-40.8846
  0
LINE
  8
0
 10
50.8848
 20
-40.8846
 11
50.778
 21
-41.0137
  0
LINE
  8
0
 10
50.778
 20
-41.0137
 11
50.6659
 21
-41.1382
  0
LINE
  8
0
 10
50.6659
 20
-41.1382
 11
50.5487
 21
-41.2579
  0
LINE
  8
0
 10
50.5487
 20
-41.2579
 11
50.4265
 21
-41.3726
  0
LINE
  8
0
 10
50.4265
 20
-41.3726
 11
50.2997
 21
-41.482
  0
LINE
  8
0
 10
50.2997
 20
-41.482
 11
50.1684
 21
-41.5861
  0
LINE
  8
0
 10
50.1684
 20
-41.5861
 11
50.0329
 21
-41.6846
  0
LINE
  8
0
 10
50.0329
 20
-41.6846
 11
49.8933
 21
-41.7773
  0
LINE
  8
0
 10
49.8933
 20
-41.7773
 11
49.75
 21
-41.8641
  0
LINE
  8
0
 10
49.75
 20
-41.8641
 11
49.6032
 21
-41.9448
  0
LINE
  8
0
 10
49.6032
 20
-41.9448
 11
49.4531
 21
-42.0193
  0
LINE
  8
0
 10
49.4531
 20
-42.0193
 11
49.3001
 21
-42.0874
  0
LINE
  8
0
 10
49.3001
 20
-42.0874
 11
49.1443
 21
-42.1491
  0
LINE
  8
0
 10
49.1443
 20
-42.1491
 11
48.9861
 21
-42.2042
  0
LINE
  8
0
 10
48.9861
 20
-42.2042
 11
48.8257
 21
-42.2526
  0
LINE
  8
0
 10
48.8257
 20
-42.2526
 11
48.6634
 21
-42.2943
  0
LINE
  8
0
 10
48.6634
 20
-42.2943
 11
48.4995
 21
-42.3291
  0
LINE
  8
0
 10
48.4995
 20
-42.3291
 11
48.3343
 21
-42.3571
  0
LINE
  8
0
 10
48.3343
 20
-42.3571
 11
48.1681
 21
-42.3781
  0
LINE
  8
0
 10
48.1681
 20
-42.3781
 11
48.0012
 21
-42.3921
  0
LINE
  8
0
 10
48.0012
 20
-42.3921
 11
47.8338
 21
-42.3991
  0
LINE
  8
0
 10
47.8338
 20
-42.3991
 11
42.25
 21
-42.3991
  0
LINE
  8
0
 10
42.25
 20
-42.3991
 11
42.25
 21
-44.4
  0
LINE
  8
0
 10
42.25
 20
-44.4
 11
87.75
 21
-44.4
  0
LINE
  8
0
 10
87.75
 20
-44.4
 11
87.75
 21
-42.3991
  0
LINE
  8
0
 10
64.7068
 20
-13.9969
 11
64.1209
 21
-13.9724
  0
LINE
  8
0
 10
64.1209
 20
-13.9724
 11
63.5366
 21
-13.9233
  0
LINE
  8
0
 10
63.5366
 20
-13.9233
 11
62.9548
 21
-13.8498
  0
LINE
  8
0
 10
62.9548
 20
-13.8498
 11
62.3767
 21
-13.752
  0
LINE
  8
0
 10
62.3767
 20
-13.752
 11
61.8031
 21
-13.6301
  0
LINE
  8
0
 10
61.8031
 20
-13.6301
 11
61.2351
 21
-13.4843
  0
LINE
  8
0
 10
61.2351
 20
-13.4843
 11
60.6738
 21
-13.3148
  0
LINE
  8
0
 10
60.6738
 20
-13.3148
 11
60.12
 21
-13.1219
  0
LINE
  8
0
 10
60.12
 20
-13.1219
 11
59.5748
 21
-12.9061
  0
LINE
  8
0
 10
59.5748
 20
-12.9061
 11
59.0391
 21
-12.6676
  0
LINE
  8
0
 10
59.0391
 20
-12.6676
 11
58.5139
 21
-12.4068
  0
LINE
  8
0
 10
58.5139
 20
-12.4068
 11
58
 21
-12.1243
  0
LINE
  8
0
 10
58
 20
-12.1243
 11
57.4984
 21
-11.8206
  0
LINE
  8
0
 10
57.4984
 20
-11.8206
 11
57.01
 21
-11.4961
  0
LINE
  8
0
 10
57.01
 20
-11.4961
 11
56.5356
 21
-11.1514
  0
LINE
  8
0
 10
56.5356
 20
-11.1514
 11
56.0761
 21
-10.7872
  0
LINE
  8
0
 10
56.0761
 20
-10.7872
 11
55.6322
 21
-10.404
  0
LINE
  8
0
 10
55.6322
 20
-10.404
 11
55.2047
 21
-10.0026
  0
LINE
  8
0
 10
55.2047
 20
-10.0026
 11
54.7944
 21
-9.58365
  0
LINE
  8
0
 10
54.7944
 20
-9.58365
 11
54.4021
 21
-9.14789
  0
LINE
  8
0
 10
54.4021
 20
-9.14789
 11
54.0283
 21
-8.69606
  0
LINE
  8
0
 10
54.0283
 20
-8.69606
 11
53.6738
 21
-8.22899
  0
LINE
  8
0
 10
53.6738
 20
-8.22899
 11
53.3391
 21
-7.74747
  0
LINE
  8
0
 10
53.3391
 20
-7.74747
 11
53.0249
 21
-7.25237
  0
LINE
  8
0
 10
53.0249
 20
-7.25237
 11
52.7317
 21
-6.74454
  0
LINE
  8
0
 10
52.7317
 20
-6.74454
 11
52.46
 21
-6.22488
  0
LINE
  8
0
 10
52.46
 20
-6.22488
 11
52.2104
 21
-5.69431
  0
LINE
  8
0
 10
52.2104
 20
-5.69431
 11
51.9831
 21
-5.15373
  0
LINE
  8
0
 10
51.9831
 20
-5.15373
 11
51.7787
 21
-4.60413
  0
LINE
  8
0
 10
51.7787
 20
-4.60413
 11
51.5975
 21
-4.04643
  0
LINE
  8
0
 10
51.5975
 20
-4.04643
 11
51.4398
 21
-3.48164
  0
LINE
  8
0
 10
51.4398
 20
-3.48164
 11
51.3059
 21
-2.91075
  0
LINE
  8
0
 10
51.3059
 20
-2.91075
 11
51.1961
 21
-2.33475
  0
LINE
  8
0
 10
51.1961
 20
-2.33475
 11
51.1104
 21
-1.75465
  0
LINE
  8
0
 10
51.1104
 20
-1.75465
 11
51.0491
 21
-1.17148
  0
LINE
  8
0
 10
51.0491
 20
-1.17148
 11
51.0123
 21
-0.586258
  0
LINE
  8
0
 10
51.0123
 20
-0.586258
 11
51
 21
0
  0
LINE
  8
0
 10
51
 20
0
 11
51.0123
 21
0.586258
  0
LINE
  8
0
 10
51.0123
 20
0.586258
 11
51.0491
 21
1.17148
  0
LINE
  8
0
 10
51.0491
 20
1.17148
 11
51.1104
 21
1.75465
  0
LINE
  8
0
 10
51.1104
 20
1.75465
 11
51.1961
 21
2.33475
  0
LINE
  8
0
 10
51.1961
 20
2.33475
 11
51.3059
 21
2.91075
  0
LINE
  8
0
 10
51.3059
 20
2.91075
 11
51.4398
 21
3.48164
  0
LINE
  8
0
 10
51.4398
 20
3.48164
 11
51.5975
 21
4.04643
  0
LINE
  8
0
 10
51.5975
 20
4.04643
 11
51.7787
 21
4.60413
  0
LINE
  8
0
 10
51.7787
 20
4.60413
 11
51.9831
 21
5.15373
  0
LINE
  8
0
 10
51.9831
 20
5.15373
 11
52.2104
 21
5.69431
  0
LINE
  8
0
 10
52.2104
 20
5.69431
 11
52.46
 21
6.22488
  0
LINE
  8
0
 10
52.46
 20
6.22488
 11
52.7317
 21
6.74454
  0
LINE
  8
0
 10
52.7317
 20
6.74454
 11
53.0249
 21
7.25237
  0
LINE
  8
0
 10
53.0249
 20
7.25237
 11
53.3391
 21
7.74747
  0
LINE
  8
0
 10
53.3391
 20
7.74747
 11
53.6738
 21
8.22899
  0
LINE
  8
0
 10
53.6738
 20
8.22899
 11
54.0283
 21
8.69606
  0
LINE
  8
0
 10
54.0283
 20
8.69606
 11
54.4021
 21
9.14789
  0
LINE
  8
0
 10
54.4021
 20
9.14789
 11
54.7944
 21
9.58365
  0
LINE
  8
0
 10
54.7944
 20
9.58365
 11
55.2047
 21
10.0026
  0
LINE
  8
0
 10
55.2047
 20
10.0026
 11
55.6322
 21
10.404
  0
LINE
  8
0
 10
55.6322
 20
10.404
 11
56.0761
 21
10.7872
  0
LINE
  8
0
 10
56.0761
 20
10.7872
 11
56.5356
 21
11.1514
  0
LINE
  8
0
 10
56.5356
 20
11.1514
 11
57.01
 21
11.4961
  0
LINE
  8
0
 10
57.01
 20
11.4961
 11
57.4984
 21
11.8206
  0
LINE
  8
0
 10
57.4984
 20
11.8206
 11
58
 21
12.1243
  0
LINE
  8
0
 10
58
 20
12.1243
 11
58.5139
 21
12.4068
  0
LINE
  8
0
 10
58.5139
 20
12.4068
 11
59.0391
 21
12.6676
  0
LINE
  8
0
 10
59.0391
 20
12.6676
 11
59.5748
 21
12.9061
  0
LINE
  8
0
 10
59.5748
 20
12.9061
 11
60.12
 21
13.1219
  0
LINE
  8
0
 10
60.12
 20
13.1219
 11
60.6738
 21
13.3148
  0
LINE
  8
0
 10
60.6738
 20
13.3148
 11
61.2351
 21
13.4843
  0
LINE
  8
0
 10
61.2351
 20
13.4843
 11
61.8031
 21
13.6301
  0
LINE
  8
0
 10
61.8031
 20
13.6301
 11
62.3767
 21
13.752
  0
LINE
  8
0
 10
62.3767
 20
13.752
 11
62.9548
 21
13.8498
  0
LINE
  8
0
 10
62.9548
 20
13.8498
 11
63.5366
 21
13.9233
  0
LINE
  8
0
 10
63.5366
 20
13.9233
 11
64.1209
 21
13.9724
  0
LINE
  8
0
 10
64.1209
 20
13.9724
 11
64.7068
 21
13.9969
  0
LINE
  8
0
 10
64.7068
 20
13.9969
 11
65.2932
 21
13.9969
  0
LINE
  8
0
 10
65.2932
 20
13.9969
 11
65.8791
 21
13.9724
  0
LINE
  8
0
 10
65.8791
 20
13.9724
 11
66.4634
 21
13.9233
  0
LINE
  8
0
 10
66.4634
 20
13.9233
 11
67.0452
 21
13.8498
  0
LINE
  8
0
 10
67.0452
 20
13.8498
 11
67.6233
 21
13.752
  0
LINE
  8
0
 10
67.6233
 20
13.752
 11
68.1969
 21
13.6301
  0
LINE
  8
0
 10
68.1969
 20
13.6301
 11
68.7649
 21
13.4843
  0
LINE
  8
0
 10
68.7649
 20
13.4843
 11
69.3262
 21
13.3148
  0
LINE
  8
0
 10
69.3262
 20
13.3148
 11
69.88
 21
13.1219
  0
LINE
  8
0
 10
69.88
 20
13.1219
 11
70.4252
 21
12.9061
  0
LINE
  8
0
 10
70.4252
 20
12.9061
 11
70.9609
 21
12.6676
  0
LINE
  8
0
 10
70.9609
 20
12.6676
 11
71.4861
 21
12.4068
  0
LINE
  8
0
 10
71.4861
 20
12.4068
 11
72
 21
12.1243
  0
LINE
  8
0
 10
72
 20
12.1243
 11
72.5016
 21
11.8206
  0
LINE
  8
0
 10
72.5016
 20
11.8206
 11
72.99
 21
11.4961
  0
LINE
  8
0
 10
72.99
 20
11.4961
 11
73.4644
 21
11.1514
  0
LINE
  8
0
 10
73.4644
 20
11.1514
 11
73.9239
 21
10.7872
  0
LINE
  8
0
 10
73.9239
 20
10.7872
 11
74.3678
 21
10.404
  0
LINE
  8
0
 10
74.3678
 20
10.404
 11
74.7953
 21
10.0026
  0
LINE
  8
0
 10
74.7953
 20
10.0026
 11
75.2056
 21
9.58365
  0
LINE
  8
0
 10
75.2056
 20
9.58365
 11
75.5979
 21
9.14789
  0
LINE
  8
0
 10
75.5979
 20
9.14789
 11
75.9717
 21
8.69606
  0
LINE
  8
0
 10
75.9717
 20
8.69606
 11
76.3262
 21
8.22899
  0
LINE
  8
0
 10
76.3262
 20
8.22899
 11
76.6609
 21
7.74747
  0
LINE
  8
0
 10
76.6609
 20
7.74747
 11
76.9751
 21
7.25237
  0
LINE
  8
0
 10
76.9751
 20
7.25237
 11
77.2683
 21
6.74454
  0
LINE
  8
0
 10
77.2683
 20
6.74454
 11
77.54
 21
6.22488
  0
LINE
  8
0
 10
77.54
 20
6.22488
 11
77.7896
 21
5.69431
  0
LINE
  8
0
 10
77.7896
 20
5.69431
 11
78.0169
 21
5.15373
  0
LINE
  8
0
 10
78.0169
 20
5.15373
 11
78.2213
 21
4.60413
  0
LINE
  8
0
 10
78.2213
 20
4.60413
 11
78.4025
 21
4.04643
  0
LINE
  8
0
 10
78.4025
 20
4.04643
 11
78.5602
 21
3.48164
  0
LINE
  8
0
 10
78.5602
 20
3.48164
 11
78.6941
 21
2.91075
  0
LINE
  8
0
 10
78.6941
 20
2.91075
 11
78.8039
 21
2.33475
  0
LINE
  8
0
 10
78.8039
 20
2.33475
 11
78.8896
 21
1.75465
  0
LINE
  8
0
 10
78.8896
 20
1.75465
 11
78.9509
 21
1.17148
  0
LINE
  8
0
 10
78.9509
 20
1.17148
 11
78.9877
 21
0.586258
  0
LINE
  8
0
 10
78.9877
 20
0.586258
 11
79
 21
0
  0
LINE
  8
0
 10
79
 20
0
 11
78.9877
 21
-0.586258
  0
LINE
  8
0
 10
78.9877
 20
-0.586258
 11
78.9509
 21
-1.17148
  0
LINE
  8
0
 10
78.9509
 20
-1.17148
 11
78.8896
 21
-1.75465
  0
LINE
  8
0
 10
78.8896
 20
-1.75465
 11
78.8039
 21
-2.33475
  0
LINE
  8
0
 10
78.8039
 20
-2.33475
 11
78.6941
 21
-2.91075
  0
LINE
  8
0
 10
78.6941
 20
-2.91075
 11
78.5602
 21
-3.48164
  0
LINE
  8
0
 10
78.5602
 20
-3.48164
 11
78.4025
 21
-4.04643
  0
LINE
  8
0
 10
78.4025
 20
-4.04643
 11
78.2213
 21
-4.60413
  0
LINE
  8
0
 10
78.2213
 20
-4.60413
 11
78.0169
 21
-5.15373
  0
LINE
  8
0
 10
78.0169
 20
-5.15373
 11
77.7896
 21
-5.69431
  0
LINE
  8
0
 10
77.7896
 20
-5.69431
 11
77.54
 21
-6.22488
  0
LINE
  8
0
 10
77.54
 20
-6.22488
 11
77.2683
 21
-6.74454
  0
LINE
  8
0
 10
77.2683
 20
-6.74454
 11
76.9751
 21
-7.25237
  0
LINE
  8
0
 10
76.9751
 20
-7.25237
 11
76.6609
 21
-7.74747
  0
LINE
  8
0
 10
76.6609
 20
-7.74747
 11
76.3262
 21
-8.22899
  0
LINE
  8
0
 10
76.3262
 20
-8.22899
 11
75.9717
 21
-8.69606
  0
LINE
  8
0
 10
75.9717
 20
-8.69606
 11
75.5979
 21
-9.14789
  0
LINE
  8
0
 10
75.5979
 20
-9.14789
 11
75.2056
 21
-9.58365
  0
LINE
  8
0
 10
75.2056
 20
-9.58365
 11
74.7953
 21
-10.0026
  0
LINE
  8
0
 10
74.7953
 20
-10.0026
 11
74.3678
 21
-10.404
  0
LINE
  8
0
 10
74.3678
 20
-10.404
 11
73.9239
 21
-10.7872
  0
LINE
  8
0
 10
73.9239
 20
-10.7872
 11
73.4644
 21
-11.1514
  0
LINE
  8
0
 10
73.4644
 20
-11.1514
 11
72.99
 21
-11.4961
  0
LINE
  8
0
 10
72.99
 20
-11.4961
 11
72.5016
 21
-11.8206
  0
LINE
  8
0
 10
72.5016
 20
-11.8206
 11
72
 21
-12.1243
  0
LINE
  8
0
 10
72
 20
-12.1243
 11
71.4861
 21
-12.4068
  0
LINE
  8
0
 10
71.4861
 20
-12.4068
 11
70.9609
 21
-12.6676
  0
LINE
  8
0
 10
70.9609
 20
-12.6676
 11
70.4252
 21
-12.9061
  0
LINE
  8
0
 10
70.4252
 20
-12.9061
 11
69.88
 21
-13.1219
  0
LINE
  8
0
 10
69.88
 20
-13.1219
 11
69.3262
 21
-13.3148
  0
LINE
  8
0
 10
69.3262
 20
-13.3148
 11
68.7649
 21
-13.4843
  0
LINE
  8
0
 10
68.7649
 20
-13.4843
 11
68.1969
 21
-13.6301
  0
LINE
  8
0
 10
68.1969
 20
-13.6301
 11
67.6233
 21
-13.752
  0
LINE
  8
0
 10
67.6233
 20
-13.752
 11
67.0452
 21
-13.8498
  0
LINE
  8
0
 10
67.0452
 20
-13.8498
 11
66.4634
 21
-13.9233
  0
LINE
  8
0
 10
66.4634
 20
-13.9233
 11
65.8791
 21
-13.9724
  0
LINE
  8
0
 10
65.8791
 20
-13.9724
 11
65.2932
 21
-13.9969
  0
LINE
  8
0
 10
65.2932
 20
-13.9969
 11
64.7068
 21
-13.9969
  0
LINE
  8
0
 10
-42.25
 20
-42.3991
 11
-47.8338
 21
-42.3991
  0
LINE
  8
0
 10
-47.8338
 20
-42.3991
 11
-48.0012
 21
-42.3921
  0
LINE
  8
0
 10
-48.0012
 20
-42.3921
 11
-48.1681
 21
-42.3781
  0
LINE
  8
0
 10
-48.1681
 20
-42.3781
 11
-48.3343
 21
-42.3571
  0
LINE
  8
0
 10
-48.3343
 20
-42.3571
 11
-48.4995
 21
-42.3291
  0
LINE
  8
0
 10
-48.4995
 20
-42.3291
 11
-48.6634
 21
-42.2943
  0
LINE
  8
0
 10
-48.6634
 20
-42.2943
 11
-48.8257
 21
-42.2526
  0
LINE
  8
0
 10
-48.8257
 20
-42.2526
 11
-48.9861
 21
-42.2042
  0
LINE
  8
0
 10
-48.9861
 20
-42.2042
 11
-49.1443
 21
-42.1491
  0
LINE
  8
0
 10
-49.1443
 20
-42.1491
 11
-49.3001
 21
-42.0874
  0
LINE
  8
0
 10
-49.3001
 20
-42.0874
 11
-49.4531
 21
-42.0193
  0
LINE
  8
0
 10
-49.4531
 20
-42.0193
 11
-49.6032
 21
-41.9448
  0
LINE
  8
0
 10
-49.6032
 20
-41.9448
 11
-49.75
 21
-41.8641
  0
LINE
  8
0
 10
-49.75
 20
-41.8641
 11
-49.8933
 21
-41.7773
  0
LINE
  8
0
 10
-49.8933
 20
-41.7773
 11
-50.0329
 21
-41.6846
  0
LINE
  8
0
 10
-50.0329
 20
-41.6846
 11
-50.1684
 21
-41.5861
  0
LINE
  8
0
 10
-50.1684
 20
-41.5861
 11
-50.2997
 21
-41.482
  0
LINE
  8
0
 10
-50.2997
 20
-41.482
 11
-50.4265
 21
-41.3726
  0
LINE
  8
0
 10
-50.4265
 20
-41.3726
 11
-50.5487
 21
-41.2579
  0
LINE
  8
0
 10
-50.5487
 20
-41.2579
 11
-50.6659
 21
-41.1382
  0
LINE
  8
0
 10
-50.6659
 20
-41.1382
 11
-50.778
 21
-41.0137
  0
LINE
  8
0
 10
-50.778
 20
-41.0137
 11
-50.8848
 21
-40.8846
  0
LINE
  8
0
 10
-50.8848
 20
-40.8846
 11
-50.9861
 21
-40.7511
  0
LINE
  8
0
 10
-50.9861
 20
-40.7511
 11
-51.0817
 21
-40.6136
  0
LINE
  8
0
 10
-51.0817
 20
-40.6136
 11
-51.1715
 21
-40.4721
  0
LINE
  8
0
 10
-51.1715
 20
-40.4721
 11
-51.2552
 21
-40.327
  0
LINE
  8
0
 10
-51.2552
 20
-40.327
 11
-51.3329
 21
-40.1785
  0
LINE
  8
0
 10
-51.3329
 20
-40.1785
 11
-51.4042
 21
-40.0269
  0
LINE
  8
0
 10
-51.4042
 20
-40.0269
 11
-51.4691
 21
-39.8725
  0
LINE
  8
0
 10
-51.4691
 20
-39.8725
 11
-51.5275
 21
-39.7155
  0
LINE
  8
0
 10
-51.5275
 20
-39.7155
 11
-51.5793
 21
-39.5561
  0
LINE
  8
0
 10
-51.5793
 20
-39.5561
 11
-51.6243
 21
-39.3947
  0
LINE
  8
0
 10
-51.6243
 20
-39.3947
 11
-51.6626
 21
-39.2316
  0
LINE
  8
0
 10
-51.6626
 20
-39.2316
 11
-51.694
 21
-39.0671
  0
LINE
  8
0
 10
-51.694
 20
-39.0671
 11
-51.7185
 21
-38.9013
  0
LINE
  8
0
 10
-51.7185
 20
-38.9013
 11
-51.736
 21
-38.7347
  0
LINE
  8
0
 10
-51.736
 20
-38.7347
 11
-51.7465
 21
-38.5675
  0
LINE
  8
0
 10
-51.7465
 20
-38.5675
 11
-51.75
 21
-38.4
  0
LINE
  8
0
 10
-51.75
 20
-38.4
 11
-51.7465
 21
-38.2325
  0
LINE
  8
0
 10
-51.7465
 20
-38.2325
 11
-51.736
 21
-38.0653
  0
LINE
  8
0
 10
-51.736
 20
-38.0653
 11
-51.7185
 21
-37.8987
  0
LINE
  8
0
 10
-51.7185
 20
-37.8987
 11
-51.694
 21
-37.7329
  0
LINE
  8
0
 10
-51.694
 20
-37.7329
 11
-51.6626
 21
-37.5683
  0
LINE
  8
0
 10
-51.6626
 20
-37.5683
 11
-51.6243
 21
-37.4052
  0
LINE
  8
0
 10
-51.6243
 20
-37.4052
 11
-51.5793
 21
-37.2439
  0
LINE
  8
0
 10
-51.5793
 20
-37.2439
 11
-51.5275
 21
-37.0845
  0
LINE
  8
0
 10
-51.5275
 20
-37.0845
 11
-51.4691
 21
-36.9275
  0
LINE
  8
0
 10
-51.4691
 20
-36.9275
 11
-51.4042
 21
-36.773
  0
LINE
  8
0
 10
-51.4042
 20
-36.773
 11
-51.3329
 21
-36.6214
  0
LINE
  8
0
 10
-51.3329
 20
-36.6214
 11
-51.2552
 21
-36.473
  0
LINE
  8
0
 10
-51.2552
 20
-36.473
 11
-51.1715
 21
-36.3279
  0
LINE
  8
0
 10
-51.1715
 20
-36.3279
 11
-51.0817
 21
-36.1864
  0
LINE
  8
0
 10
-51.0817
 20
-36.1864
 11
-50.9861
 21
-36.0489
  0
LINE
  8
0
 10
-50.9861
 20
-36.0489
 11
-50.8848
 21
-35.9154
  0
LINE
  8
0
 10
-50.8848
 20
-35.9154
 11
-50.778
 21
-35.7863
  0
LINE
  8
0
 10
-50.778
 20
-35.7863
 11
-50.6659
 21
-35.6618
  0
LINE
  8
0
 10
-50.6659
 20
-35.6618
 11
-50.5487
 21
-35.5421
  0
LINE
  8
0
 10
-50.5487
 20
-35.5421
 11
-50.4265
 21
-35.4274
  0
LINE
  8
0
 10
-50.4265
 20
-35.4274
 11
-50.2997
 21
-35.3179
  0
LINE
  8
0
 10
-50.2997
 20
-35.3179
 11
-50.1684
 21
-35.2139
  0
LINE
  8
0
 10
-50.1684
 20
-35.2139
 11
-50.0329
 21
-35.1154
  0
LINE
  8
0
 10
-50.0329
 20
-35.1154
 11
-49.8933
 21
-35.0227
  0
LINE
  8
0
 10
-49.8933
 20
-35.0227
 11
-49.75
 21
-34.9359
  0
LINE
  8
0
 10
-49.75
 20
-34.9359
 11
-49.6032
 21
-34.8552
  0
LINE
  8
0
 10
-49.6032
 20
-34.8552
 11
-49.4531
 21
-34.7807
  0
LINE
  8
0
 10
-49.4531
 20
-34.7807
 11
-49.3001
 21
-34.7125
  0
LINE
  8
0
 10
-49.3001
 20
-34.7125
 11
-49.1443
 21
-34.6509
  0
LINE
  8
0
 10
-49.1443
 20
-34.6509
 11
-48.9861
 21
-34.5958
  0
LINE
  8
0
 10
-48.9861
 20
-34.5958
 11
-48.8257
 21
-34.5473
  0
LINE
  8
0
 10
-48.8257
 20
-34.5473
 11
-48.6634
 21
-34.5057
  0
LINE
  8
0
 10
-48.6634
 20
-34.5057
 11
-48.4995
 21
-34.4708
  0
LINE
  8
0
 10
-48.4995
 20
-34.4708
 11
-48.3343
 21
-34.4429
  0
LINE
  8
0
 10
-48.3343
 20
-34.4429
 11
-48.1681
 21
-34.4219
  0
LINE
  8
0
 10
-48.1681
 20
-34.4219
 11
-48.0012
 21
-34.4079
  0
LINE
  8
0
 10
-48.0012
 20
-34.4079
 11
-47.8338
 21
-34.4009
  0
LINE
  8
0
 10
-47.8338
 20
-34.4009
 11
-42.25
 21
-34.4009
  0
LINE
  8
0
 10
-42.25
 20
-34.4009
 11
-42.25
 21
-15.4417
  0
LINE
  8
0
 10
-42.25
 20
-15.4417
 11
-42.0947
 21
-15.2183
  0
LINE
  8
0
 10
-42.0947
 20
-15.2183
 11
-41.4775
 21
-14.2457
  0
LINE
  8
0
 10
-41.4775
 20
-14.2457
 11
-40.9016
 21
-13.2482
  0
LINE
  8
0
 10
-40.9016
 20
-13.2482
 11
-40.3679
 21
-12.2275
  0
LINE
  8
0
 10
-40.3679
 20
-12.2275
 11
-39.8775
 21
-11.1853
  0
LINE
  8
0
 10
-39.8775
 20
-11.1853
 11
-39.4312
 21
-10.1234
  0
LINE
  8
0
 10
-39.4312
 20
-10.1234
 11
-39.0297
 21
-9.04382
  0
LINE
  8
0
 10
-39.0297
 20
-9.04382
 11
-38.6737
 21
-7.94836
  0
LINE
  8
0
 10
-38.6737
 20
-7.94836
 11
-38.364
 21
-6.83896
  0
LINE
  8
0
 10
-38.364
 20
-6.83896
 11
-38.101
 21
-5.71756
  0
LINE
  8
0
 10
-38.101
 20
-5.71756
 11
-37.8851
 21
-4.58614
  0
LINE
  8
0
 10
-37.8851
 20
-4.58614
 11
-37.7169
 21
-3.44666
  0
LINE
  8
0
 10
-37.7169
 20
-3.44666
 11
-37.5965
 21
-2.30113
  0
LINE
  8
0
 10
-37.5965
 20
-2.30113
 11
-37.5241
 21
-1.15157
  0
LINE
  8
0
 10
-37.5241
 20
-1.15157
 11
-37.5
 21
0
  0
LINE
  8
0
 10
-37.5
 20
0
 11
-37.5241
 21
1.15157
  0
LINE
  8
0
 10
-37.5241
 20
1.15157
 11
-37.5965
 21
2.30113
  0
LINE
  8
0
 10
-37.5965
 20
2.30113
 11
-37.7169
 21
3.44666
  0
LINE
  8
0
 10
-37.7169
 20
3.44666
 11
-37.8851
 21
4.58614
  0
LINE
  8
0
 10
-37.8851
 20
4.58614
 11
-38.101
 21
5.71756
  0
LINE
  8
0
 10
-38.101
 20
5.71756
 11
-38.364
 21
6.83896
  0
LINE
  8
0
 10
-38.364
 20
6.83896
 11
-38.6737
 21
7.94836
  0
LINE
  8
0
 10
-38.6737
 20
7.94836
 11
-39.0297
 21
9.04382
  0
LINE
  8
0
 10
-39.0297
 20
9.04382
 11
-39.4312
 21
10.1234
  0
LINE
  8
0
 10
-39.4312
 20
10.1234
 11
-39.8775
 21
11.1853
  0
LINE
  8
0
 10
-39.8775
 20
11.1853
 11
-40.3679
 21
12.2275
  0
LINE
  8
0
 10
-40.3679
 20
12.2275
 11
-40.9016
 21
13.2482
  0
LINE
  8
0
 10
-40.9016
 20
13.2482
 11
-41.4775
 21
14.2457
  0
LINE
  8
0
 10
-41.4775
 20
14.2457
 11
-42.0947
 21
15.2183
  0
LINE
  8
0
 10
-42.0947
 20
15.2183
 11
-42.752
 21
16.1641
  0
LINE
  8
0
 10
-42.752
 20
16.1641
 11
-43.4484
 21
17.0816
  0
LINE
  8
0
 10
-43.4484
 20
17.0816
 11
-44.1826
 21
17.9691
  0
LINE
  8
0
 10
-44.1826
 20
17.9691
 11
-44.9534
 21
18.825
  0
LINE
  8
0
 10
-44.9534
 20
18.825
 11
-45.7593
 21
19.648
  0
LINE
  8
0
 10
-45.7593
 20
19.648
 11
-46.5989
 21
20.4365
  0
LINE
  8
0
 10
-46.5989
 20
20.4365
 11
-47.4708
 21
21.1891
  0
LINE
  8
0
 10
-47.4708
 20
21.1891
 11
-48.3735
 21
21.9046
  0
LINE
  8
0
 10
-48.3735
 20
21.9046
 11
-49.3054
 21
22.5816
  0
LINE
  8
0
 10
-49.3054
 20
22.5816
 11
-50.2648
 21
23.219
  0
LINE
  8
0
 10
-50.2648
 20
23.219
 11
-51.25
 21
23.8157
  0
LINE
  8
0
 10
-51.25
 20
23.8157
 11
-52.2594
 21
24.3706
  0
LINE
  8
0
 10
-52.2594
 20
24.3706
 11
-53.2911
 21
24.8827
  0
LINE
  8
0
 10
-53.2911
 20
24.8827
 11
-54.3433
 21
25.3512
  0
LINE
  8
0
 10
-54.3433
 20
25.3512
 11
-55.4143
 21
25.7753
  0
LINE
  8
0
 10
-55.4143
 20
25.7753
 11
-56.502
 21
26.1541
  0
LINE
  8
0
 10
-56.502
 20
26.1541
 11
-57.6047
 21
26.487
  0
LINE
  8
0
 10
-57.6047
 20
26.487
 11
-58.7204
 21
26.7734
  0
LINE
  8
0
 10
-58.7204
 20
26.7734
 11
-59.847
 21
27.0129
  0
LINE
  8
0
 10
-59.847
 20
27.0129
 11
-60.9827
 21
27.205
  0
LINE
  8
0
 10
-60.9827
 20
27.205
 11
-62.1255
 21
27.3493
  0
LINE
  8
0
 10
-62.1255
 20
27.3493
 11
-63.2733
 21
27.4457
  0
LINE
  8
0
 10
-63.2733
 20
27.4457
 11
-64.4241
 21
27.494
  0
LINE
  8
0
 10
-64.4241
 20
27.494
 11
-65.5759
 21
27.494
  0
LINE
  8
0
 10
-65.5759
 20
27.494
 11
-66.7267
 21
27.4457
  0
LINE
  8
0
 10
-66.7267
 20
27.4457
 11
-67.8745
 21
27.3493
  0
LINE
  8
0
 10
-67.8745
 20
27.3493
 11
-69.0173
 21
27.205
  0
LINE
  8
0
 10
-69.0173
 20
27.205
 11
-70.153
 21
27.0129
  0
LINE
  8
0
 10
-70.153
 20
27.0129
 11
-71.2796
 21
26.7734
  0
LINE
  8
0
 10
-71.2796
 20
26.7734
 11
-72.3953
 21
26.487
  0
LINE
  8
0
 10
-72.3953
 20
26.487
 11
-73.498
 21
26.1541
  0
LINE
  8
0
 10
-73.498
 20
26.1541
 11
-74.5857
 21
25.7753
  0
LINE
  8
0
 10
-74.5857
 20
25.7753
 11
-75.6567
 21
25.3512
  0
LINE
  8
0
 10
-75.6567
 20
25.3512
 11
-76.7089
 21
24.8827
  0
LINE
  8
0
 10
-76.7089
 20
24.8827
 11
-77.7406
 21
24.3706
  0
LINE
  8
0
 10
-77.7406
 20
24.3706
 11
-78.75
 21
23.8157
  0
LINE
  8
0
 10
-78.75
 20
23.8157
 11
-79.7352
 21
23.219
  0
LINE
  8
0
 10
-79.7352
 20
23.219
 11
-80.6946
 21
22.5816
  0
LINE
  8
0
 10
-80.6946
 20
22.5816
 11
-81.6265
 21
21.9046
  0
LINE
  8
0
 10
-81.6265
 20
21.9046
 11
-82.5292
 21
21.1891
  0
LINE
  8
0
 10
-82.5292
 20
21.1891
 11
-83.4011
 21
20.4365
  0
LINE
  8
0
 10
-83.4011
 20
20.4365
 11
-84.2407
 21
19.648
  0
LINE
  8
0
 10
-84.2407
 20
19.648
 11
-85.0466
 21
18.825
  0
LINE
  8
0
 10
-85.0466
 20
18.825
 11
-85.8174
 21
17.9691
  0
LINE
  8
0
 10
-85.8174
 20
17.9691
 11
-86.5516
 21
17.0816
  0
LINE
  8
0
 10
-86.5516
 20
17.0816
 11
-87.248
 21
16.1641
  0
LINE
  8
0
 10
-87.248
 20
16.1641
 11
-87.9053
 21
15.2183
  0
LINE
  8
0
 10
-87.9053
 20
15.2183
 11
-88.5225
 21
14.2457
  0
LINE
  8
0
 10
-88.5225
 20
14.2457
 11
-89.0984
 21
13.2482
  0
LINE
  8
0
 10
-89.0984
 20
13.2482
 11
-89.6321
 21
12.2275
  0
LINE
  8
0
 10
-89.6321
 20
12.2275
 11
-90.1225
 21
11.1853
  0
LINE
  8
0
 10
-90.1225
 20
11.1853
 11
-90.5688
 21
10.1234
  0
LINE
  8
0
 10
-90.5688
 20
10.1234
 11
-90.9703
 21
9.04382
  0
LINE
  8
0
 10
-90.9703
 20
9.04382
 11
-91.3263
 21
7.94836
  0
LINE
  8
0
 10
-91.3263
 20
7.94836
 11
-91.636
 21
6.83896
  0
LINE
  8
0
 10
-91.636
 20
6.83896
 11
-91.899
 21
5.71756
  0
LINE
  8
0
 10
-91.899
 20
5.71756
 11
-92.1149
 21
4.58614
  0
LINE
  8
0
 10
-92.1149
 20
4.58614
 11
-92.2831
 21
3.44666
  0
LINE
  8
0
 10
-92.2831
 20
3.44666
 11
-92.4035
 21
2.30113
  0
LINE
  8
0
 10
-92.4035
 20
2.30113
 11
-92.4759
 21
1.15157
  0
LINE
  8
0
 10
-92.4759
 20
1.15157
 11
-92.5
 21
0
  0
LINE
  8
0
 10
-92.5
 20
0
 11
-92.4759
 21
-1.15157
  0
LINE
  8
0
 10
-92.4759
 20
-1.15157
 11
-92.4035
 21
-2.30113
  0
LINE
  8
0
 10
-92.4035
 20
-2.30113
 11
-92.2831
 21
-3.44666
  0
LINE
  8
0
 10
-92.2831
 20
-3.44666
 11
-92.1149
 21
-4.58614
  0
LINE
  8
0
 10
-92.1149
 20
-4.58614
 11
-91.899
 21
-5.71756
  0
LINE
  8
0
 10
-91.899
 20
-5.71756
 11
-91.636
 21
-6.83896
  0
LINE
  8
0
 10
-91.636
 20
-6.83896
 11
-91.3263
 21
-7.94836
  0
LINE
  8
0
 10
-91.3263
 20
-7.94836
 11
-90.9703
 21
-9.04382
  0
LINE
  8
0
 10
-90.9703
 20
-9.04382
 11
-90.5688
 21
-10.1234
  0
LINE
  8
0
 10
-90.5688
 20
-10.1234
 11
-90.1225
 21
-11.1853
  0
LINE
  8
0
 10
-90.1225
 20
-11.1853
 11
-89.6321
 21
-12.2275
  0
LINE
  8
0
 10
-89.6321
 20
-12.2275
 11
-89.0984
 21
-13.2482
  0
LINE
  8
0
 10
-89.0984
 20
-13.2482
 11
-88.5225
 21
-14.2457
  0
LINE
  8
0
 10
-88.5225
 20
-14.2457
 11
-87.9053
 21
-15.2183
  0
LINE
  8
0
 10
-87.9053
 20
-15.2183
 11
-87.75
 21
-15.4417
  0
LINE
  8
0
 10
-87.75
 20
-15.4417
 11
-87.75
 21
-34.4009
  0
LINE
  8
0
 10
-87.75
 20
-34.4009
 11
-82.1662
 21
-34.4009
  0
LINE
  8
0
 10
-82.1662
 20
-34.4009
 11
-81.9988
 21
-34.4079
  0
LINE
  8
0
 10
-81.9988
 20
-34.4079
 11
-81.8319
 21
-34.4219
  0
LINE
  8
0
 10
-81.8319
 20
-34.4219
 11
-81.6657
 21
-34.4429
  0
LINE
  8
0
 10
-81.6657
 20
-34.4429
 11
-81.5005
 21
-34.4708
  0
LINE
  8
0
 10
-81.5005
 20
-34.4708
 11
-81.3366
 21
-34.5057
  0
LINE
  8
0
 10
-81.3366
 20
-34.5057
 11
-81.1743
 21
-34.5473
  0
LINE
  8
0
 10
-81.1743
 20
-34.5473
 11
-81.0139
 21
-34.5958
  0
LINE
  8
0
 10
-81.0139
 20
-34.5958
 11
-80.8557
 21
-34.6509
  0
LINE
  8
0
 10
-80.8557
 20
-34.6509
 11
-80.6999
 21
-34.7125
  0
LINE
  8
0
 10
-80.6999
 20
-34.7125
 11
-80.5469
 21
-34.7807
  0
LINE
  8
0
 10
-80.5469
 20
-34.7807
 11
-80.3968
 21
-34.8552
  0
LINE
  8
0
 10
-80.3968
 20
-34.8552
 11
-80.25
 21
-34.9359
  0
LINE
  8
0
 10
-80.25
 20
-34.9359
 11
-80.1067
 21
-35.0227
  0
LINE
  8
0
 10
-80.1067
 20
-35.0227
 11
-79.9671
 21
-35.1154
  0
LINE
  8
0
 10
-79.9671
 20
-35.1154
 11
-79.8316
 21
-35.2139
  0
LINE
  8
0
 10
-79.8316
 20
-35.2139
 11
-79.7003
 21
-35.3179
  0
LINE
  8
0
 10
-79.7003
 20
-35.3179
 11
-79.5735
 21
-35.4274
  0
LINE
  8
0
 10
-79.5735
 20
-35.4274
 11
-79.4513
 21
-35.5421
  0
LINE
  8
0
 10
-79.4513
 20
-35.5421
 11
-79.3341
 21
-35.6618
  0
LINE
  8
0
 10
-79.3341
 20
-35.6618
 11
-79.222
 21
-35.7863
  0
LINE
  8
0
 10
-79.222
 20
-35.7863
 11
-79.1152
 21
-35.9154
  0
LINE
  8
0
 10
-79.1152
 20
-35.9154
 11
-79.0139
 21
-36.0489
  0
LINE
  8
0
 10
-79.0139
 20
-36.0489
 11
-78.9183
 21
-36.1864
  0
LINE
  8
0
 10
-78.9183
 20
-36.1864
 11
-78.8285
 21
-36.3279
  0
LINE
  8
0
 10
-78.8285
 20
-36.3279
 11
-78.7448
 21
-36.473
  0
LINE
  8
0
 10
-78.7448
 20
-36.473
 11
-78.6671
 21
-36.6214
  0
LINE
  8
0
 10
-78.6671
 20
-36.6214
 11
-78.5958
 21
-36.773
  0
LINE
  8
0
 10
-78.5958
 20
-36.773
 11
-78.5309
 21
-36.9275
  0
LINE
  8
0
 10
-78.5309
 20
-36.9275
 11
-78.4725
 21
-37.0845
  0
LINE
  8
0
 10
-78.4725
 20
-37.0845
 11
-78.4207
 21
-37.2439
  0
LINE
  8
0
 10
-78.4207
 20
-37.2439
 11
-78.3757
 21
-37.4052
  0
LINE
  8
0
 10
-78.3757
 20
-37.4052
 11
-78.3374
 21
-37.5683
  0
LINE
  8
0
 10
-78.3374
 20
-37.5683
 11
-78.306
 21
-37.7329
  0
LINE
  8
0
 10
-78.306
 20
-37.7329
 11
-78.2815
 21
-37.8987
  0
LINE
  8
0
 10
-78.2815
 20
-37.8987
 11
-78.264
 21
-38.0653
  0
LINE
  8
0
 10
-78.264
 20
-38.0653
 11
-78.2535
 21
-38.2325
  0
LINE
  8
0
 10
-78.2535
 20
-38.2325
 11
-78.25
 21
-38.4
  0
LINE
  8
0
 10
-78.25
 20
-38.4
 11
-78.2535
 21
-38.5675
  0
LINE
  8
0
 10
-78.2535
 20
-38.5675
 11
-78.264
 21
-38.7347
  0
LINE
  8
0
 10
-78.264
 20
-38.7347
 11
-78.2815
 21
-38.9013
  0
LINE
  8
0
 10
-78.2815
 20
-38.9013
 11
-78.306
 21
-39.0671
  0
LINE
  8
0
 10
-78.306
 20
-39.0671
 11
-78.3374
 21
-39.2316
  0
LINE
  8
0
 10
-78.3374
 20
-39.2316
 11
-78.3757
 21
-39.3947
  0
LINE
  8
0
 10
-78.3757
 20
-39.3947
 11
-78.4207
 21
-39.5561
  0
LINE
  8
0
 10
-78.4207
 20
-39.5561
 11
-78.4725
 21
-39.7155
  0
LINE
  8
0
 10
-78.4725
 20
-39.7155
 11
-78.5309
 21
-39.8725
  0
LINE
  8
0
 10
-78.5309
 20
-39.8725
 11
-78.5958
 21
-40.0269
  0
LINE
  8
0
 10
-78.5958
 20
-40.0269
 11
-78.6671
 21
-40.1785
  0
LINE
  8
0
 10
-78.6671
 20
-40.1785
 11
-78.7448
 21
-40.327
  0
LINE
  8
0
 10
-78.7448
 20
-40.327
 11
-78.8285
 21
-40.4721
  0
LINE
  8
0
 10
-78.8285
 20
-40.4721
 11
-78.9183
 21
-40.6136
  0
LINE
  8
0
 10
-78.9183
 20
-40.6136
 11
-79.0139
 21
-40.7511
  0
LINE
  8
0
 10
-79.0139
 20
-40.7511
 11
-79.1152
 21
-40.8846
  0
LINE
  8
0
 10
-79.1152
 20
-40.8846
 11
-79.222
 21
-41.0137
  0
LINE
  8
0
 10
-79.222
 20
-41.0137
 11
-79.3341
 21
-41.1382
  0
LINE
  8
0
 10
-79.3341
 20
-41.1382
 11
-79.4513
 21
-41.2579
  0
LINE
  8
0
 10
-79.4513
 20
-41.2579
 11
-79.5735
 21
-41.3726
  0
LINE
  8
0
 10
-79.5735
 20
-41.3726
 11
-79.7003
 21
-41.482
  0
LINE
  8
0
 10
-79.7003
 20
-41.482
 11
-79.8316
 21
-41.5861
  0
LINE
  8
0
 10
-79.8316
 20
-41.5861
 11
-79.9671
 21
-41.6846
  0
LINE
  8
0
 10
-79.9671
 20
-41.6846
 11
-80.1067
 21
-41.7773
  0
LINE
  8
0
 10
-80.1067
 20
-41.7773
 11
-80.25
 21
-41.8641
  0
LINE
  8
0
 10
-80.25
 20
-41.8641
 11
-80.3968
 21
-41.9448
  0
LINE
  8
0
 10
-80.3968
 20
-41.9448
 11
-80.5469
 21
-42.0193
  0
LINE
  8
0
 10
-80.5469
 20
-42.0193
 11
-80.6999
 21
-42.0874
  0
LINE
  8
0
 10
-80.6999
 20
-42.0874
 11
-80.8557
 21
-42.1491
  0
LINE
  8
0
 10
-80.8557
 20
-42.1491
 11
-81.0139
 21
-42.2042
  0
LINE
  8
0
 10
-81.0139
 20
-42.2042
 11
-81.1743
 21
-42.2526
  0
LINE
  8
0
 10
-81.1743
 20
-42.2526
 11
-81.3366
 21
-42.2943
  0
LINE
  8
0
 10
-81.3366
 20
-42.2943
 11
-81.5005
 21
-42.3291
  0
LINE
  8
0
 10
-81.5005
 20
-42.3291
 11
-81.6657
 21
-42.3571
  0
LINE
  8
0
 10
-81.6657
 20
-42.3571
 11
-81.8319
 21
-42.3781
  0
LINE
  8
0
 10
-81.8319
 20
-42.3781
 11
-81.9988
 21
-42.3921
  0
LINE
  8
0
 10
-81.9988
 20
-42.3921
 11
-82.1662
 21
-42.3991
  0
LINE
  8
0
 10
-82.1662
 20
-42.3991
 11
-87.75
 21
-42.3991
  0
LINE
  8
0
 10
-87.75
 20
-42.3991
 11
-87.75
 21
-44.4
  0
LINE
  8
0
 10
-87.75
 20
-44.4
 11
-42.25
 21
-44.4
  0
LINE
  8
0
 10
-42.25
 20
-44.4
 11
-42.25
 21
-42.3991
  0
ENDSEC
  0
SECTION
  2
OBJECTS
  0
DICTIONARY
  0
ENDSEC
  0
EOF
